G04 #@! TF.GenerationSoftware,KiCad,Pcbnew,(5.1.5-0-10_14)*
G04 #@! TF.CreationDate,2020-12-02T09:52:56-06:00*
G04 #@! TF.ProjectId,nrfmicro,6e72666d-6963-4726-9f2e-6b696361645f,rev?*
G04 #@! TF.SameCoordinates,Original*
G04 #@! TF.FileFunction,Paste,Top*
G04 #@! TF.FilePolarity,Positive*
%FSLAX46Y46*%
G04 Gerber Fmt 4.6, Leading zero omitted, Abs format (unit mm)*
G04 Created by KiCad (PCBNEW (5.1.5-0-10_14)) date 2020-12-02 09:52:56*
%MOMM*%
%LPD*%
G04 APERTURE LIST*
%ADD10R,1.060000X0.650000*%
%ADD11C,0.100000*%
%ADD12R,0.800000X0.900000*%
%ADD13R,0.900000X0.800000*%
%ADD14R,0.500000X0.500000*%
%ADD15R,0.600000X1.450000*%
%ADD16R,0.300000X1.450000*%
%ADD17R,0.650000X1.000000*%
%ADD18R,1.000000X0.650000*%
G04 APERTURE END LIST*
D10*
X92600000Y-76508307D03*
X92600000Y-78408307D03*
X90400000Y-78408307D03*
X90400000Y-77458307D03*
X90400000Y-76508307D03*
X98600000Y-80758305D03*
X98600000Y-82658305D03*
X96400000Y-82658305D03*
X96400000Y-81708305D03*
X96400000Y-80758305D03*
D11*
G36*
X94702691Y-74151028D02*
G01*
X94723926Y-74154178D01*
X94744750Y-74159394D01*
X94764962Y-74166626D01*
X94784368Y-74175805D01*
X94802781Y-74186841D01*
X94820024Y-74199629D01*
X94835930Y-74214045D01*
X94850346Y-74229951D01*
X94863134Y-74247194D01*
X94874170Y-74265607D01*
X94883349Y-74285013D01*
X94890581Y-74305225D01*
X94895797Y-74326049D01*
X94898947Y-74347284D01*
X94900000Y-74368725D01*
X94900000Y-74881225D01*
X94898947Y-74902666D01*
X94895797Y-74923901D01*
X94890581Y-74944725D01*
X94883349Y-74964937D01*
X94874170Y-74984343D01*
X94863134Y-75002756D01*
X94850346Y-75019999D01*
X94835930Y-75035905D01*
X94820024Y-75050321D01*
X94802781Y-75063109D01*
X94784368Y-75074145D01*
X94764962Y-75083324D01*
X94744750Y-75090556D01*
X94723926Y-75095772D01*
X94702691Y-75098922D01*
X94681250Y-75099975D01*
X94243750Y-75099975D01*
X94222309Y-75098922D01*
X94201074Y-75095772D01*
X94180250Y-75090556D01*
X94160038Y-75083324D01*
X94140632Y-75074145D01*
X94122219Y-75063109D01*
X94104976Y-75050321D01*
X94089070Y-75035905D01*
X94074654Y-75019999D01*
X94061866Y-75002756D01*
X94050830Y-74984343D01*
X94041651Y-74964937D01*
X94034419Y-74944725D01*
X94029203Y-74923901D01*
X94026053Y-74902666D01*
X94025000Y-74881225D01*
X94025000Y-74368725D01*
X94026053Y-74347284D01*
X94029203Y-74326049D01*
X94034419Y-74305225D01*
X94041651Y-74285013D01*
X94050830Y-74265607D01*
X94061866Y-74247194D01*
X94074654Y-74229951D01*
X94089070Y-74214045D01*
X94104976Y-74199629D01*
X94122219Y-74186841D01*
X94140632Y-74175805D01*
X94160038Y-74166626D01*
X94180250Y-74159394D01*
X94201074Y-74154178D01*
X94222309Y-74151028D01*
X94243750Y-74149975D01*
X94681250Y-74149975D01*
X94702691Y-74151028D01*
G37*
G36*
X96277691Y-74151028D02*
G01*
X96298926Y-74154178D01*
X96319750Y-74159394D01*
X96339962Y-74166626D01*
X96359368Y-74175805D01*
X96377781Y-74186841D01*
X96395024Y-74199629D01*
X96410930Y-74214045D01*
X96425346Y-74229951D01*
X96438134Y-74247194D01*
X96449170Y-74265607D01*
X96458349Y-74285013D01*
X96465581Y-74305225D01*
X96470797Y-74326049D01*
X96473947Y-74347284D01*
X96475000Y-74368725D01*
X96475000Y-74881225D01*
X96473947Y-74902666D01*
X96470797Y-74923901D01*
X96465581Y-74944725D01*
X96458349Y-74964937D01*
X96449170Y-74984343D01*
X96438134Y-75002756D01*
X96425346Y-75019999D01*
X96410930Y-75035905D01*
X96395024Y-75050321D01*
X96377781Y-75063109D01*
X96359368Y-75074145D01*
X96339962Y-75083324D01*
X96319750Y-75090556D01*
X96298926Y-75095772D01*
X96277691Y-75098922D01*
X96256250Y-75099975D01*
X95818750Y-75099975D01*
X95797309Y-75098922D01*
X95776074Y-75095772D01*
X95755250Y-75090556D01*
X95735038Y-75083324D01*
X95715632Y-75074145D01*
X95697219Y-75063109D01*
X95679976Y-75050321D01*
X95664070Y-75035905D01*
X95649654Y-75019999D01*
X95636866Y-75002756D01*
X95625830Y-74984343D01*
X95616651Y-74964937D01*
X95609419Y-74944725D01*
X95604203Y-74923901D01*
X95601053Y-74902666D01*
X95600000Y-74881225D01*
X95600000Y-74368725D01*
X95601053Y-74347284D01*
X95604203Y-74326049D01*
X95609419Y-74305225D01*
X95616651Y-74285013D01*
X95625830Y-74265607D01*
X95636866Y-74247194D01*
X95649654Y-74229951D01*
X95664070Y-74214045D01*
X95679976Y-74199629D01*
X95697219Y-74186841D01*
X95715632Y-74175805D01*
X95735038Y-74166626D01*
X95755250Y-74159394D01*
X95776074Y-74154178D01*
X95797309Y-74151028D01*
X95818750Y-74149975D01*
X96256250Y-74149975D01*
X96277691Y-74151028D01*
G37*
G36*
X88777691Y-75684361D02*
G01*
X88798926Y-75687511D01*
X88819750Y-75692727D01*
X88839962Y-75699959D01*
X88859368Y-75709138D01*
X88877781Y-75720174D01*
X88895024Y-75732962D01*
X88910930Y-75747378D01*
X88925346Y-75763284D01*
X88938134Y-75780527D01*
X88949170Y-75798940D01*
X88958349Y-75818346D01*
X88965581Y-75838558D01*
X88970797Y-75859382D01*
X88973947Y-75880617D01*
X88975000Y-75902058D01*
X88975000Y-76339558D01*
X88973947Y-76360999D01*
X88970797Y-76382234D01*
X88965581Y-76403058D01*
X88958349Y-76423270D01*
X88949170Y-76442676D01*
X88938134Y-76461089D01*
X88925346Y-76478332D01*
X88910930Y-76494238D01*
X88895024Y-76508654D01*
X88877781Y-76521442D01*
X88859368Y-76532478D01*
X88839962Y-76541657D01*
X88819750Y-76548889D01*
X88798926Y-76554105D01*
X88777691Y-76557255D01*
X88756250Y-76558308D01*
X88243750Y-76558308D01*
X88222309Y-76557255D01*
X88201074Y-76554105D01*
X88180250Y-76548889D01*
X88160038Y-76541657D01*
X88140632Y-76532478D01*
X88122219Y-76521442D01*
X88104976Y-76508654D01*
X88089070Y-76494238D01*
X88074654Y-76478332D01*
X88061866Y-76461089D01*
X88050830Y-76442676D01*
X88041651Y-76423270D01*
X88034419Y-76403058D01*
X88029203Y-76382234D01*
X88026053Y-76360999D01*
X88025000Y-76339558D01*
X88025000Y-75902058D01*
X88026053Y-75880617D01*
X88029203Y-75859382D01*
X88034419Y-75838558D01*
X88041651Y-75818346D01*
X88050830Y-75798940D01*
X88061866Y-75780527D01*
X88074654Y-75763284D01*
X88089070Y-75747378D01*
X88104976Y-75732962D01*
X88122219Y-75720174D01*
X88140632Y-75709138D01*
X88160038Y-75699959D01*
X88180250Y-75692727D01*
X88201074Y-75687511D01*
X88222309Y-75684361D01*
X88243750Y-75683308D01*
X88756250Y-75683308D01*
X88777691Y-75684361D01*
G37*
G36*
X88777691Y-74109361D02*
G01*
X88798926Y-74112511D01*
X88819750Y-74117727D01*
X88839962Y-74124959D01*
X88859368Y-74134138D01*
X88877781Y-74145174D01*
X88895024Y-74157962D01*
X88910930Y-74172378D01*
X88925346Y-74188284D01*
X88938134Y-74205527D01*
X88949170Y-74223940D01*
X88958349Y-74243346D01*
X88965581Y-74263558D01*
X88970797Y-74284382D01*
X88973947Y-74305617D01*
X88975000Y-74327058D01*
X88975000Y-74764558D01*
X88973947Y-74785999D01*
X88970797Y-74807234D01*
X88965581Y-74828058D01*
X88958349Y-74848270D01*
X88949170Y-74867676D01*
X88938134Y-74886089D01*
X88925346Y-74903332D01*
X88910930Y-74919238D01*
X88895024Y-74933654D01*
X88877781Y-74946442D01*
X88859368Y-74957478D01*
X88839962Y-74966657D01*
X88819750Y-74973889D01*
X88798926Y-74979105D01*
X88777691Y-74982255D01*
X88756250Y-74983308D01*
X88243750Y-74983308D01*
X88222309Y-74982255D01*
X88201074Y-74979105D01*
X88180250Y-74973889D01*
X88160038Y-74966657D01*
X88140632Y-74957478D01*
X88122219Y-74946442D01*
X88104976Y-74933654D01*
X88089070Y-74919238D01*
X88074654Y-74903332D01*
X88061866Y-74886089D01*
X88050830Y-74867676D01*
X88041651Y-74848270D01*
X88034419Y-74828058D01*
X88029203Y-74807234D01*
X88026053Y-74785999D01*
X88025000Y-74764558D01*
X88025000Y-74327058D01*
X88026053Y-74305617D01*
X88029203Y-74284382D01*
X88034419Y-74263558D01*
X88041651Y-74243346D01*
X88050830Y-74223940D01*
X88061866Y-74205527D01*
X88074654Y-74188284D01*
X88089070Y-74172378D01*
X88104976Y-74157962D01*
X88122219Y-74145174D01*
X88140632Y-74134138D01*
X88160038Y-74124959D01*
X88180250Y-74117727D01*
X88201074Y-74112511D01*
X88222309Y-74109361D01*
X88243750Y-74108308D01*
X88756250Y-74108308D01*
X88777691Y-74109361D01*
G37*
G36*
X101527691Y-75684361D02*
G01*
X101548926Y-75687511D01*
X101569750Y-75692727D01*
X101589962Y-75699959D01*
X101609368Y-75709138D01*
X101627781Y-75720174D01*
X101645024Y-75732962D01*
X101660930Y-75747378D01*
X101675346Y-75763284D01*
X101688134Y-75780527D01*
X101699170Y-75798940D01*
X101708349Y-75818346D01*
X101715581Y-75838558D01*
X101720797Y-75859382D01*
X101723947Y-75880617D01*
X101725000Y-75902058D01*
X101725000Y-76339558D01*
X101723947Y-76360999D01*
X101720797Y-76382234D01*
X101715581Y-76403058D01*
X101708349Y-76423270D01*
X101699170Y-76442676D01*
X101688134Y-76461089D01*
X101675346Y-76478332D01*
X101660930Y-76494238D01*
X101645024Y-76508654D01*
X101627781Y-76521442D01*
X101609368Y-76532478D01*
X101589962Y-76541657D01*
X101569750Y-76548889D01*
X101548926Y-76554105D01*
X101527691Y-76557255D01*
X101506250Y-76558308D01*
X100993750Y-76558308D01*
X100972309Y-76557255D01*
X100951074Y-76554105D01*
X100930250Y-76548889D01*
X100910038Y-76541657D01*
X100890632Y-76532478D01*
X100872219Y-76521442D01*
X100854976Y-76508654D01*
X100839070Y-76494238D01*
X100824654Y-76478332D01*
X100811866Y-76461089D01*
X100800830Y-76442676D01*
X100791651Y-76423270D01*
X100784419Y-76403058D01*
X100779203Y-76382234D01*
X100776053Y-76360999D01*
X100775000Y-76339558D01*
X100775000Y-75902058D01*
X100776053Y-75880617D01*
X100779203Y-75859382D01*
X100784419Y-75838558D01*
X100791651Y-75818346D01*
X100800830Y-75798940D01*
X100811866Y-75780527D01*
X100824654Y-75763284D01*
X100839070Y-75747378D01*
X100854976Y-75732962D01*
X100872219Y-75720174D01*
X100890632Y-75709138D01*
X100910038Y-75699959D01*
X100930250Y-75692727D01*
X100951074Y-75687511D01*
X100972309Y-75684361D01*
X100993750Y-75683308D01*
X101506250Y-75683308D01*
X101527691Y-75684361D01*
G37*
G36*
X101527691Y-74109361D02*
G01*
X101548926Y-74112511D01*
X101569750Y-74117727D01*
X101589962Y-74124959D01*
X101609368Y-74134138D01*
X101627781Y-74145174D01*
X101645024Y-74157962D01*
X101660930Y-74172378D01*
X101675346Y-74188284D01*
X101688134Y-74205527D01*
X101699170Y-74223940D01*
X101708349Y-74243346D01*
X101715581Y-74263558D01*
X101720797Y-74284382D01*
X101723947Y-74305617D01*
X101725000Y-74327058D01*
X101725000Y-74764558D01*
X101723947Y-74785999D01*
X101720797Y-74807234D01*
X101715581Y-74828058D01*
X101708349Y-74848270D01*
X101699170Y-74867676D01*
X101688134Y-74886089D01*
X101675346Y-74903332D01*
X101660930Y-74919238D01*
X101645024Y-74933654D01*
X101627781Y-74946442D01*
X101609368Y-74957478D01*
X101589962Y-74966657D01*
X101569750Y-74973889D01*
X101548926Y-74979105D01*
X101527691Y-74982255D01*
X101506250Y-74983308D01*
X100993750Y-74983308D01*
X100972309Y-74982255D01*
X100951074Y-74979105D01*
X100930250Y-74973889D01*
X100910038Y-74966657D01*
X100890632Y-74957478D01*
X100872219Y-74946442D01*
X100854976Y-74933654D01*
X100839070Y-74919238D01*
X100824654Y-74903332D01*
X100811866Y-74886089D01*
X100800830Y-74867676D01*
X100791651Y-74848270D01*
X100784419Y-74828058D01*
X100779203Y-74807234D01*
X100776053Y-74785999D01*
X100775000Y-74764558D01*
X100775000Y-74327058D01*
X100776053Y-74305617D01*
X100779203Y-74284382D01*
X100784419Y-74263558D01*
X100791651Y-74243346D01*
X100800830Y-74223940D01*
X100811866Y-74205527D01*
X100824654Y-74188284D01*
X100839070Y-74172378D01*
X100854976Y-74157962D01*
X100872219Y-74145174D01*
X100890632Y-74134138D01*
X100910038Y-74124959D01*
X100930250Y-74117727D01*
X100951074Y-74112511D01*
X100972309Y-74109361D01*
X100993750Y-74108308D01*
X101506250Y-74108308D01*
X101527691Y-74109361D01*
G37*
G36*
X99277691Y-74109361D02*
G01*
X99298926Y-74112511D01*
X99319750Y-74117727D01*
X99339962Y-74124959D01*
X99359368Y-74134138D01*
X99377781Y-74145174D01*
X99395024Y-74157962D01*
X99410930Y-74172378D01*
X99425346Y-74188284D01*
X99438134Y-74205527D01*
X99449170Y-74223940D01*
X99458349Y-74243346D01*
X99465581Y-74263558D01*
X99470797Y-74284382D01*
X99473947Y-74305617D01*
X99475000Y-74327058D01*
X99475000Y-74764558D01*
X99473947Y-74785999D01*
X99470797Y-74807234D01*
X99465581Y-74828058D01*
X99458349Y-74848270D01*
X99449170Y-74867676D01*
X99438134Y-74886089D01*
X99425346Y-74903332D01*
X99410930Y-74919238D01*
X99395024Y-74933654D01*
X99377781Y-74946442D01*
X99359368Y-74957478D01*
X99339962Y-74966657D01*
X99319750Y-74973889D01*
X99298926Y-74979105D01*
X99277691Y-74982255D01*
X99256250Y-74983308D01*
X98743750Y-74983308D01*
X98722309Y-74982255D01*
X98701074Y-74979105D01*
X98680250Y-74973889D01*
X98660038Y-74966657D01*
X98640632Y-74957478D01*
X98622219Y-74946442D01*
X98604976Y-74933654D01*
X98589070Y-74919238D01*
X98574654Y-74903332D01*
X98561866Y-74886089D01*
X98550830Y-74867676D01*
X98541651Y-74848270D01*
X98534419Y-74828058D01*
X98529203Y-74807234D01*
X98526053Y-74785999D01*
X98525000Y-74764558D01*
X98525000Y-74327058D01*
X98526053Y-74305617D01*
X98529203Y-74284382D01*
X98534419Y-74263558D01*
X98541651Y-74243346D01*
X98550830Y-74223940D01*
X98561866Y-74205527D01*
X98574654Y-74188284D01*
X98589070Y-74172378D01*
X98604976Y-74157962D01*
X98622219Y-74145174D01*
X98640632Y-74134138D01*
X98660038Y-74124959D01*
X98680250Y-74117727D01*
X98701074Y-74112511D01*
X98722309Y-74109361D01*
X98743750Y-74108308D01*
X99256250Y-74108308D01*
X99277691Y-74109361D01*
G37*
G36*
X99277691Y-75684361D02*
G01*
X99298926Y-75687511D01*
X99319750Y-75692727D01*
X99339962Y-75699959D01*
X99359368Y-75709138D01*
X99377781Y-75720174D01*
X99395024Y-75732962D01*
X99410930Y-75747378D01*
X99425346Y-75763284D01*
X99438134Y-75780527D01*
X99449170Y-75798940D01*
X99458349Y-75818346D01*
X99465581Y-75838558D01*
X99470797Y-75859382D01*
X99473947Y-75880617D01*
X99475000Y-75902058D01*
X99475000Y-76339558D01*
X99473947Y-76360999D01*
X99470797Y-76382234D01*
X99465581Y-76403058D01*
X99458349Y-76423270D01*
X99449170Y-76442676D01*
X99438134Y-76461089D01*
X99425346Y-76478332D01*
X99410930Y-76494238D01*
X99395024Y-76508654D01*
X99377781Y-76521442D01*
X99359368Y-76532478D01*
X99339962Y-76541657D01*
X99319750Y-76548889D01*
X99298926Y-76554105D01*
X99277691Y-76557255D01*
X99256250Y-76558308D01*
X98743750Y-76558308D01*
X98722309Y-76557255D01*
X98701074Y-76554105D01*
X98680250Y-76548889D01*
X98660038Y-76541657D01*
X98640632Y-76532478D01*
X98622219Y-76521442D01*
X98604976Y-76508654D01*
X98589070Y-76494238D01*
X98574654Y-76478332D01*
X98561866Y-76461089D01*
X98550830Y-76442676D01*
X98541651Y-76423270D01*
X98534419Y-76403058D01*
X98529203Y-76382234D01*
X98526053Y-76360999D01*
X98525000Y-76339558D01*
X98525000Y-75902058D01*
X98526053Y-75880617D01*
X98529203Y-75859382D01*
X98534419Y-75838558D01*
X98541651Y-75818346D01*
X98550830Y-75798940D01*
X98561866Y-75780527D01*
X98574654Y-75763284D01*
X98589070Y-75747378D01*
X98604976Y-75732962D01*
X98622219Y-75720174D01*
X98640632Y-75709138D01*
X98660038Y-75699959D01*
X98680250Y-75692727D01*
X98701074Y-75687511D01*
X98722309Y-75684361D01*
X98743750Y-75683308D01*
X99256250Y-75683308D01*
X99277691Y-75684361D01*
G37*
G36*
X90952691Y-74151028D02*
G01*
X90973926Y-74154178D01*
X90994750Y-74159394D01*
X91014962Y-74166626D01*
X91034368Y-74175805D01*
X91052781Y-74186841D01*
X91070024Y-74199629D01*
X91085930Y-74214045D01*
X91100346Y-74229951D01*
X91113134Y-74247194D01*
X91124170Y-74265607D01*
X91133349Y-74285013D01*
X91140581Y-74305225D01*
X91145797Y-74326049D01*
X91148947Y-74347284D01*
X91150000Y-74368725D01*
X91150000Y-74881225D01*
X91148947Y-74902666D01*
X91145797Y-74923901D01*
X91140581Y-74944725D01*
X91133349Y-74964937D01*
X91124170Y-74984343D01*
X91113134Y-75002756D01*
X91100346Y-75019999D01*
X91085930Y-75035905D01*
X91070024Y-75050321D01*
X91052781Y-75063109D01*
X91034368Y-75074145D01*
X91014962Y-75083324D01*
X90994750Y-75090556D01*
X90973926Y-75095772D01*
X90952691Y-75098922D01*
X90931250Y-75099975D01*
X90493750Y-75099975D01*
X90472309Y-75098922D01*
X90451074Y-75095772D01*
X90430250Y-75090556D01*
X90410038Y-75083324D01*
X90390632Y-75074145D01*
X90372219Y-75063109D01*
X90354976Y-75050321D01*
X90339070Y-75035905D01*
X90324654Y-75019999D01*
X90311866Y-75002756D01*
X90300830Y-74984343D01*
X90291651Y-74964937D01*
X90284419Y-74944725D01*
X90279203Y-74923901D01*
X90276053Y-74902666D01*
X90275000Y-74881225D01*
X90275000Y-74368725D01*
X90276053Y-74347284D01*
X90279203Y-74326049D01*
X90284419Y-74305225D01*
X90291651Y-74285013D01*
X90300830Y-74265607D01*
X90311866Y-74247194D01*
X90324654Y-74229951D01*
X90339070Y-74214045D01*
X90354976Y-74199629D01*
X90372219Y-74186841D01*
X90390632Y-74175805D01*
X90410038Y-74166626D01*
X90430250Y-74159394D01*
X90451074Y-74154178D01*
X90472309Y-74151028D01*
X90493750Y-74149975D01*
X90931250Y-74149975D01*
X90952691Y-74151028D01*
G37*
G36*
X92527691Y-74151028D02*
G01*
X92548926Y-74154178D01*
X92569750Y-74159394D01*
X92589962Y-74166626D01*
X92609368Y-74175805D01*
X92627781Y-74186841D01*
X92645024Y-74199629D01*
X92660930Y-74214045D01*
X92675346Y-74229951D01*
X92688134Y-74247194D01*
X92699170Y-74265607D01*
X92708349Y-74285013D01*
X92715581Y-74305225D01*
X92720797Y-74326049D01*
X92723947Y-74347284D01*
X92725000Y-74368725D01*
X92725000Y-74881225D01*
X92723947Y-74902666D01*
X92720797Y-74923901D01*
X92715581Y-74944725D01*
X92708349Y-74964937D01*
X92699170Y-74984343D01*
X92688134Y-75002756D01*
X92675346Y-75019999D01*
X92660930Y-75035905D01*
X92645024Y-75050321D01*
X92627781Y-75063109D01*
X92609368Y-75074145D01*
X92589962Y-75083324D01*
X92569750Y-75090556D01*
X92548926Y-75095772D01*
X92527691Y-75098922D01*
X92506250Y-75099975D01*
X92068750Y-75099975D01*
X92047309Y-75098922D01*
X92026074Y-75095772D01*
X92005250Y-75090556D01*
X91985038Y-75083324D01*
X91965632Y-75074145D01*
X91947219Y-75063109D01*
X91929976Y-75050321D01*
X91914070Y-75035905D01*
X91899654Y-75019999D01*
X91886866Y-75002756D01*
X91875830Y-74984343D01*
X91866651Y-74964937D01*
X91859419Y-74944725D01*
X91854203Y-74923901D01*
X91851053Y-74902666D01*
X91850000Y-74881225D01*
X91850000Y-74368725D01*
X91851053Y-74347284D01*
X91854203Y-74326049D01*
X91859419Y-74305225D01*
X91866651Y-74285013D01*
X91875830Y-74265607D01*
X91886866Y-74247194D01*
X91899654Y-74229951D01*
X91914070Y-74214045D01*
X91929976Y-74199629D01*
X91947219Y-74186841D01*
X91965632Y-74175805D01*
X91985038Y-74166626D01*
X92005250Y-74159394D01*
X92026074Y-74154178D01*
X92047309Y-74151028D01*
X92068750Y-74149975D01*
X92506250Y-74149975D01*
X92527691Y-74151028D01*
G37*
G36*
X138277691Y-71276029D02*
G01*
X138298926Y-71279179D01*
X138319750Y-71284395D01*
X138339962Y-71291627D01*
X138359368Y-71300806D01*
X138377781Y-71311842D01*
X138395024Y-71324630D01*
X138410930Y-71339046D01*
X138425346Y-71354952D01*
X138438134Y-71372195D01*
X138449170Y-71390608D01*
X138458349Y-71410014D01*
X138465581Y-71430226D01*
X138470797Y-71451050D01*
X138473947Y-71472285D01*
X138475000Y-71493726D01*
X138475000Y-71931226D01*
X138473947Y-71952667D01*
X138470797Y-71973902D01*
X138465581Y-71994726D01*
X138458349Y-72014938D01*
X138449170Y-72034344D01*
X138438134Y-72052757D01*
X138425346Y-72070000D01*
X138410930Y-72085906D01*
X138395024Y-72100322D01*
X138377781Y-72113110D01*
X138359368Y-72124146D01*
X138339962Y-72133325D01*
X138319750Y-72140557D01*
X138298926Y-72145773D01*
X138277691Y-72148923D01*
X138256250Y-72149976D01*
X137743750Y-72149976D01*
X137722309Y-72148923D01*
X137701074Y-72145773D01*
X137680250Y-72140557D01*
X137660038Y-72133325D01*
X137640632Y-72124146D01*
X137622219Y-72113110D01*
X137604976Y-72100322D01*
X137589070Y-72085906D01*
X137574654Y-72070000D01*
X137561866Y-72052757D01*
X137550830Y-72034344D01*
X137541651Y-72014938D01*
X137534419Y-71994726D01*
X137529203Y-71973902D01*
X137526053Y-71952667D01*
X137525000Y-71931226D01*
X137525000Y-71493726D01*
X137526053Y-71472285D01*
X137529203Y-71451050D01*
X137534419Y-71430226D01*
X137541651Y-71410014D01*
X137550830Y-71390608D01*
X137561866Y-71372195D01*
X137574654Y-71354952D01*
X137589070Y-71339046D01*
X137604976Y-71324630D01*
X137622219Y-71311842D01*
X137640632Y-71300806D01*
X137660038Y-71291627D01*
X137680250Y-71284395D01*
X137701074Y-71279179D01*
X137722309Y-71276029D01*
X137743750Y-71274976D01*
X138256250Y-71274976D01*
X138277691Y-71276029D01*
G37*
G36*
X138277691Y-72851029D02*
G01*
X138298926Y-72854179D01*
X138319750Y-72859395D01*
X138339962Y-72866627D01*
X138359368Y-72875806D01*
X138377781Y-72886842D01*
X138395024Y-72899630D01*
X138410930Y-72914046D01*
X138425346Y-72929952D01*
X138438134Y-72947195D01*
X138449170Y-72965608D01*
X138458349Y-72985014D01*
X138465581Y-73005226D01*
X138470797Y-73026050D01*
X138473947Y-73047285D01*
X138475000Y-73068726D01*
X138475000Y-73506226D01*
X138473947Y-73527667D01*
X138470797Y-73548902D01*
X138465581Y-73569726D01*
X138458349Y-73589938D01*
X138449170Y-73609344D01*
X138438134Y-73627757D01*
X138425346Y-73645000D01*
X138410930Y-73660906D01*
X138395024Y-73675322D01*
X138377781Y-73688110D01*
X138359368Y-73699146D01*
X138339962Y-73708325D01*
X138319750Y-73715557D01*
X138298926Y-73720773D01*
X138277691Y-73723923D01*
X138256250Y-73724976D01*
X137743750Y-73724976D01*
X137722309Y-73723923D01*
X137701074Y-73720773D01*
X137680250Y-73715557D01*
X137660038Y-73708325D01*
X137640632Y-73699146D01*
X137622219Y-73688110D01*
X137604976Y-73675322D01*
X137589070Y-73660906D01*
X137574654Y-73645000D01*
X137561866Y-73627757D01*
X137550830Y-73609344D01*
X137541651Y-73589938D01*
X137534419Y-73569726D01*
X137529203Y-73548902D01*
X137526053Y-73527667D01*
X137525000Y-73506226D01*
X137525000Y-73068726D01*
X137526053Y-73047285D01*
X137529203Y-73026050D01*
X137534419Y-73005226D01*
X137541651Y-72985014D01*
X137550830Y-72965608D01*
X137561866Y-72947195D01*
X137574654Y-72929952D01*
X137589070Y-72914046D01*
X137604976Y-72899630D01*
X137622219Y-72886842D01*
X137640632Y-72875806D01*
X137660038Y-72866627D01*
X137680250Y-72859395D01*
X137701074Y-72854179D01*
X137722309Y-72851029D01*
X137743750Y-72849976D01*
X138256250Y-72849976D01*
X138277691Y-72851029D01*
G37*
G36*
X148027691Y-22442719D02*
G01*
X148048926Y-22445869D01*
X148069750Y-22451085D01*
X148089962Y-22458317D01*
X148109368Y-22467496D01*
X148127781Y-22478532D01*
X148145024Y-22491320D01*
X148160930Y-22505736D01*
X148175346Y-22521642D01*
X148188134Y-22538885D01*
X148199170Y-22557298D01*
X148208349Y-22576704D01*
X148215581Y-22596916D01*
X148220797Y-22617740D01*
X148223947Y-22638975D01*
X148225000Y-22660416D01*
X148225000Y-23172916D01*
X148223947Y-23194357D01*
X148220797Y-23215592D01*
X148215581Y-23236416D01*
X148208349Y-23256628D01*
X148199170Y-23276034D01*
X148188134Y-23294447D01*
X148175346Y-23311690D01*
X148160930Y-23327596D01*
X148145024Y-23342012D01*
X148127781Y-23354800D01*
X148109368Y-23365836D01*
X148089962Y-23375015D01*
X148069750Y-23382247D01*
X148048926Y-23387463D01*
X148027691Y-23390613D01*
X148006250Y-23391666D01*
X147568750Y-23391666D01*
X147547309Y-23390613D01*
X147526074Y-23387463D01*
X147505250Y-23382247D01*
X147485038Y-23375015D01*
X147465632Y-23365836D01*
X147447219Y-23354800D01*
X147429976Y-23342012D01*
X147414070Y-23327596D01*
X147399654Y-23311690D01*
X147386866Y-23294447D01*
X147375830Y-23276034D01*
X147366651Y-23256628D01*
X147359419Y-23236416D01*
X147354203Y-23215592D01*
X147351053Y-23194357D01*
X147350000Y-23172916D01*
X147350000Y-22660416D01*
X147351053Y-22638975D01*
X147354203Y-22617740D01*
X147359419Y-22596916D01*
X147366651Y-22576704D01*
X147375830Y-22557298D01*
X147386866Y-22538885D01*
X147399654Y-22521642D01*
X147414070Y-22505736D01*
X147429976Y-22491320D01*
X147447219Y-22478532D01*
X147465632Y-22467496D01*
X147485038Y-22458317D01*
X147505250Y-22451085D01*
X147526074Y-22445869D01*
X147547309Y-22442719D01*
X147568750Y-22441666D01*
X148006250Y-22441666D01*
X148027691Y-22442719D01*
G37*
G36*
X146452691Y-22442719D02*
G01*
X146473926Y-22445869D01*
X146494750Y-22451085D01*
X146514962Y-22458317D01*
X146534368Y-22467496D01*
X146552781Y-22478532D01*
X146570024Y-22491320D01*
X146585930Y-22505736D01*
X146600346Y-22521642D01*
X146613134Y-22538885D01*
X146624170Y-22557298D01*
X146633349Y-22576704D01*
X146640581Y-22596916D01*
X146645797Y-22617740D01*
X146648947Y-22638975D01*
X146650000Y-22660416D01*
X146650000Y-23172916D01*
X146648947Y-23194357D01*
X146645797Y-23215592D01*
X146640581Y-23236416D01*
X146633349Y-23256628D01*
X146624170Y-23276034D01*
X146613134Y-23294447D01*
X146600346Y-23311690D01*
X146585930Y-23327596D01*
X146570024Y-23342012D01*
X146552781Y-23354800D01*
X146534368Y-23365836D01*
X146514962Y-23375015D01*
X146494750Y-23382247D01*
X146473926Y-23387463D01*
X146452691Y-23390613D01*
X146431250Y-23391666D01*
X145993750Y-23391666D01*
X145972309Y-23390613D01*
X145951074Y-23387463D01*
X145930250Y-23382247D01*
X145910038Y-23375015D01*
X145890632Y-23365836D01*
X145872219Y-23354800D01*
X145854976Y-23342012D01*
X145839070Y-23327596D01*
X145824654Y-23311690D01*
X145811866Y-23294447D01*
X145800830Y-23276034D01*
X145791651Y-23256628D01*
X145784419Y-23236416D01*
X145779203Y-23215592D01*
X145776053Y-23194357D01*
X145775000Y-23172916D01*
X145775000Y-22660416D01*
X145776053Y-22638975D01*
X145779203Y-22617740D01*
X145784419Y-22596916D01*
X145791651Y-22576704D01*
X145800830Y-22557298D01*
X145811866Y-22538885D01*
X145824654Y-22521642D01*
X145839070Y-22505736D01*
X145854976Y-22491320D01*
X145872219Y-22478532D01*
X145890632Y-22467496D01*
X145910038Y-22458317D01*
X145930250Y-22451085D01*
X145951074Y-22445869D01*
X145972309Y-22442719D01*
X145993750Y-22441666D01*
X146431250Y-22441666D01*
X146452691Y-22442719D01*
G37*
G36*
X110452691Y-22442719D02*
G01*
X110473926Y-22445869D01*
X110494750Y-22451085D01*
X110514962Y-22458317D01*
X110534368Y-22467496D01*
X110552781Y-22478532D01*
X110570024Y-22491320D01*
X110585930Y-22505736D01*
X110600346Y-22521642D01*
X110613134Y-22538885D01*
X110624170Y-22557298D01*
X110633349Y-22576704D01*
X110640581Y-22596916D01*
X110645797Y-22617740D01*
X110648947Y-22638975D01*
X110650000Y-22660416D01*
X110650000Y-23172916D01*
X110648947Y-23194357D01*
X110645797Y-23215592D01*
X110640581Y-23236416D01*
X110633349Y-23256628D01*
X110624170Y-23276034D01*
X110613134Y-23294447D01*
X110600346Y-23311690D01*
X110585930Y-23327596D01*
X110570024Y-23342012D01*
X110552781Y-23354800D01*
X110534368Y-23365836D01*
X110514962Y-23375015D01*
X110494750Y-23382247D01*
X110473926Y-23387463D01*
X110452691Y-23390613D01*
X110431250Y-23391666D01*
X109993750Y-23391666D01*
X109972309Y-23390613D01*
X109951074Y-23387463D01*
X109930250Y-23382247D01*
X109910038Y-23375015D01*
X109890632Y-23365836D01*
X109872219Y-23354800D01*
X109854976Y-23342012D01*
X109839070Y-23327596D01*
X109824654Y-23311690D01*
X109811866Y-23294447D01*
X109800830Y-23276034D01*
X109791651Y-23256628D01*
X109784419Y-23236416D01*
X109779203Y-23215592D01*
X109776053Y-23194357D01*
X109775000Y-23172916D01*
X109775000Y-22660416D01*
X109776053Y-22638975D01*
X109779203Y-22617740D01*
X109784419Y-22596916D01*
X109791651Y-22576704D01*
X109800830Y-22557298D01*
X109811866Y-22538885D01*
X109824654Y-22521642D01*
X109839070Y-22505736D01*
X109854976Y-22491320D01*
X109872219Y-22478532D01*
X109890632Y-22467496D01*
X109910038Y-22458317D01*
X109930250Y-22451085D01*
X109951074Y-22445869D01*
X109972309Y-22442719D01*
X109993750Y-22441666D01*
X110431250Y-22441666D01*
X110452691Y-22442719D01*
G37*
G36*
X112027691Y-22442719D02*
G01*
X112048926Y-22445869D01*
X112069750Y-22451085D01*
X112089962Y-22458317D01*
X112109368Y-22467496D01*
X112127781Y-22478532D01*
X112145024Y-22491320D01*
X112160930Y-22505736D01*
X112175346Y-22521642D01*
X112188134Y-22538885D01*
X112199170Y-22557298D01*
X112208349Y-22576704D01*
X112215581Y-22596916D01*
X112220797Y-22617740D01*
X112223947Y-22638975D01*
X112225000Y-22660416D01*
X112225000Y-23172916D01*
X112223947Y-23194357D01*
X112220797Y-23215592D01*
X112215581Y-23236416D01*
X112208349Y-23256628D01*
X112199170Y-23276034D01*
X112188134Y-23294447D01*
X112175346Y-23311690D01*
X112160930Y-23327596D01*
X112145024Y-23342012D01*
X112127781Y-23354800D01*
X112109368Y-23365836D01*
X112089962Y-23375015D01*
X112069750Y-23382247D01*
X112048926Y-23387463D01*
X112027691Y-23390613D01*
X112006250Y-23391666D01*
X111568750Y-23391666D01*
X111547309Y-23390613D01*
X111526074Y-23387463D01*
X111505250Y-23382247D01*
X111485038Y-23375015D01*
X111465632Y-23365836D01*
X111447219Y-23354800D01*
X111429976Y-23342012D01*
X111414070Y-23327596D01*
X111399654Y-23311690D01*
X111386866Y-23294447D01*
X111375830Y-23276034D01*
X111366651Y-23256628D01*
X111359419Y-23236416D01*
X111354203Y-23215592D01*
X111351053Y-23194357D01*
X111350000Y-23172916D01*
X111350000Y-22660416D01*
X111351053Y-22638975D01*
X111354203Y-22617740D01*
X111359419Y-22596916D01*
X111366651Y-22576704D01*
X111375830Y-22557298D01*
X111386866Y-22538885D01*
X111399654Y-22521642D01*
X111414070Y-22505736D01*
X111429976Y-22491320D01*
X111447219Y-22478532D01*
X111465632Y-22467496D01*
X111485038Y-22458317D01*
X111505250Y-22451085D01*
X111526074Y-22445869D01*
X111547309Y-22442719D01*
X111568750Y-22441666D01*
X112006250Y-22441666D01*
X112027691Y-22442719D01*
G37*
G36*
X94777691Y-84067690D02*
G01*
X94798926Y-84070840D01*
X94819750Y-84076056D01*
X94839962Y-84083288D01*
X94859368Y-84092467D01*
X94877781Y-84103503D01*
X94895024Y-84116291D01*
X94910930Y-84130707D01*
X94925346Y-84146613D01*
X94938134Y-84163856D01*
X94949170Y-84182269D01*
X94958349Y-84201675D01*
X94965581Y-84221887D01*
X94970797Y-84242711D01*
X94973947Y-84263946D01*
X94975000Y-84285387D01*
X94975000Y-84797887D01*
X94973947Y-84819328D01*
X94970797Y-84840563D01*
X94965581Y-84861387D01*
X94958349Y-84881599D01*
X94949170Y-84901005D01*
X94938134Y-84919418D01*
X94925346Y-84936661D01*
X94910930Y-84952567D01*
X94895024Y-84966983D01*
X94877781Y-84979771D01*
X94859368Y-84990807D01*
X94839962Y-84999986D01*
X94819750Y-85007218D01*
X94798926Y-85012434D01*
X94777691Y-85015584D01*
X94756250Y-85016637D01*
X94318750Y-85016637D01*
X94297309Y-85015584D01*
X94276074Y-85012434D01*
X94255250Y-85007218D01*
X94235038Y-84999986D01*
X94215632Y-84990807D01*
X94197219Y-84979771D01*
X94179976Y-84966983D01*
X94164070Y-84952567D01*
X94149654Y-84936661D01*
X94136866Y-84919418D01*
X94125830Y-84901005D01*
X94116651Y-84881599D01*
X94109419Y-84861387D01*
X94104203Y-84840563D01*
X94101053Y-84819328D01*
X94100000Y-84797887D01*
X94100000Y-84285387D01*
X94101053Y-84263946D01*
X94104203Y-84242711D01*
X94109419Y-84221887D01*
X94116651Y-84201675D01*
X94125830Y-84182269D01*
X94136866Y-84163856D01*
X94149654Y-84146613D01*
X94164070Y-84130707D01*
X94179976Y-84116291D01*
X94197219Y-84103503D01*
X94215632Y-84092467D01*
X94235038Y-84083288D01*
X94255250Y-84076056D01*
X94276074Y-84070840D01*
X94297309Y-84067690D01*
X94318750Y-84066637D01*
X94756250Y-84066637D01*
X94777691Y-84067690D01*
G37*
G36*
X93202691Y-84067690D02*
G01*
X93223926Y-84070840D01*
X93244750Y-84076056D01*
X93264962Y-84083288D01*
X93284368Y-84092467D01*
X93302781Y-84103503D01*
X93320024Y-84116291D01*
X93335930Y-84130707D01*
X93350346Y-84146613D01*
X93363134Y-84163856D01*
X93374170Y-84182269D01*
X93383349Y-84201675D01*
X93390581Y-84221887D01*
X93395797Y-84242711D01*
X93398947Y-84263946D01*
X93400000Y-84285387D01*
X93400000Y-84797887D01*
X93398947Y-84819328D01*
X93395797Y-84840563D01*
X93390581Y-84861387D01*
X93383349Y-84881599D01*
X93374170Y-84901005D01*
X93363134Y-84919418D01*
X93350346Y-84936661D01*
X93335930Y-84952567D01*
X93320024Y-84966983D01*
X93302781Y-84979771D01*
X93284368Y-84990807D01*
X93264962Y-84999986D01*
X93244750Y-85007218D01*
X93223926Y-85012434D01*
X93202691Y-85015584D01*
X93181250Y-85016637D01*
X92743750Y-85016637D01*
X92722309Y-85015584D01*
X92701074Y-85012434D01*
X92680250Y-85007218D01*
X92660038Y-84999986D01*
X92640632Y-84990807D01*
X92622219Y-84979771D01*
X92604976Y-84966983D01*
X92589070Y-84952567D01*
X92574654Y-84936661D01*
X92561866Y-84919418D01*
X92550830Y-84901005D01*
X92541651Y-84881599D01*
X92534419Y-84861387D01*
X92529203Y-84840563D01*
X92526053Y-84819328D01*
X92525000Y-84797887D01*
X92525000Y-84285387D01*
X92526053Y-84263946D01*
X92529203Y-84242711D01*
X92534419Y-84221887D01*
X92541651Y-84201675D01*
X92550830Y-84182269D01*
X92561866Y-84163856D01*
X92574654Y-84146613D01*
X92589070Y-84130707D01*
X92604976Y-84116291D01*
X92622219Y-84103503D01*
X92640632Y-84092467D01*
X92660038Y-84083288D01*
X92680250Y-84076056D01*
X92701074Y-84070840D01*
X92722309Y-84067690D01*
X92743750Y-84066637D01*
X93181250Y-84066637D01*
X93202691Y-84067690D01*
G37*
D12*
X96000000Y-76458307D03*
X96950000Y-78458307D03*
X95050000Y-78458307D03*
D13*
X90500000Y-81708305D03*
X92500000Y-80758305D03*
X92500000Y-82658305D03*
D14*
X94500000Y-82808305D03*
X94500000Y-80608305D03*
D11*
G36*
X229027691Y-24567718D02*
G01*
X229048926Y-24570868D01*
X229069750Y-24576084D01*
X229089962Y-24583316D01*
X229109368Y-24592495D01*
X229127781Y-24603531D01*
X229145024Y-24616319D01*
X229160930Y-24630735D01*
X229175346Y-24646641D01*
X229188134Y-24663884D01*
X229199170Y-24682297D01*
X229208349Y-24701703D01*
X229215581Y-24721915D01*
X229220797Y-24742739D01*
X229223947Y-24763974D01*
X229225000Y-24785415D01*
X229225000Y-25297915D01*
X229223947Y-25319356D01*
X229220797Y-25340591D01*
X229215581Y-25361415D01*
X229208349Y-25381627D01*
X229199170Y-25401033D01*
X229188134Y-25419446D01*
X229175346Y-25436689D01*
X229160930Y-25452595D01*
X229145024Y-25467011D01*
X229127781Y-25479799D01*
X229109368Y-25490835D01*
X229089962Y-25500014D01*
X229069750Y-25507246D01*
X229048926Y-25512462D01*
X229027691Y-25515612D01*
X229006250Y-25516665D01*
X228568750Y-25516665D01*
X228547309Y-25515612D01*
X228526074Y-25512462D01*
X228505250Y-25507246D01*
X228485038Y-25500014D01*
X228465632Y-25490835D01*
X228447219Y-25479799D01*
X228429976Y-25467011D01*
X228414070Y-25452595D01*
X228399654Y-25436689D01*
X228386866Y-25419446D01*
X228375830Y-25401033D01*
X228366651Y-25381627D01*
X228359419Y-25361415D01*
X228354203Y-25340591D01*
X228351053Y-25319356D01*
X228350000Y-25297915D01*
X228350000Y-24785415D01*
X228351053Y-24763974D01*
X228354203Y-24742739D01*
X228359419Y-24721915D01*
X228366651Y-24701703D01*
X228375830Y-24682297D01*
X228386866Y-24663884D01*
X228399654Y-24646641D01*
X228414070Y-24630735D01*
X228429976Y-24616319D01*
X228447219Y-24603531D01*
X228465632Y-24592495D01*
X228485038Y-24583316D01*
X228505250Y-24576084D01*
X228526074Y-24570868D01*
X228547309Y-24567718D01*
X228568750Y-24566665D01*
X229006250Y-24566665D01*
X229027691Y-24567718D01*
G37*
G36*
X227452691Y-24567718D02*
G01*
X227473926Y-24570868D01*
X227494750Y-24576084D01*
X227514962Y-24583316D01*
X227534368Y-24592495D01*
X227552781Y-24603531D01*
X227570024Y-24616319D01*
X227585930Y-24630735D01*
X227600346Y-24646641D01*
X227613134Y-24663884D01*
X227624170Y-24682297D01*
X227633349Y-24701703D01*
X227640581Y-24721915D01*
X227645797Y-24742739D01*
X227648947Y-24763974D01*
X227650000Y-24785415D01*
X227650000Y-25297915D01*
X227648947Y-25319356D01*
X227645797Y-25340591D01*
X227640581Y-25361415D01*
X227633349Y-25381627D01*
X227624170Y-25401033D01*
X227613134Y-25419446D01*
X227600346Y-25436689D01*
X227585930Y-25452595D01*
X227570024Y-25467011D01*
X227552781Y-25479799D01*
X227534368Y-25490835D01*
X227514962Y-25500014D01*
X227494750Y-25507246D01*
X227473926Y-25512462D01*
X227452691Y-25515612D01*
X227431250Y-25516665D01*
X226993750Y-25516665D01*
X226972309Y-25515612D01*
X226951074Y-25512462D01*
X226930250Y-25507246D01*
X226910038Y-25500014D01*
X226890632Y-25490835D01*
X226872219Y-25479799D01*
X226854976Y-25467011D01*
X226839070Y-25452595D01*
X226824654Y-25436689D01*
X226811866Y-25419446D01*
X226800830Y-25401033D01*
X226791651Y-25381627D01*
X226784419Y-25361415D01*
X226779203Y-25340591D01*
X226776053Y-25319356D01*
X226775000Y-25297915D01*
X226775000Y-24785415D01*
X226776053Y-24763974D01*
X226779203Y-24742739D01*
X226784419Y-24721915D01*
X226791651Y-24701703D01*
X226800830Y-24682297D01*
X226811866Y-24663884D01*
X226824654Y-24646641D01*
X226839070Y-24630735D01*
X226854976Y-24616319D01*
X226872219Y-24603531D01*
X226890632Y-24592495D01*
X226910038Y-24583316D01*
X226930250Y-24576084D01*
X226951074Y-24570868D01*
X226972309Y-24567718D01*
X226993750Y-24566665D01*
X227431250Y-24566665D01*
X227452691Y-24567718D01*
G37*
G36*
X211027691Y-24567718D02*
G01*
X211048926Y-24570868D01*
X211069750Y-24576084D01*
X211089962Y-24583316D01*
X211109368Y-24592495D01*
X211127781Y-24603531D01*
X211145024Y-24616319D01*
X211160930Y-24630735D01*
X211175346Y-24646641D01*
X211188134Y-24663884D01*
X211199170Y-24682297D01*
X211208349Y-24701703D01*
X211215581Y-24721915D01*
X211220797Y-24742739D01*
X211223947Y-24763974D01*
X211225000Y-24785415D01*
X211225000Y-25297915D01*
X211223947Y-25319356D01*
X211220797Y-25340591D01*
X211215581Y-25361415D01*
X211208349Y-25381627D01*
X211199170Y-25401033D01*
X211188134Y-25419446D01*
X211175346Y-25436689D01*
X211160930Y-25452595D01*
X211145024Y-25467011D01*
X211127781Y-25479799D01*
X211109368Y-25490835D01*
X211089962Y-25500014D01*
X211069750Y-25507246D01*
X211048926Y-25512462D01*
X211027691Y-25515612D01*
X211006250Y-25516665D01*
X210568750Y-25516665D01*
X210547309Y-25515612D01*
X210526074Y-25512462D01*
X210505250Y-25507246D01*
X210485038Y-25500014D01*
X210465632Y-25490835D01*
X210447219Y-25479799D01*
X210429976Y-25467011D01*
X210414070Y-25452595D01*
X210399654Y-25436689D01*
X210386866Y-25419446D01*
X210375830Y-25401033D01*
X210366651Y-25381627D01*
X210359419Y-25361415D01*
X210354203Y-25340591D01*
X210351053Y-25319356D01*
X210350000Y-25297915D01*
X210350000Y-24785415D01*
X210351053Y-24763974D01*
X210354203Y-24742739D01*
X210359419Y-24721915D01*
X210366651Y-24701703D01*
X210375830Y-24682297D01*
X210386866Y-24663884D01*
X210399654Y-24646641D01*
X210414070Y-24630735D01*
X210429976Y-24616319D01*
X210447219Y-24603531D01*
X210465632Y-24592495D01*
X210485038Y-24583316D01*
X210505250Y-24576084D01*
X210526074Y-24570868D01*
X210547309Y-24567718D01*
X210568750Y-24566665D01*
X211006250Y-24566665D01*
X211027691Y-24567718D01*
G37*
G36*
X209452691Y-24567718D02*
G01*
X209473926Y-24570868D01*
X209494750Y-24576084D01*
X209514962Y-24583316D01*
X209534368Y-24592495D01*
X209552781Y-24603531D01*
X209570024Y-24616319D01*
X209585930Y-24630735D01*
X209600346Y-24646641D01*
X209613134Y-24663884D01*
X209624170Y-24682297D01*
X209633349Y-24701703D01*
X209640581Y-24721915D01*
X209645797Y-24742739D01*
X209648947Y-24763974D01*
X209650000Y-24785415D01*
X209650000Y-25297915D01*
X209648947Y-25319356D01*
X209645797Y-25340591D01*
X209640581Y-25361415D01*
X209633349Y-25381627D01*
X209624170Y-25401033D01*
X209613134Y-25419446D01*
X209600346Y-25436689D01*
X209585930Y-25452595D01*
X209570024Y-25467011D01*
X209552781Y-25479799D01*
X209534368Y-25490835D01*
X209514962Y-25500014D01*
X209494750Y-25507246D01*
X209473926Y-25512462D01*
X209452691Y-25515612D01*
X209431250Y-25516665D01*
X208993750Y-25516665D01*
X208972309Y-25515612D01*
X208951074Y-25512462D01*
X208930250Y-25507246D01*
X208910038Y-25500014D01*
X208890632Y-25490835D01*
X208872219Y-25479799D01*
X208854976Y-25467011D01*
X208839070Y-25452595D01*
X208824654Y-25436689D01*
X208811866Y-25419446D01*
X208800830Y-25401033D01*
X208791651Y-25381627D01*
X208784419Y-25361415D01*
X208779203Y-25340591D01*
X208776053Y-25319356D01*
X208775000Y-25297915D01*
X208775000Y-24785415D01*
X208776053Y-24763974D01*
X208779203Y-24742739D01*
X208784419Y-24721915D01*
X208791651Y-24701703D01*
X208800830Y-24682297D01*
X208811866Y-24663884D01*
X208824654Y-24646641D01*
X208839070Y-24630735D01*
X208854976Y-24616319D01*
X208872219Y-24603531D01*
X208890632Y-24592495D01*
X208910038Y-24583316D01*
X208930250Y-24576084D01*
X208951074Y-24570868D01*
X208972309Y-24567718D01*
X208993750Y-24566665D01*
X209431250Y-24566665D01*
X209452691Y-24567718D01*
G37*
G36*
X232777691Y-86151022D02*
G01*
X232798926Y-86154172D01*
X232819750Y-86159388D01*
X232839962Y-86166620D01*
X232859368Y-86175799D01*
X232877781Y-86186835D01*
X232895024Y-86199623D01*
X232910930Y-86214039D01*
X232925346Y-86229945D01*
X232938134Y-86247188D01*
X232949170Y-86265601D01*
X232958349Y-86285007D01*
X232965581Y-86305219D01*
X232970797Y-86326043D01*
X232973947Y-86347278D01*
X232975000Y-86368719D01*
X232975000Y-86806219D01*
X232973947Y-86827660D01*
X232970797Y-86848895D01*
X232965581Y-86869719D01*
X232958349Y-86889931D01*
X232949170Y-86909337D01*
X232938134Y-86927750D01*
X232925346Y-86944993D01*
X232910930Y-86960899D01*
X232895024Y-86975315D01*
X232877781Y-86988103D01*
X232859368Y-86999139D01*
X232839962Y-87008318D01*
X232819750Y-87015550D01*
X232798926Y-87020766D01*
X232777691Y-87023916D01*
X232756250Y-87024969D01*
X232243750Y-87024969D01*
X232222309Y-87023916D01*
X232201074Y-87020766D01*
X232180250Y-87015550D01*
X232160038Y-87008318D01*
X232140632Y-86999139D01*
X232122219Y-86988103D01*
X232104976Y-86975315D01*
X232089070Y-86960899D01*
X232074654Y-86944993D01*
X232061866Y-86927750D01*
X232050830Y-86909337D01*
X232041651Y-86889931D01*
X232034419Y-86869719D01*
X232029203Y-86848895D01*
X232026053Y-86827660D01*
X232025000Y-86806219D01*
X232025000Y-86368719D01*
X232026053Y-86347278D01*
X232029203Y-86326043D01*
X232034419Y-86305219D01*
X232041651Y-86285007D01*
X232050830Y-86265601D01*
X232061866Y-86247188D01*
X232074654Y-86229945D01*
X232089070Y-86214039D01*
X232104976Y-86199623D01*
X232122219Y-86186835D01*
X232140632Y-86175799D01*
X232160038Y-86166620D01*
X232180250Y-86159388D01*
X232201074Y-86154172D01*
X232222309Y-86151022D01*
X232243750Y-86149969D01*
X232756250Y-86149969D01*
X232777691Y-86151022D01*
G37*
G36*
X232777691Y-87726022D02*
G01*
X232798926Y-87729172D01*
X232819750Y-87734388D01*
X232839962Y-87741620D01*
X232859368Y-87750799D01*
X232877781Y-87761835D01*
X232895024Y-87774623D01*
X232910930Y-87789039D01*
X232925346Y-87804945D01*
X232938134Y-87822188D01*
X232949170Y-87840601D01*
X232958349Y-87860007D01*
X232965581Y-87880219D01*
X232970797Y-87901043D01*
X232973947Y-87922278D01*
X232975000Y-87943719D01*
X232975000Y-88381219D01*
X232973947Y-88402660D01*
X232970797Y-88423895D01*
X232965581Y-88444719D01*
X232958349Y-88464931D01*
X232949170Y-88484337D01*
X232938134Y-88502750D01*
X232925346Y-88519993D01*
X232910930Y-88535899D01*
X232895024Y-88550315D01*
X232877781Y-88563103D01*
X232859368Y-88574139D01*
X232839962Y-88583318D01*
X232819750Y-88590550D01*
X232798926Y-88595766D01*
X232777691Y-88598916D01*
X232756250Y-88599969D01*
X232243750Y-88599969D01*
X232222309Y-88598916D01*
X232201074Y-88595766D01*
X232180250Y-88590550D01*
X232160038Y-88583318D01*
X232140632Y-88574139D01*
X232122219Y-88563103D01*
X232104976Y-88550315D01*
X232089070Y-88535899D01*
X232074654Y-88519993D01*
X232061866Y-88502750D01*
X232050830Y-88484337D01*
X232041651Y-88464931D01*
X232034419Y-88444719D01*
X232029203Y-88423895D01*
X232026053Y-88402660D01*
X232025000Y-88381219D01*
X232025000Y-87943719D01*
X232026053Y-87922278D01*
X232029203Y-87901043D01*
X232034419Y-87880219D01*
X232041651Y-87860007D01*
X232050830Y-87840601D01*
X232061866Y-87822188D01*
X232074654Y-87804945D01*
X232089070Y-87789039D01*
X232104976Y-87774623D01*
X232122219Y-87761835D01*
X232140632Y-87750799D01*
X232160038Y-87741620D01*
X232180250Y-87734388D01*
X232201074Y-87729172D01*
X232222309Y-87726022D01*
X232243750Y-87724969D01*
X232756250Y-87724969D01*
X232777691Y-87726022D01*
G37*
G36*
X210277691Y-86151022D02*
G01*
X210298926Y-86154172D01*
X210319750Y-86159388D01*
X210339962Y-86166620D01*
X210359368Y-86175799D01*
X210377781Y-86186835D01*
X210395024Y-86199623D01*
X210410930Y-86214039D01*
X210425346Y-86229945D01*
X210438134Y-86247188D01*
X210449170Y-86265601D01*
X210458349Y-86285007D01*
X210465581Y-86305219D01*
X210470797Y-86326043D01*
X210473947Y-86347278D01*
X210475000Y-86368719D01*
X210475000Y-86806219D01*
X210473947Y-86827660D01*
X210470797Y-86848895D01*
X210465581Y-86869719D01*
X210458349Y-86889931D01*
X210449170Y-86909337D01*
X210438134Y-86927750D01*
X210425346Y-86944993D01*
X210410930Y-86960899D01*
X210395024Y-86975315D01*
X210377781Y-86988103D01*
X210359368Y-86999139D01*
X210339962Y-87008318D01*
X210319750Y-87015550D01*
X210298926Y-87020766D01*
X210277691Y-87023916D01*
X210256250Y-87024969D01*
X209743750Y-87024969D01*
X209722309Y-87023916D01*
X209701074Y-87020766D01*
X209680250Y-87015550D01*
X209660038Y-87008318D01*
X209640632Y-86999139D01*
X209622219Y-86988103D01*
X209604976Y-86975315D01*
X209589070Y-86960899D01*
X209574654Y-86944993D01*
X209561866Y-86927750D01*
X209550830Y-86909337D01*
X209541651Y-86889931D01*
X209534419Y-86869719D01*
X209529203Y-86848895D01*
X209526053Y-86827660D01*
X209525000Y-86806219D01*
X209525000Y-86368719D01*
X209526053Y-86347278D01*
X209529203Y-86326043D01*
X209534419Y-86305219D01*
X209541651Y-86285007D01*
X209550830Y-86265601D01*
X209561866Y-86247188D01*
X209574654Y-86229945D01*
X209589070Y-86214039D01*
X209604976Y-86199623D01*
X209622219Y-86186835D01*
X209640632Y-86175799D01*
X209660038Y-86166620D01*
X209680250Y-86159388D01*
X209701074Y-86154172D01*
X209722309Y-86151022D01*
X209743750Y-86149969D01*
X210256250Y-86149969D01*
X210277691Y-86151022D01*
G37*
G36*
X210277691Y-87726022D02*
G01*
X210298926Y-87729172D01*
X210319750Y-87734388D01*
X210339962Y-87741620D01*
X210359368Y-87750799D01*
X210377781Y-87761835D01*
X210395024Y-87774623D01*
X210410930Y-87789039D01*
X210425346Y-87804945D01*
X210438134Y-87822188D01*
X210449170Y-87840601D01*
X210458349Y-87860007D01*
X210465581Y-87880219D01*
X210470797Y-87901043D01*
X210473947Y-87922278D01*
X210475000Y-87943719D01*
X210475000Y-88381219D01*
X210473947Y-88402660D01*
X210470797Y-88423895D01*
X210465581Y-88444719D01*
X210458349Y-88464931D01*
X210449170Y-88484337D01*
X210438134Y-88502750D01*
X210425346Y-88519993D01*
X210410930Y-88535899D01*
X210395024Y-88550315D01*
X210377781Y-88563103D01*
X210359368Y-88574139D01*
X210339962Y-88583318D01*
X210319750Y-88590550D01*
X210298926Y-88595766D01*
X210277691Y-88598916D01*
X210256250Y-88599969D01*
X209743750Y-88599969D01*
X209722309Y-88598916D01*
X209701074Y-88595766D01*
X209680250Y-88590550D01*
X209660038Y-88583318D01*
X209640632Y-88574139D01*
X209622219Y-88563103D01*
X209604976Y-88550315D01*
X209589070Y-88535899D01*
X209574654Y-88519993D01*
X209561866Y-88502750D01*
X209550830Y-88484337D01*
X209541651Y-88464931D01*
X209534419Y-88444719D01*
X209529203Y-88423895D01*
X209526053Y-88402660D01*
X209525000Y-88381219D01*
X209525000Y-87943719D01*
X209526053Y-87922278D01*
X209529203Y-87901043D01*
X209534419Y-87880219D01*
X209541651Y-87860007D01*
X209550830Y-87840601D01*
X209561866Y-87822188D01*
X209574654Y-87804945D01*
X209589070Y-87789039D01*
X209604976Y-87774623D01*
X209622219Y-87761835D01*
X209640632Y-87750799D01*
X209660038Y-87741620D01*
X209680250Y-87734388D01*
X209701074Y-87729172D01*
X209722309Y-87726022D01*
X209743750Y-87724969D01*
X210256250Y-87724969D01*
X210277691Y-87726022D01*
G37*
G36*
X187777691Y-86151022D02*
G01*
X187798926Y-86154172D01*
X187819750Y-86159388D01*
X187839962Y-86166620D01*
X187859368Y-86175799D01*
X187877781Y-86186835D01*
X187895024Y-86199623D01*
X187910930Y-86214039D01*
X187925346Y-86229945D01*
X187938134Y-86247188D01*
X187949170Y-86265601D01*
X187958349Y-86285007D01*
X187965581Y-86305219D01*
X187970797Y-86326043D01*
X187973947Y-86347278D01*
X187975000Y-86368719D01*
X187975000Y-86806219D01*
X187973947Y-86827660D01*
X187970797Y-86848895D01*
X187965581Y-86869719D01*
X187958349Y-86889931D01*
X187949170Y-86909337D01*
X187938134Y-86927750D01*
X187925346Y-86944993D01*
X187910930Y-86960899D01*
X187895024Y-86975315D01*
X187877781Y-86988103D01*
X187859368Y-86999139D01*
X187839962Y-87008318D01*
X187819750Y-87015550D01*
X187798926Y-87020766D01*
X187777691Y-87023916D01*
X187756250Y-87024969D01*
X187243750Y-87024969D01*
X187222309Y-87023916D01*
X187201074Y-87020766D01*
X187180250Y-87015550D01*
X187160038Y-87008318D01*
X187140632Y-86999139D01*
X187122219Y-86988103D01*
X187104976Y-86975315D01*
X187089070Y-86960899D01*
X187074654Y-86944993D01*
X187061866Y-86927750D01*
X187050830Y-86909337D01*
X187041651Y-86889931D01*
X187034419Y-86869719D01*
X187029203Y-86848895D01*
X187026053Y-86827660D01*
X187025000Y-86806219D01*
X187025000Y-86368719D01*
X187026053Y-86347278D01*
X187029203Y-86326043D01*
X187034419Y-86305219D01*
X187041651Y-86285007D01*
X187050830Y-86265601D01*
X187061866Y-86247188D01*
X187074654Y-86229945D01*
X187089070Y-86214039D01*
X187104976Y-86199623D01*
X187122219Y-86186835D01*
X187140632Y-86175799D01*
X187160038Y-86166620D01*
X187180250Y-86159388D01*
X187201074Y-86154172D01*
X187222309Y-86151022D01*
X187243750Y-86149969D01*
X187756250Y-86149969D01*
X187777691Y-86151022D01*
G37*
G36*
X187777691Y-87726022D02*
G01*
X187798926Y-87729172D01*
X187819750Y-87734388D01*
X187839962Y-87741620D01*
X187859368Y-87750799D01*
X187877781Y-87761835D01*
X187895024Y-87774623D01*
X187910930Y-87789039D01*
X187925346Y-87804945D01*
X187938134Y-87822188D01*
X187949170Y-87840601D01*
X187958349Y-87860007D01*
X187965581Y-87880219D01*
X187970797Y-87901043D01*
X187973947Y-87922278D01*
X187975000Y-87943719D01*
X187975000Y-88381219D01*
X187973947Y-88402660D01*
X187970797Y-88423895D01*
X187965581Y-88444719D01*
X187958349Y-88464931D01*
X187949170Y-88484337D01*
X187938134Y-88502750D01*
X187925346Y-88519993D01*
X187910930Y-88535899D01*
X187895024Y-88550315D01*
X187877781Y-88563103D01*
X187859368Y-88574139D01*
X187839962Y-88583318D01*
X187819750Y-88590550D01*
X187798926Y-88595766D01*
X187777691Y-88598916D01*
X187756250Y-88599969D01*
X187243750Y-88599969D01*
X187222309Y-88598916D01*
X187201074Y-88595766D01*
X187180250Y-88590550D01*
X187160038Y-88583318D01*
X187140632Y-88574139D01*
X187122219Y-88563103D01*
X187104976Y-88550315D01*
X187089070Y-88535899D01*
X187074654Y-88519993D01*
X187061866Y-88502750D01*
X187050830Y-88484337D01*
X187041651Y-88464931D01*
X187034419Y-88444719D01*
X187029203Y-88423895D01*
X187026053Y-88402660D01*
X187025000Y-88381219D01*
X187025000Y-87943719D01*
X187026053Y-87922278D01*
X187029203Y-87901043D01*
X187034419Y-87880219D01*
X187041651Y-87860007D01*
X187050830Y-87840601D01*
X187061866Y-87822188D01*
X187074654Y-87804945D01*
X187089070Y-87789039D01*
X187104976Y-87774623D01*
X187122219Y-87761835D01*
X187140632Y-87750799D01*
X187160038Y-87741620D01*
X187180250Y-87734388D01*
X187201074Y-87729172D01*
X187222309Y-87726022D01*
X187243750Y-87724969D01*
X187756250Y-87724969D01*
X187777691Y-87726022D01*
G37*
G36*
X156277691Y-86151022D02*
G01*
X156298926Y-86154172D01*
X156319750Y-86159388D01*
X156339962Y-86166620D01*
X156359368Y-86175799D01*
X156377781Y-86186835D01*
X156395024Y-86199623D01*
X156410930Y-86214039D01*
X156425346Y-86229945D01*
X156438134Y-86247188D01*
X156449170Y-86265601D01*
X156458349Y-86285007D01*
X156465581Y-86305219D01*
X156470797Y-86326043D01*
X156473947Y-86347278D01*
X156475000Y-86368719D01*
X156475000Y-86806219D01*
X156473947Y-86827660D01*
X156470797Y-86848895D01*
X156465581Y-86869719D01*
X156458349Y-86889931D01*
X156449170Y-86909337D01*
X156438134Y-86927750D01*
X156425346Y-86944993D01*
X156410930Y-86960899D01*
X156395024Y-86975315D01*
X156377781Y-86988103D01*
X156359368Y-86999139D01*
X156339962Y-87008318D01*
X156319750Y-87015550D01*
X156298926Y-87020766D01*
X156277691Y-87023916D01*
X156256250Y-87024969D01*
X155743750Y-87024969D01*
X155722309Y-87023916D01*
X155701074Y-87020766D01*
X155680250Y-87015550D01*
X155660038Y-87008318D01*
X155640632Y-86999139D01*
X155622219Y-86988103D01*
X155604976Y-86975315D01*
X155589070Y-86960899D01*
X155574654Y-86944993D01*
X155561866Y-86927750D01*
X155550830Y-86909337D01*
X155541651Y-86889931D01*
X155534419Y-86869719D01*
X155529203Y-86848895D01*
X155526053Y-86827660D01*
X155525000Y-86806219D01*
X155525000Y-86368719D01*
X155526053Y-86347278D01*
X155529203Y-86326043D01*
X155534419Y-86305219D01*
X155541651Y-86285007D01*
X155550830Y-86265601D01*
X155561866Y-86247188D01*
X155574654Y-86229945D01*
X155589070Y-86214039D01*
X155604976Y-86199623D01*
X155622219Y-86186835D01*
X155640632Y-86175799D01*
X155660038Y-86166620D01*
X155680250Y-86159388D01*
X155701074Y-86154172D01*
X155722309Y-86151022D01*
X155743750Y-86149969D01*
X156256250Y-86149969D01*
X156277691Y-86151022D01*
G37*
G36*
X156277691Y-87726022D02*
G01*
X156298926Y-87729172D01*
X156319750Y-87734388D01*
X156339962Y-87741620D01*
X156359368Y-87750799D01*
X156377781Y-87761835D01*
X156395024Y-87774623D01*
X156410930Y-87789039D01*
X156425346Y-87804945D01*
X156438134Y-87822188D01*
X156449170Y-87840601D01*
X156458349Y-87860007D01*
X156465581Y-87880219D01*
X156470797Y-87901043D01*
X156473947Y-87922278D01*
X156475000Y-87943719D01*
X156475000Y-88381219D01*
X156473947Y-88402660D01*
X156470797Y-88423895D01*
X156465581Y-88444719D01*
X156458349Y-88464931D01*
X156449170Y-88484337D01*
X156438134Y-88502750D01*
X156425346Y-88519993D01*
X156410930Y-88535899D01*
X156395024Y-88550315D01*
X156377781Y-88563103D01*
X156359368Y-88574139D01*
X156339962Y-88583318D01*
X156319750Y-88590550D01*
X156298926Y-88595766D01*
X156277691Y-88598916D01*
X156256250Y-88599969D01*
X155743750Y-88599969D01*
X155722309Y-88598916D01*
X155701074Y-88595766D01*
X155680250Y-88590550D01*
X155660038Y-88583318D01*
X155640632Y-88574139D01*
X155622219Y-88563103D01*
X155604976Y-88550315D01*
X155589070Y-88535899D01*
X155574654Y-88519993D01*
X155561866Y-88502750D01*
X155550830Y-88484337D01*
X155541651Y-88464931D01*
X155534419Y-88444719D01*
X155529203Y-88423895D01*
X155526053Y-88402660D01*
X155525000Y-88381219D01*
X155525000Y-87943719D01*
X155526053Y-87922278D01*
X155529203Y-87901043D01*
X155534419Y-87880219D01*
X155541651Y-87860007D01*
X155550830Y-87840601D01*
X155561866Y-87822188D01*
X155574654Y-87804945D01*
X155589070Y-87789039D01*
X155604976Y-87774623D01*
X155622219Y-87761835D01*
X155640632Y-87750799D01*
X155660038Y-87741620D01*
X155680250Y-87734388D01*
X155701074Y-87729172D01*
X155722309Y-87726022D01*
X155743750Y-87724969D01*
X156256250Y-87724969D01*
X156277691Y-87726022D01*
G37*
G36*
X219277691Y-55692703D02*
G01*
X219298926Y-55695853D01*
X219319750Y-55701069D01*
X219339962Y-55708301D01*
X219359368Y-55717480D01*
X219377781Y-55728516D01*
X219395024Y-55741304D01*
X219410930Y-55755720D01*
X219425346Y-55771626D01*
X219438134Y-55788869D01*
X219449170Y-55807282D01*
X219458349Y-55826688D01*
X219465581Y-55846900D01*
X219470797Y-55867724D01*
X219473947Y-55888959D01*
X219475000Y-55910400D01*
X219475000Y-56347900D01*
X219473947Y-56369341D01*
X219470797Y-56390576D01*
X219465581Y-56411400D01*
X219458349Y-56431612D01*
X219449170Y-56451018D01*
X219438134Y-56469431D01*
X219425346Y-56486674D01*
X219410930Y-56502580D01*
X219395024Y-56516996D01*
X219377781Y-56529784D01*
X219359368Y-56540820D01*
X219339962Y-56549999D01*
X219319750Y-56557231D01*
X219298926Y-56562447D01*
X219277691Y-56565597D01*
X219256250Y-56566650D01*
X218743750Y-56566650D01*
X218722309Y-56565597D01*
X218701074Y-56562447D01*
X218680250Y-56557231D01*
X218660038Y-56549999D01*
X218640632Y-56540820D01*
X218622219Y-56529784D01*
X218604976Y-56516996D01*
X218589070Y-56502580D01*
X218574654Y-56486674D01*
X218561866Y-56469431D01*
X218550830Y-56451018D01*
X218541651Y-56431612D01*
X218534419Y-56411400D01*
X218529203Y-56390576D01*
X218526053Y-56369341D01*
X218525000Y-56347900D01*
X218525000Y-55910400D01*
X218526053Y-55888959D01*
X218529203Y-55867724D01*
X218534419Y-55846900D01*
X218541651Y-55826688D01*
X218550830Y-55807282D01*
X218561866Y-55788869D01*
X218574654Y-55771626D01*
X218589070Y-55755720D01*
X218604976Y-55741304D01*
X218622219Y-55728516D01*
X218640632Y-55717480D01*
X218660038Y-55708301D01*
X218680250Y-55701069D01*
X218701074Y-55695853D01*
X218722309Y-55692703D01*
X218743750Y-55691650D01*
X219256250Y-55691650D01*
X219277691Y-55692703D01*
G37*
G36*
X219277691Y-57267703D02*
G01*
X219298926Y-57270853D01*
X219319750Y-57276069D01*
X219339962Y-57283301D01*
X219359368Y-57292480D01*
X219377781Y-57303516D01*
X219395024Y-57316304D01*
X219410930Y-57330720D01*
X219425346Y-57346626D01*
X219438134Y-57363869D01*
X219449170Y-57382282D01*
X219458349Y-57401688D01*
X219465581Y-57421900D01*
X219470797Y-57442724D01*
X219473947Y-57463959D01*
X219475000Y-57485400D01*
X219475000Y-57922900D01*
X219473947Y-57944341D01*
X219470797Y-57965576D01*
X219465581Y-57986400D01*
X219458349Y-58006612D01*
X219449170Y-58026018D01*
X219438134Y-58044431D01*
X219425346Y-58061674D01*
X219410930Y-58077580D01*
X219395024Y-58091996D01*
X219377781Y-58104784D01*
X219359368Y-58115820D01*
X219339962Y-58124999D01*
X219319750Y-58132231D01*
X219298926Y-58137447D01*
X219277691Y-58140597D01*
X219256250Y-58141650D01*
X218743750Y-58141650D01*
X218722309Y-58140597D01*
X218701074Y-58137447D01*
X218680250Y-58132231D01*
X218660038Y-58124999D01*
X218640632Y-58115820D01*
X218622219Y-58104784D01*
X218604976Y-58091996D01*
X218589070Y-58077580D01*
X218574654Y-58061674D01*
X218561866Y-58044431D01*
X218550830Y-58026018D01*
X218541651Y-58006612D01*
X218534419Y-57986400D01*
X218529203Y-57965576D01*
X218526053Y-57944341D01*
X218525000Y-57922900D01*
X218525000Y-57485400D01*
X218526053Y-57463959D01*
X218529203Y-57442724D01*
X218534419Y-57421900D01*
X218541651Y-57401688D01*
X218550830Y-57382282D01*
X218561866Y-57363869D01*
X218574654Y-57346626D01*
X218589070Y-57330720D01*
X218604976Y-57316304D01*
X218622219Y-57303516D01*
X218640632Y-57292480D01*
X218660038Y-57283301D01*
X218680250Y-57276069D01*
X218701074Y-57270853D01*
X218722309Y-57267703D01*
X218743750Y-57266650D01*
X219256250Y-57266650D01*
X219277691Y-57267703D01*
G37*
G36*
X102277691Y-86151022D02*
G01*
X102298926Y-86154172D01*
X102319750Y-86159388D01*
X102339962Y-86166620D01*
X102359368Y-86175799D01*
X102377781Y-86186835D01*
X102395024Y-86199623D01*
X102410930Y-86214039D01*
X102425346Y-86229945D01*
X102438134Y-86247188D01*
X102449170Y-86265601D01*
X102458349Y-86285007D01*
X102465581Y-86305219D01*
X102470797Y-86326043D01*
X102473947Y-86347278D01*
X102475000Y-86368719D01*
X102475000Y-86806219D01*
X102473947Y-86827660D01*
X102470797Y-86848895D01*
X102465581Y-86869719D01*
X102458349Y-86889931D01*
X102449170Y-86909337D01*
X102438134Y-86927750D01*
X102425346Y-86944993D01*
X102410930Y-86960899D01*
X102395024Y-86975315D01*
X102377781Y-86988103D01*
X102359368Y-86999139D01*
X102339962Y-87008318D01*
X102319750Y-87015550D01*
X102298926Y-87020766D01*
X102277691Y-87023916D01*
X102256250Y-87024969D01*
X101743750Y-87024969D01*
X101722309Y-87023916D01*
X101701074Y-87020766D01*
X101680250Y-87015550D01*
X101660038Y-87008318D01*
X101640632Y-86999139D01*
X101622219Y-86988103D01*
X101604976Y-86975315D01*
X101589070Y-86960899D01*
X101574654Y-86944993D01*
X101561866Y-86927750D01*
X101550830Y-86909337D01*
X101541651Y-86889931D01*
X101534419Y-86869719D01*
X101529203Y-86848895D01*
X101526053Y-86827660D01*
X101525000Y-86806219D01*
X101525000Y-86368719D01*
X101526053Y-86347278D01*
X101529203Y-86326043D01*
X101534419Y-86305219D01*
X101541651Y-86285007D01*
X101550830Y-86265601D01*
X101561866Y-86247188D01*
X101574654Y-86229945D01*
X101589070Y-86214039D01*
X101604976Y-86199623D01*
X101622219Y-86186835D01*
X101640632Y-86175799D01*
X101660038Y-86166620D01*
X101680250Y-86159388D01*
X101701074Y-86154172D01*
X101722309Y-86151022D01*
X101743750Y-86149969D01*
X102256250Y-86149969D01*
X102277691Y-86151022D01*
G37*
G36*
X102277691Y-87726022D02*
G01*
X102298926Y-87729172D01*
X102319750Y-87734388D01*
X102339962Y-87741620D01*
X102359368Y-87750799D01*
X102377781Y-87761835D01*
X102395024Y-87774623D01*
X102410930Y-87789039D01*
X102425346Y-87804945D01*
X102438134Y-87822188D01*
X102449170Y-87840601D01*
X102458349Y-87860007D01*
X102465581Y-87880219D01*
X102470797Y-87901043D01*
X102473947Y-87922278D01*
X102475000Y-87943719D01*
X102475000Y-88381219D01*
X102473947Y-88402660D01*
X102470797Y-88423895D01*
X102465581Y-88444719D01*
X102458349Y-88464931D01*
X102449170Y-88484337D01*
X102438134Y-88502750D01*
X102425346Y-88519993D01*
X102410930Y-88535899D01*
X102395024Y-88550315D01*
X102377781Y-88563103D01*
X102359368Y-88574139D01*
X102339962Y-88583318D01*
X102319750Y-88590550D01*
X102298926Y-88595766D01*
X102277691Y-88598916D01*
X102256250Y-88599969D01*
X101743750Y-88599969D01*
X101722309Y-88598916D01*
X101701074Y-88595766D01*
X101680250Y-88590550D01*
X101660038Y-88583318D01*
X101640632Y-88574139D01*
X101622219Y-88563103D01*
X101604976Y-88550315D01*
X101589070Y-88535899D01*
X101574654Y-88519993D01*
X101561866Y-88502750D01*
X101550830Y-88484337D01*
X101541651Y-88464931D01*
X101534419Y-88444719D01*
X101529203Y-88423895D01*
X101526053Y-88402660D01*
X101525000Y-88381219D01*
X101525000Y-87943719D01*
X101526053Y-87922278D01*
X101529203Y-87901043D01*
X101534419Y-87880219D01*
X101541651Y-87860007D01*
X101550830Y-87840601D01*
X101561866Y-87822188D01*
X101574654Y-87804945D01*
X101589070Y-87789039D01*
X101604976Y-87774623D01*
X101622219Y-87761835D01*
X101640632Y-87750799D01*
X101660038Y-87741620D01*
X101680250Y-87734388D01*
X101701074Y-87729172D01*
X101722309Y-87726022D01*
X101743750Y-87724969D01*
X102256250Y-87724969D01*
X102277691Y-87726022D01*
G37*
G36*
X220027691Y-35859379D02*
G01*
X220048926Y-35862529D01*
X220069750Y-35867745D01*
X220089962Y-35874977D01*
X220109368Y-35884156D01*
X220127781Y-35895192D01*
X220145024Y-35907980D01*
X220160930Y-35922396D01*
X220175346Y-35938302D01*
X220188134Y-35955545D01*
X220199170Y-35973958D01*
X220208349Y-35993364D01*
X220215581Y-36013576D01*
X220220797Y-36034400D01*
X220223947Y-36055635D01*
X220225000Y-36077076D01*
X220225000Y-36514576D01*
X220223947Y-36536017D01*
X220220797Y-36557252D01*
X220215581Y-36578076D01*
X220208349Y-36598288D01*
X220199170Y-36617694D01*
X220188134Y-36636107D01*
X220175346Y-36653350D01*
X220160930Y-36669256D01*
X220145024Y-36683672D01*
X220127781Y-36696460D01*
X220109368Y-36707496D01*
X220089962Y-36716675D01*
X220069750Y-36723907D01*
X220048926Y-36729123D01*
X220027691Y-36732273D01*
X220006250Y-36733326D01*
X219493750Y-36733326D01*
X219472309Y-36732273D01*
X219451074Y-36729123D01*
X219430250Y-36723907D01*
X219410038Y-36716675D01*
X219390632Y-36707496D01*
X219372219Y-36696460D01*
X219354976Y-36683672D01*
X219339070Y-36669256D01*
X219324654Y-36653350D01*
X219311866Y-36636107D01*
X219300830Y-36617694D01*
X219291651Y-36598288D01*
X219284419Y-36578076D01*
X219279203Y-36557252D01*
X219276053Y-36536017D01*
X219275000Y-36514576D01*
X219275000Y-36077076D01*
X219276053Y-36055635D01*
X219279203Y-36034400D01*
X219284419Y-36013576D01*
X219291651Y-35993364D01*
X219300830Y-35973958D01*
X219311866Y-35955545D01*
X219324654Y-35938302D01*
X219339070Y-35922396D01*
X219354976Y-35907980D01*
X219372219Y-35895192D01*
X219390632Y-35884156D01*
X219410038Y-35874977D01*
X219430250Y-35867745D01*
X219451074Y-35862529D01*
X219472309Y-35859379D01*
X219493750Y-35858326D01*
X220006250Y-35858326D01*
X220027691Y-35859379D01*
G37*
G36*
X220027691Y-37434379D02*
G01*
X220048926Y-37437529D01*
X220069750Y-37442745D01*
X220089962Y-37449977D01*
X220109368Y-37459156D01*
X220127781Y-37470192D01*
X220145024Y-37482980D01*
X220160930Y-37497396D01*
X220175346Y-37513302D01*
X220188134Y-37530545D01*
X220199170Y-37548958D01*
X220208349Y-37568364D01*
X220215581Y-37588576D01*
X220220797Y-37609400D01*
X220223947Y-37630635D01*
X220225000Y-37652076D01*
X220225000Y-38089576D01*
X220223947Y-38111017D01*
X220220797Y-38132252D01*
X220215581Y-38153076D01*
X220208349Y-38173288D01*
X220199170Y-38192694D01*
X220188134Y-38211107D01*
X220175346Y-38228350D01*
X220160930Y-38244256D01*
X220145024Y-38258672D01*
X220127781Y-38271460D01*
X220109368Y-38282496D01*
X220089962Y-38291675D01*
X220069750Y-38298907D01*
X220048926Y-38304123D01*
X220027691Y-38307273D01*
X220006250Y-38308326D01*
X219493750Y-38308326D01*
X219472309Y-38307273D01*
X219451074Y-38304123D01*
X219430250Y-38298907D01*
X219410038Y-38291675D01*
X219390632Y-38282496D01*
X219372219Y-38271460D01*
X219354976Y-38258672D01*
X219339070Y-38244256D01*
X219324654Y-38228350D01*
X219311866Y-38211107D01*
X219300830Y-38192694D01*
X219291651Y-38173288D01*
X219284419Y-38153076D01*
X219279203Y-38132252D01*
X219276053Y-38111017D01*
X219275000Y-38089576D01*
X219275000Y-37652076D01*
X219276053Y-37630635D01*
X219279203Y-37609400D01*
X219284419Y-37588576D01*
X219291651Y-37568364D01*
X219300830Y-37548958D01*
X219311866Y-37530545D01*
X219324654Y-37513302D01*
X219339070Y-37497396D01*
X219354976Y-37482980D01*
X219372219Y-37470192D01*
X219390632Y-37459156D01*
X219410038Y-37449977D01*
X219430250Y-37442745D01*
X219451074Y-37437529D01*
X219472309Y-37434379D01*
X219493750Y-37433326D01*
X220006250Y-37433326D01*
X220027691Y-37434379D01*
G37*
G36*
X88777691Y-86151022D02*
G01*
X88798926Y-86154172D01*
X88819750Y-86159388D01*
X88839962Y-86166620D01*
X88859368Y-86175799D01*
X88877781Y-86186835D01*
X88895024Y-86199623D01*
X88910930Y-86214039D01*
X88925346Y-86229945D01*
X88938134Y-86247188D01*
X88949170Y-86265601D01*
X88958349Y-86285007D01*
X88965581Y-86305219D01*
X88970797Y-86326043D01*
X88973947Y-86347278D01*
X88975000Y-86368719D01*
X88975000Y-86806219D01*
X88973947Y-86827660D01*
X88970797Y-86848895D01*
X88965581Y-86869719D01*
X88958349Y-86889931D01*
X88949170Y-86909337D01*
X88938134Y-86927750D01*
X88925346Y-86944993D01*
X88910930Y-86960899D01*
X88895024Y-86975315D01*
X88877781Y-86988103D01*
X88859368Y-86999139D01*
X88839962Y-87008318D01*
X88819750Y-87015550D01*
X88798926Y-87020766D01*
X88777691Y-87023916D01*
X88756250Y-87024969D01*
X88243750Y-87024969D01*
X88222309Y-87023916D01*
X88201074Y-87020766D01*
X88180250Y-87015550D01*
X88160038Y-87008318D01*
X88140632Y-86999139D01*
X88122219Y-86988103D01*
X88104976Y-86975315D01*
X88089070Y-86960899D01*
X88074654Y-86944993D01*
X88061866Y-86927750D01*
X88050830Y-86909337D01*
X88041651Y-86889931D01*
X88034419Y-86869719D01*
X88029203Y-86848895D01*
X88026053Y-86827660D01*
X88025000Y-86806219D01*
X88025000Y-86368719D01*
X88026053Y-86347278D01*
X88029203Y-86326043D01*
X88034419Y-86305219D01*
X88041651Y-86285007D01*
X88050830Y-86265601D01*
X88061866Y-86247188D01*
X88074654Y-86229945D01*
X88089070Y-86214039D01*
X88104976Y-86199623D01*
X88122219Y-86186835D01*
X88140632Y-86175799D01*
X88160038Y-86166620D01*
X88180250Y-86159388D01*
X88201074Y-86154172D01*
X88222309Y-86151022D01*
X88243750Y-86149969D01*
X88756250Y-86149969D01*
X88777691Y-86151022D01*
G37*
G36*
X88777691Y-87726022D02*
G01*
X88798926Y-87729172D01*
X88819750Y-87734388D01*
X88839962Y-87741620D01*
X88859368Y-87750799D01*
X88877781Y-87761835D01*
X88895024Y-87774623D01*
X88910930Y-87789039D01*
X88925346Y-87804945D01*
X88938134Y-87822188D01*
X88949170Y-87840601D01*
X88958349Y-87860007D01*
X88965581Y-87880219D01*
X88970797Y-87901043D01*
X88973947Y-87922278D01*
X88975000Y-87943719D01*
X88975000Y-88381219D01*
X88973947Y-88402660D01*
X88970797Y-88423895D01*
X88965581Y-88444719D01*
X88958349Y-88464931D01*
X88949170Y-88484337D01*
X88938134Y-88502750D01*
X88925346Y-88519993D01*
X88910930Y-88535899D01*
X88895024Y-88550315D01*
X88877781Y-88563103D01*
X88859368Y-88574139D01*
X88839962Y-88583318D01*
X88819750Y-88590550D01*
X88798926Y-88595766D01*
X88777691Y-88598916D01*
X88756250Y-88599969D01*
X88243750Y-88599969D01*
X88222309Y-88598916D01*
X88201074Y-88595766D01*
X88180250Y-88590550D01*
X88160038Y-88583318D01*
X88140632Y-88574139D01*
X88122219Y-88563103D01*
X88104976Y-88550315D01*
X88089070Y-88535899D01*
X88074654Y-88519993D01*
X88061866Y-88502750D01*
X88050830Y-88484337D01*
X88041651Y-88464931D01*
X88034419Y-88444719D01*
X88029203Y-88423895D01*
X88026053Y-88402660D01*
X88025000Y-88381219D01*
X88025000Y-87943719D01*
X88026053Y-87922278D01*
X88029203Y-87901043D01*
X88034419Y-87880219D01*
X88041651Y-87860007D01*
X88050830Y-87840601D01*
X88061866Y-87822188D01*
X88074654Y-87804945D01*
X88089070Y-87789039D01*
X88104976Y-87774623D01*
X88122219Y-87761835D01*
X88140632Y-87750799D01*
X88160038Y-87741620D01*
X88180250Y-87734388D01*
X88201074Y-87729172D01*
X88222309Y-87726022D01*
X88243750Y-87724969D01*
X88756250Y-87724969D01*
X88777691Y-87726022D01*
G37*
G36*
X66277691Y-86151022D02*
G01*
X66298926Y-86154172D01*
X66319750Y-86159388D01*
X66339962Y-86166620D01*
X66359368Y-86175799D01*
X66377781Y-86186835D01*
X66395024Y-86199623D01*
X66410930Y-86214039D01*
X66425346Y-86229945D01*
X66438134Y-86247188D01*
X66449170Y-86265601D01*
X66458349Y-86285007D01*
X66465581Y-86305219D01*
X66470797Y-86326043D01*
X66473947Y-86347278D01*
X66475000Y-86368719D01*
X66475000Y-86806219D01*
X66473947Y-86827660D01*
X66470797Y-86848895D01*
X66465581Y-86869719D01*
X66458349Y-86889931D01*
X66449170Y-86909337D01*
X66438134Y-86927750D01*
X66425346Y-86944993D01*
X66410930Y-86960899D01*
X66395024Y-86975315D01*
X66377781Y-86988103D01*
X66359368Y-86999139D01*
X66339962Y-87008318D01*
X66319750Y-87015550D01*
X66298926Y-87020766D01*
X66277691Y-87023916D01*
X66256250Y-87024969D01*
X65743750Y-87024969D01*
X65722309Y-87023916D01*
X65701074Y-87020766D01*
X65680250Y-87015550D01*
X65660038Y-87008318D01*
X65640632Y-86999139D01*
X65622219Y-86988103D01*
X65604976Y-86975315D01*
X65589070Y-86960899D01*
X65574654Y-86944993D01*
X65561866Y-86927750D01*
X65550830Y-86909337D01*
X65541651Y-86889931D01*
X65534419Y-86869719D01*
X65529203Y-86848895D01*
X65526053Y-86827660D01*
X65525000Y-86806219D01*
X65525000Y-86368719D01*
X65526053Y-86347278D01*
X65529203Y-86326043D01*
X65534419Y-86305219D01*
X65541651Y-86285007D01*
X65550830Y-86265601D01*
X65561866Y-86247188D01*
X65574654Y-86229945D01*
X65589070Y-86214039D01*
X65604976Y-86199623D01*
X65622219Y-86186835D01*
X65640632Y-86175799D01*
X65660038Y-86166620D01*
X65680250Y-86159388D01*
X65701074Y-86154172D01*
X65722309Y-86151022D01*
X65743750Y-86149969D01*
X66256250Y-86149969D01*
X66277691Y-86151022D01*
G37*
G36*
X66277691Y-87726022D02*
G01*
X66298926Y-87729172D01*
X66319750Y-87734388D01*
X66339962Y-87741620D01*
X66359368Y-87750799D01*
X66377781Y-87761835D01*
X66395024Y-87774623D01*
X66410930Y-87789039D01*
X66425346Y-87804945D01*
X66438134Y-87822188D01*
X66449170Y-87840601D01*
X66458349Y-87860007D01*
X66465581Y-87880219D01*
X66470797Y-87901043D01*
X66473947Y-87922278D01*
X66475000Y-87943719D01*
X66475000Y-88381219D01*
X66473947Y-88402660D01*
X66470797Y-88423895D01*
X66465581Y-88444719D01*
X66458349Y-88464931D01*
X66449170Y-88484337D01*
X66438134Y-88502750D01*
X66425346Y-88519993D01*
X66410930Y-88535899D01*
X66395024Y-88550315D01*
X66377781Y-88563103D01*
X66359368Y-88574139D01*
X66339962Y-88583318D01*
X66319750Y-88590550D01*
X66298926Y-88595766D01*
X66277691Y-88598916D01*
X66256250Y-88599969D01*
X65743750Y-88599969D01*
X65722309Y-88598916D01*
X65701074Y-88595766D01*
X65680250Y-88590550D01*
X65660038Y-88583318D01*
X65640632Y-88574139D01*
X65622219Y-88563103D01*
X65604976Y-88550315D01*
X65589070Y-88535899D01*
X65574654Y-88519993D01*
X65561866Y-88502750D01*
X65550830Y-88484337D01*
X65541651Y-88464931D01*
X65534419Y-88444719D01*
X65529203Y-88423895D01*
X65526053Y-88402660D01*
X65525000Y-88381219D01*
X65525000Y-87943719D01*
X65526053Y-87922278D01*
X65529203Y-87901043D01*
X65534419Y-87880219D01*
X65541651Y-87860007D01*
X65550830Y-87840601D01*
X65561866Y-87822188D01*
X65574654Y-87804945D01*
X65589070Y-87789039D01*
X65604976Y-87774623D01*
X65622219Y-87761835D01*
X65640632Y-87750799D01*
X65660038Y-87741620D01*
X65680250Y-87734388D01*
X65701074Y-87729172D01*
X65722309Y-87726022D01*
X65743750Y-87724969D01*
X66256250Y-87724969D01*
X66277691Y-87726022D01*
G37*
G36*
X43777691Y-86151022D02*
G01*
X43798926Y-86154172D01*
X43819750Y-86159388D01*
X43839962Y-86166620D01*
X43859368Y-86175799D01*
X43877781Y-86186835D01*
X43895024Y-86199623D01*
X43910930Y-86214039D01*
X43925346Y-86229945D01*
X43938134Y-86247188D01*
X43949170Y-86265601D01*
X43958349Y-86285007D01*
X43965581Y-86305219D01*
X43970797Y-86326043D01*
X43973947Y-86347278D01*
X43975000Y-86368719D01*
X43975000Y-86806219D01*
X43973947Y-86827660D01*
X43970797Y-86848895D01*
X43965581Y-86869719D01*
X43958349Y-86889931D01*
X43949170Y-86909337D01*
X43938134Y-86927750D01*
X43925346Y-86944993D01*
X43910930Y-86960899D01*
X43895024Y-86975315D01*
X43877781Y-86988103D01*
X43859368Y-86999139D01*
X43839962Y-87008318D01*
X43819750Y-87015550D01*
X43798926Y-87020766D01*
X43777691Y-87023916D01*
X43756250Y-87024969D01*
X43243750Y-87024969D01*
X43222309Y-87023916D01*
X43201074Y-87020766D01*
X43180250Y-87015550D01*
X43160038Y-87008318D01*
X43140632Y-86999139D01*
X43122219Y-86988103D01*
X43104976Y-86975315D01*
X43089070Y-86960899D01*
X43074654Y-86944993D01*
X43061866Y-86927750D01*
X43050830Y-86909337D01*
X43041651Y-86889931D01*
X43034419Y-86869719D01*
X43029203Y-86848895D01*
X43026053Y-86827660D01*
X43025000Y-86806219D01*
X43025000Y-86368719D01*
X43026053Y-86347278D01*
X43029203Y-86326043D01*
X43034419Y-86305219D01*
X43041651Y-86285007D01*
X43050830Y-86265601D01*
X43061866Y-86247188D01*
X43074654Y-86229945D01*
X43089070Y-86214039D01*
X43104976Y-86199623D01*
X43122219Y-86186835D01*
X43140632Y-86175799D01*
X43160038Y-86166620D01*
X43180250Y-86159388D01*
X43201074Y-86154172D01*
X43222309Y-86151022D01*
X43243750Y-86149969D01*
X43756250Y-86149969D01*
X43777691Y-86151022D01*
G37*
G36*
X43777691Y-87726022D02*
G01*
X43798926Y-87729172D01*
X43819750Y-87734388D01*
X43839962Y-87741620D01*
X43859368Y-87750799D01*
X43877781Y-87761835D01*
X43895024Y-87774623D01*
X43910930Y-87789039D01*
X43925346Y-87804945D01*
X43938134Y-87822188D01*
X43949170Y-87840601D01*
X43958349Y-87860007D01*
X43965581Y-87880219D01*
X43970797Y-87901043D01*
X43973947Y-87922278D01*
X43975000Y-87943719D01*
X43975000Y-88381219D01*
X43973947Y-88402660D01*
X43970797Y-88423895D01*
X43965581Y-88444719D01*
X43958349Y-88464931D01*
X43949170Y-88484337D01*
X43938134Y-88502750D01*
X43925346Y-88519993D01*
X43910930Y-88535899D01*
X43895024Y-88550315D01*
X43877781Y-88563103D01*
X43859368Y-88574139D01*
X43839962Y-88583318D01*
X43819750Y-88590550D01*
X43798926Y-88595766D01*
X43777691Y-88598916D01*
X43756250Y-88599969D01*
X43243750Y-88599969D01*
X43222309Y-88598916D01*
X43201074Y-88595766D01*
X43180250Y-88590550D01*
X43160038Y-88583318D01*
X43140632Y-88574139D01*
X43122219Y-88563103D01*
X43104976Y-88550315D01*
X43089070Y-88535899D01*
X43074654Y-88519993D01*
X43061866Y-88502750D01*
X43050830Y-88484337D01*
X43041651Y-88464931D01*
X43034419Y-88444719D01*
X43029203Y-88423895D01*
X43026053Y-88402660D01*
X43025000Y-88381219D01*
X43025000Y-87943719D01*
X43026053Y-87922278D01*
X43029203Y-87901043D01*
X43034419Y-87880219D01*
X43041651Y-87860007D01*
X43050830Y-87840601D01*
X43061866Y-87822188D01*
X43074654Y-87804945D01*
X43089070Y-87789039D01*
X43104976Y-87774623D01*
X43122219Y-87761835D01*
X43140632Y-87750799D01*
X43160038Y-87741620D01*
X43180250Y-87734388D01*
X43201074Y-87729172D01*
X43222309Y-87726022D01*
X43243750Y-87724969D01*
X43756250Y-87724969D01*
X43777691Y-87726022D01*
G37*
G36*
X219277691Y-70567696D02*
G01*
X219298926Y-70570846D01*
X219319750Y-70576062D01*
X219339962Y-70583294D01*
X219359368Y-70592473D01*
X219377781Y-70603509D01*
X219395024Y-70616297D01*
X219410930Y-70630713D01*
X219425346Y-70646619D01*
X219438134Y-70663862D01*
X219449170Y-70682275D01*
X219458349Y-70701681D01*
X219465581Y-70721893D01*
X219470797Y-70742717D01*
X219473947Y-70763952D01*
X219475000Y-70785393D01*
X219475000Y-71222893D01*
X219473947Y-71244334D01*
X219470797Y-71265569D01*
X219465581Y-71286393D01*
X219458349Y-71306605D01*
X219449170Y-71326011D01*
X219438134Y-71344424D01*
X219425346Y-71361667D01*
X219410930Y-71377573D01*
X219395024Y-71391989D01*
X219377781Y-71404777D01*
X219359368Y-71415813D01*
X219339962Y-71424992D01*
X219319750Y-71432224D01*
X219298926Y-71437440D01*
X219277691Y-71440590D01*
X219256250Y-71441643D01*
X218743750Y-71441643D01*
X218722309Y-71440590D01*
X218701074Y-71437440D01*
X218680250Y-71432224D01*
X218660038Y-71424992D01*
X218640632Y-71415813D01*
X218622219Y-71404777D01*
X218604976Y-71391989D01*
X218589070Y-71377573D01*
X218574654Y-71361667D01*
X218561866Y-71344424D01*
X218550830Y-71326011D01*
X218541651Y-71306605D01*
X218534419Y-71286393D01*
X218529203Y-71265569D01*
X218526053Y-71244334D01*
X218525000Y-71222893D01*
X218525000Y-70785393D01*
X218526053Y-70763952D01*
X218529203Y-70742717D01*
X218534419Y-70721893D01*
X218541651Y-70701681D01*
X218550830Y-70682275D01*
X218561866Y-70663862D01*
X218574654Y-70646619D01*
X218589070Y-70630713D01*
X218604976Y-70616297D01*
X218622219Y-70603509D01*
X218640632Y-70592473D01*
X218660038Y-70583294D01*
X218680250Y-70576062D01*
X218701074Y-70570846D01*
X218722309Y-70567696D01*
X218743750Y-70566643D01*
X219256250Y-70566643D01*
X219277691Y-70567696D01*
G37*
G36*
X219277691Y-72142696D02*
G01*
X219298926Y-72145846D01*
X219319750Y-72151062D01*
X219339962Y-72158294D01*
X219359368Y-72167473D01*
X219377781Y-72178509D01*
X219395024Y-72191297D01*
X219410930Y-72205713D01*
X219425346Y-72221619D01*
X219438134Y-72238862D01*
X219449170Y-72257275D01*
X219458349Y-72276681D01*
X219465581Y-72296893D01*
X219470797Y-72317717D01*
X219473947Y-72338952D01*
X219475000Y-72360393D01*
X219475000Y-72797893D01*
X219473947Y-72819334D01*
X219470797Y-72840569D01*
X219465581Y-72861393D01*
X219458349Y-72881605D01*
X219449170Y-72901011D01*
X219438134Y-72919424D01*
X219425346Y-72936667D01*
X219410930Y-72952573D01*
X219395024Y-72966989D01*
X219377781Y-72979777D01*
X219359368Y-72990813D01*
X219339962Y-72999992D01*
X219319750Y-73007224D01*
X219298926Y-73012440D01*
X219277691Y-73015590D01*
X219256250Y-73016643D01*
X218743750Y-73016643D01*
X218722309Y-73015590D01*
X218701074Y-73012440D01*
X218680250Y-73007224D01*
X218660038Y-72999992D01*
X218640632Y-72990813D01*
X218622219Y-72979777D01*
X218604976Y-72966989D01*
X218589070Y-72952573D01*
X218574654Y-72936667D01*
X218561866Y-72919424D01*
X218550830Y-72901011D01*
X218541651Y-72881605D01*
X218534419Y-72861393D01*
X218529203Y-72840569D01*
X218526053Y-72819334D01*
X218525000Y-72797893D01*
X218525000Y-72360393D01*
X218526053Y-72338952D01*
X218529203Y-72317717D01*
X218534419Y-72296893D01*
X218541651Y-72276681D01*
X218550830Y-72257275D01*
X218561866Y-72238862D01*
X218574654Y-72221619D01*
X218589070Y-72205713D01*
X218604976Y-72191297D01*
X218622219Y-72178509D01*
X218640632Y-72167473D01*
X218660038Y-72158294D01*
X218680250Y-72151062D01*
X218701074Y-72145846D01*
X218722309Y-72142696D01*
X218743750Y-72141643D01*
X219256250Y-72141643D01*
X219277691Y-72142696D01*
G37*
G36*
X214777691Y-70567696D02*
G01*
X214798926Y-70570846D01*
X214819750Y-70576062D01*
X214839962Y-70583294D01*
X214859368Y-70592473D01*
X214877781Y-70603509D01*
X214895024Y-70616297D01*
X214910930Y-70630713D01*
X214925346Y-70646619D01*
X214938134Y-70663862D01*
X214949170Y-70682275D01*
X214958349Y-70701681D01*
X214965581Y-70721893D01*
X214970797Y-70742717D01*
X214973947Y-70763952D01*
X214975000Y-70785393D01*
X214975000Y-71222893D01*
X214973947Y-71244334D01*
X214970797Y-71265569D01*
X214965581Y-71286393D01*
X214958349Y-71306605D01*
X214949170Y-71326011D01*
X214938134Y-71344424D01*
X214925346Y-71361667D01*
X214910930Y-71377573D01*
X214895024Y-71391989D01*
X214877781Y-71404777D01*
X214859368Y-71415813D01*
X214839962Y-71424992D01*
X214819750Y-71432224D01*
X214798926Y-71437440D01*
X214777691Y-71440590D01*
X214756250Y-71441643D01*
X214243750Y-71441643D01*
X214222309Y-71440590D01*
X214201074Y-71437440D01*
X214180250Y-71432224D01*
X214160038Y-71424992D01*
X214140632Y-71415813D01*
X214122219Y-71404777D01*
X214104976Y-71391989D01*
X214089070Y-71377573D01*
X214074654Y-71361667D01*
X214061866Y-71344424D01*
X214050830Y-71326011D01*
X214041651Y-71306605D01*
X214034419Y-71286393D01*
X214029203Y-71265569D01*
X214026053Y-71244334D01*
X214025000Y-71222893D01*
X214025000Y-70785393D01*
X214026053Y-70763952D01*
X214029203Y-70742717D01*
X214034419Y-70721893D01*
X214041651Y-70701681D01*
X214050830Y-70682275D01*
X214061866Y-70663862D01*
X214074654Y-70646619D01*
X214089070Y-70630713D01*
X214104976Y-70616297D01*
X214122219Y-70603509D01*
X214140632Y-70592473D01*
X214160038Y-70583294D01*
X214180250Y-70576062D01*
X214201074Y-70570846D01*
X214222309Y-70567696D01*
X214243750Y-70566643D01*
X214756250Y-70566643D01*
X214777691Y-70567696D01*
G37*
G36*
X214777691Y-72142696D02*
G01*
X214798926Y-72145846D01*
X214819750Y-72151062D01*
X214839962Y-72158294D01*
X214859368Y-72167473D01*
X214877781Y-72178509D01*
X214895024Y-72191297D01*
X214910930Y-72205713D01*
X214925346Y-72221619D01*
X214938134Y-72238862D01*
X214949170Y-72257275D01*
X214958349Y-72276681D01*
X214965581Y-72296893D01*
X214970797Y-72317717D01*
X214973947Y-72338952D01*
X214975000Y-72360393D01*
X214975000Y-72797893D01*
X214973947Y-72819334D01*
X214970797Y-72840569D01*
X214965581Y-72861393D01*
X214958349Y-72881605D01*
X214949170Y-72901011D01*
X214938134Y-72919424D01*
X214925346Y-72936667D01*
X214910930Y-72952573D01*
X214895024Y-72966989D01*
X214877781Y-72979777D01*
X214859368Y-72990813D01*
X214839962Y-72999992D01*
X214819750Y-73007224D01*
X214798926Y-73012440D01*
X214777691Y-73015590D01*
X214756250Y-73016643D01*
X214243750Y-73016643D01*
X214222309Y-73015590D01*
X214201074Y-73012440D01*
X214180250Y-73007224D01*
X214160038Y-72999992D01*
X214140632Y-72990813D01*
X214122219Y-72979777D01*
X214104976Y-72966989D01*
X214089070Y-72952573D01*
X214074654Y-72936667D01*
X214061866Y-72919424D01*
X214050830Y-72901011D01*
X214041651Y-72881605D01*
X214034419Y-72861393D01*
X214029203Y-72840569D01*
X214026053Y-72819334D01*
X214025000Y-72797893D01*
X214025000Y-72360393D01*
X214026053Y-72338952D01*
X214029203Y-72317717D01*
X214034419Y-72296893D01*
X214041651Y-72276681D01*
X214050830Y-72257275D01*
X214061866Y-72238862D01*
X214074654Y-72221619D01*
X214089070Y-72205713D01*
X214104976Y-72191297D01*
X214122219Y-72178509D01*
X214140632Y-72167473D01*
X214160038Y-72158294D01*
X214180250Y-72151062D01*
X214201074Y-72145846D01*
X214222309Y-72142696D01*
X214243750Y-72141643D01*
X214756250Y-72141643D01*
X214777691Y-72142696D01*
G37*
G36*
X196777691Y-70567696D02*
G01*
X196798926Y-70570846D01*
X196819750Y-70576062D01*
X196839962Y-70583294D01*
X196859368Y-70592473D01*
X196877781Y-70603509D01*
X196895024Y-70616297D01*
X196910930Y-70630713D01*
X196925346Y-70646619D01*
X196938134Y-70663862D01*
X196949170Y-70682275D01*
X196958349Y-70701681D01*
X196965581Y-70721893D01*
X196970797Y-70742717D01*
X196973947Y-70763952D01*
X196975000Y-70785393D01*
X196975000Y-71222893D01*
X196973947Y-71244334D01*
X196970797Y-71265569D01*
X196965581Y-71286393D01*
X196958349Y-71306605D01*
X196949170Y-71326011D01*
X196938134Y-71344424D01*
X196925346Y-71361667D01*
X196910930Y-71377573D01*
X196895024Y-71391989D01*
X196877781Y-71404777D01*
X196859368Y-71415813D01*
X196839962Y-71424992D01*
X196819750Y-71432224D01*
X196798926Y-71437440D01*
X196777691Y-71440590D01*
X196756250Y-71441643D01*
X196243750Y-71441643D01*
X196222309Y-71440590D01*
X196201074Y-71437440D01*
X196180250Y-71432224D01*
X196160038Y-71424992D01*
X196140632Y-71415813D01*
X196122219Y-71404777D01*
X196104976Y-71391989D01*
X196089070Y-71377573D01*
X196074654Y-71361667D01*
X196061866Y-71344424D01*
X196050830Y-71326011D01*
X196041651Y-71306605D01*
X196034419Y-71286393D01*
X196029203Y-71265569D01*
X196026053Y-71244334D01*
X196025000Y-71222893D01*
X196025000Y-70785393D01*
X196026053Y-70763952D01*
X196029203Y-70742717D01*
X196034419Y-70721893D01*
X196041651Y-70701681D01*
X196050830Y-70682275D01*
X196061866Y-70663862D01*
X196074654Y-70646619D01*
X196089070Y-70630713D01*
X196104976Y-70616297D01*
X196122219Y-70603509D01*
X196140632Y-70592473D01*
X196160038Y-70583294D01*
X196180250Y-70576062D01*
X196201074Y-70570846D01*
X196222309Y-70567696D01*
X196243750Y-70566643D01*
X196756250Y-70566643D01*
X196777691Y-70567696D01*
G37*
G36*
X196777691Y-72142696D02*
G01*
X196798926Y-72145846D01*
X196819750Y-72151062D01*
X196839962Y-72158294D01*
X196859368Y-72167473D01*
X196877781Y-72178509D01*
X196895024Y-72191297D01*
X196910930Y-72205713D01*
X196925346Y-72221619D01*
X196938134Y-72238862D01*
X196949170Y-72257275D01*
X196958349Y-72276681D01*
X196965581Y-72296893D01*
X196970797Y-72317717D01*
X196973947Y-72338952D01*
X196975000Y-72360393D01*
X196975000Y-72797893D01*
X196973947Y-72819334D01*
X196970797Y-72840569D01*
X196965581Y-72861393D01*
X196958349Y-72881605D01*
X196949170Y-72901011D01*
X196938134Y-72919424D01*
X196925346Y-72936667D01*
X196910930Y-72952573D01*
X196895024Y-72966989D01*
X196877781Y-72979777D01*
X196859368Y-72990813D01*
X196839962Y-72999992D01*
X196819750Y-73007224D01*
X196798926Y-73012440D01*
X196777691Y-73015590D01*
X196756250Y-73016643D01*
X196243750Y-73016643D01*
X196222309Y-73015590D01*
X196201074Y-73012440D01*
X196180250Y-73007224D01*
X196160038Y-72999992D01*
X196140632Y-72990813D01*
X196122219Y-72979777D01*
X196104976Y-72966989D01*
X196089070Y-72952573D01*
X196074654Y-72936667D01*
X196061866Y-72919424D01*
X196050830Y-72901011D01*
X196041651Y-72881605D01*
X196034419Y-72861393D01*
X196029203Y-72840569D01*
X196026053Y-72819334D01*
X196025000Y-72797893D01*
X196025000Y-72360393D01*
X196026053Y-72338952D01*
X196029203Y-72317717D01*
X196034419Y-72296893D01*
X196041651Y-72276681D01*
X196050830Y-72257275D01*
X196061866Y-72238862D01*
X196074654Y-72221619D01*
X196089070Y-72205713D01*
X196104976Y-72191297D01*
X196122219Y-72178509D01*
X196140632Y-72167473D01*
X196160038Y-72158294D01*
X196180250Y-72151062D01*
X196201074Y-72145846D01*
X196222309Y-72142696D01*
X196243750Y-72141643D01*
X196756250Y-72141643D01*
X196777691Y-72142696D01*
G37*
G36*
X178777691Y-70567696D02*
G01*
X178798926Y-70570846D01*
X178819750Y-70576062D01*
X178839962Y-70583294D01*
X178859368Y-70592473D01*
X178877781Y-70603509D01*
X178895024Y-70616297D01*
X178910930Y-70630713D01*
X178925346Y-70646619D01*
X178938134Y-70663862D01*
X178949170Y-70682275D01*
X178958349Y-70701681D01*
X178965581Y-70721893D01*
X178970797Y-70742717D01*
X178973947Y-70763952D01*
X178975000Y-70785393D01*
X178975000Y-71222893D01*
X178973947Y-71244334D01*
X178970797Y-71265569D01*
X178965581Y-71286393D01*
X178958349Y-71306605D01*
X178949170Y-71326011D01*
X178938134Y-71344424D01*
X178925346Y-71361667D01*
X178910930Y-71377573D01*
X178895024Y-71391989D01*
X178877781Y-71404777D01*
X178859368Y-71415813D01*
X178839962Y-71424992D01*
X178819750Y-71432224D01*
X178798926Y-71437440D01*
X178777691Y-71440590D01*
X178756250Y-71441643D01*
X178243750Y-71441643D01*
X178222309Y-71440590D01*
X178201074Y-71437440D01*
X178180250Y-71432224D01*
X178160038Y-71424992D01*
X178140632Y-71415813D01*
X178122219Y-71404777D01*
X178104976Y-71391989D01*
X178089070Y-71377573D01*
X178074654Y-71361667D01*
X178061866Y-71344424D01*
X178050830Y-71326011D01*
X178041651Y-71306605D01*
X178034419Y-71286393D01*
X178029203Y-71265569D01*
X178026053Y-71244334D01*
X178025000Y-71222893D01*
X178025000Y-70785393D01*
X178026053Y-70763952D01*
X178029203Y-70742717D01*
X178034419Y-70721893D01*
X178041651Y-70701681D01*
X178050830Y-70682275D01*
X178061866Y-70663862D01*
X178074654Y-70646619D01*
X178089070Y-70630713D01*
X178104976Y-70616297D01*
X178122219Y-70603509D01*
X178140632Y-70592473D01*
X178160038Y-70583294D01*
X178180250Y-70576062D01*
X178201074Y-70570846D01*
X178222309Y-70567696D01*
X178243750Y-70566643D01*
X178756250Y-70566643D01*
X178777691Y-70567696D01*
G37*
G36*
X178777691Y-72142696D02*
G01*
X178798926Y-72145846D01*
X178819750Y-72151062D01*
X178839962Y-72158294D01*
X178859368Y-72167473D01*
X178877781Y-72178509D01*
X178895024Y-72191297D01*
X178910930Y-72205713D01*
X178925346Y-72221619D01*
X178938134Y-72238862D01*
X178949170Y-72257275D01*
X178958349Y-72276681D01*
X178965581Y-72296893D01*
X178970797Y-72317717D01*
X178973947Y-72338952D01*
X178975000Y-72360393D01*
X178975000Y-72797893D01*
X178973947Y-72819334D01*
X178970797Y-72840569D01*
X178965581Y-72861393D01*
X178958349Y-72881605D01*
X178949170Y-72901011D01*
X178938134Y-72919424D01*
X178925346Y-72936667D01*
X178910930Y-72952573D01*
X178895024Y-72966989D01*
X178877781Y-72979777D01*
X178859368Y-72990813D01*
X178839962Y-72999992D01*
X178819750Y-73007224D01*
X178798926Y-73012440D01*
X178777691Y-73015590D01*
X178756250Y-73016643D01*
X178243750Y-73016643D01*
X178222309Y-73015590D01*
X178201074Y-73012440D01*
X178180250Y-73007224D01*
X178160038Y-72999992D01*
X178140632Y-72990813D01*
X178122219Y-72979777D01*
X178104976Y-72966989D01*
X178089070Y-72952573D01*
X178074654Y-72936667D01*
X178061866Y-72919424D01*
X178050830Y-72901011D01*
X178041651Y-72881605D01*
X178034419Y-72861393D01*
X178029203Y-72840569D01*
X178026053Y-72819334D01*
X178025000Y-72797893D01*
X178025000Y-72360393D01*
X178026053Y-72338952D01*
X178029203Y-72317717D01*
X178034419Y-72296893D01*
X178041651Y-72276681D01*
X178050830Y-72257275D01*
X178061866Y-72238862D01*
X178074654Y-72221619D01*
X178089070Y-72205713D01*
X178104976Y-72191297D01*
X178122219Y-72178509D01*
X178140632Y-72167473D01*
X178160038Y-72158294D01*
X178180250Y-72151062D01*
X178201074Y-72145846D01*
X178222309Y-72142696D01*
X178243750Y-72141643D01*
X178756250Y-72141643D01*
X178777691Y-72142696D01*
G37*
G36*
X160777691Y-70567696D02*
G01*
X160798926Y-70570846D01*
X160819750Y-70576062D01*
X160839962Y-70583294D01*
X160859368Y-70592473D01*
X160877781Y-70603509D01*
X160895024Y-70616297D01*
X160910930Y-70630713D01*
X160925346Y-70646619D01*
X160938134Y-70663862D01*
X160949170Y-70682275D01*
X160958349Y-70701681D01*
X160965581Y-70721893D01*
X160970797Y-70742717D01*
X160973947Y-70763952D01*
X160975000Y-70785393D01*
X160975000Y-71222893D01*
X160973947Y-71244334D01*
X160970797Y-71265569D01*
X160965581Y-71286393D01*
X160958349Y-71306605D01*
X160949170Y-71326011D01*
X160938134Y-71344424D01*
X160925346Y-71361667D01*
X160910930Y-71377573D01*
X160895024Y-71391989D01*
X160877781Y-71404777D01*
X160859368Y-71415813D01*
X160839962Y-71424992D01*
X160819750Y-71432224D01*
X160798926Y-71437440D01*
X160777691Y-71440590D01*
X160756250Y-71441643D01*
X160243750Y-71441643D01*
X160222309Y-71440590D01*
X160201074Y-71437440D01*
X160180250Y-71432224D01*
X160160038Y-71424992D01*
X160140632Y-71415813D01*
X160122219Y-71404777D01*
X160104976Y-71391989D01*
X160089070Y-71377573D01*
X160074654Y-71361667D01*
X160061866Y-71344424D01*
X160050830Y-71326011D01*
X160041651Y-71306605D01*
X160034419Y-71286393D01*
X160029203Y-71265569D01*
X160026053Y-71244334D01*
X160025000Y-71222893D01*
X160025000Y-70785393D01*
X160026053Y-70763952D01*
X160029203Y-70742717D01*
X160034419Y-70721893D01*
X160041651Y-70701681D01*
X160050830Y-70682275D01*
X160061866Y-70663862D01*
X160074654Y-70646619D01*
X160089070Y-70630713D01*
X160104976Y-70616297D01*
X160122219Y-70603509D01*
X160140632Y-70592473D01*
X160160038Y-70583294D01*
X160180250Y-70576062D01*
X160201074Y-70570846D01*
X160222309Y-70567696D01*
X160243750Y-70566643D01*
X160756250Y-70566643D01*
X160777691Y-70567696D01*
G37*
G36*
X160777691Y-72142696D02*
G01*
X160798926Y-72145846D01*
X160819750Y-72151062D01*
X160839962Y-72158294D01*
X160859368Y-72167473D01*
X160877781Y-72178509D01*
X160895024Y-72191297D01*
X160910930Y-72205713D01*
X160925346Y-72221619D01*
X160938134Y-72238862D01*
X160949170Y-72257275D01*
X160958349Y-72276681D01*
X160965581Y-72296893D01*
X160970797Y-72317717D01*
X160973947Y-72338952D01*
X160975000Y-72360393D01*
X160975000Y-72797893D01*
X160973947Y-72819334D01*
X160970797Y-72840569D01*
X160965581Y-72861393D01*
X160958349Y-72881605D01*
X160949170Y-72901011D01*
X160938134Y-72919424D01*
X160925346Y-72936667D01*
X160910930Y-72952573D01*
X160895024Y-72966989D01*
X160877781Y-72979777D01*
X160859368Y-72990813D01*
X160839962Y-72999992D01*
X160819750Y-73007224D01*
X160798926Y-73012440D01*
X160777691Y-73015590D01*
X160756250Y-73016643D01*
X160243750Y-73016643D01*
X160222309Y-73015590D01*
X160201074Y-73012440D01*
X160180250Y-73007224D01*
X160160038Y-72999992D01*
X160140632Y-72990813D01*
X160122219Y-72979777D01*
X160104976Y-72966989D01*
X160089070Y-72952573D01*
X160074654Y-72936667D01*
X160061866Y-72919424D01*
X160050830Y-72901011D01*
X160041651Y-72881605D01*
X160034419Y-72861393D01*
X160029203Y-72840569D01*
X160026053Y-72819334D01*
X160025000Y-72797893D01*
X160025000Y-72360393D01*
X160026053Y-72338952D01*
X160029203Y-72317717D01*
X160034419Y-72296893D01*
X160041651Y-72276681D01*
X160050830Y-72257275D01*
X160061866Y-72238862D01*
X160074654Y-72221619D01*
X160089070Y-72205713D01*
X160104976Y-72191297D01*
X160122219Y-72178509D01*
X160140632Y-72167473D01*
X160160038Y-72158294D01*
X160180250Y-72151062D01*
X160201074Y-72145846D01*
X160222309Y-72142696D01*
X160243750Y-72141643D01*
X160756250Y-72141643D01*
X160777691Y-72142696D01*
G37*
G36*
X142777691Y-70567696D02*
G01*
X142798926Y-70570846D01*
X142819750Y-70576062D01*
X142839962Y-70583294D01*
X142859368Y-70592473D01*
X142877781Y-70603509D01*
X142895024Y-70616297D01*
X142910930Y-70630713D01*
X142925346Y-70646619D01*
X142938134Y-70663862D01*
X142949170Y-70682275D01*
X142958349Y-70701681D01*
X142965581Y-70721893D01*
X142970797Y-70742717D01*
X142973947Y-70763952D01*
X142975000Y-70785393D01*
X142975000Y-71222893D01*
X142973947Y-71244334D01*
X142970797Y-71265569D01*
X142965581Y-71286393D01*
X142958349Y-71306605D01*
X142949170Y-71326011D01*
X142938134Y-71344424D01*
X142925346Y-71361667D01*
X142910930Y-71377573D01*
X142895024Y-71391989D01*
X142877781Y-71404777D01*
X142859368Y-71415813D01*
X142839962Y-71424992D01*
X142819750Y-71432224D01*
X142798926Y-71437440D01*
X142777691Y-71440590D01*
X142756250Y-71441643D01*
X142243750Y-71441643D01*
X142222309Y-71440590D01*
X142201074Y-71437440D01*
X142180250Y-71432224D01*
X142160038Y-71424992D01*
X142140632Y-71415813D01*
X142122219Y-71404777D01*
X142104976Y-71391989D01*
X142089070Y-71377573D01*
X142074654Y-71361667D01*
X142061866Y-71344424D01*
X142050830Y-71326011D01*
X142041651Y-71306605D01*
X142034419Y-71286393D01*
X142029203Y-71265569D01*
X142026053Y-71244334D01*
X142025000Y-71222893D01*
X142025000Y-70785393D01*
X142026053Y-70763952D01*
X142029203Y-70742717D01*
X142034419Y-70721893D01*
X142041651Y-70701681D01*
X142050830Y-70682275D01*
X142061866Y-70663862D01*
X142074654Y-70646619D01*
X142089070Y-70630713D01*
X142104976Y-70616297D01*
X142122219Y-70603509D01*
X142140632Y-70592473D01*
X142160038Y-70583294D01*
X142180250Y-70576062D01*
X142201074Y-70570846D01*
X142222309Y-70567696D01*
X142243750Y-70566643D01*
X142756250Y-70566643D01*
X142777691Y-70567696D01*
G37*
G36*
X142777691Y-72142696D02*
G01*
X142798926Y-72145846D01*
X142819750Y-72151062D01*
X142839962Y-72158294D01*
X142859368Y-72167473D01*
X142877781Y-72178509D01*
X142895024Y-72191297D01*
X142910930Y-72205713D01*
X142925346Y-72221619D01*
X142938134Y-72238862D01*
X142949170Y-72257275D01*
X142958349Y-72276681D01*
X142965581Y-72296893D01*
X142970797Y-72317717D01*
X142973947Y-72338952D01*
X142975000Y-72360393D01*
X142975000Y-72797893D01*
X142973947Y-72819334D01*
X142970797Y-72840569D01*
X142965581Y-72861393D01*
X142958349Y-72881605D01*
X142949170Y-72901011D01*
X142938134Y-72919424D01*
X142925346Y-72936667D01*
X142910930Y-72952573D01*
X142895024Y-72966989D01*
X142877781Y-72979777D01*
X142859368Y-72990813D01*
X142839962Y-72999992D01*
X142819750Y-73007224D01*
X142798926Y-73012440D01*
X142777691Y-73015590D01*
X142756250Y-73016643D01*
X142243750Y-73016643D01*
X142222309Y-73015590D01*
X142201074Y-73012440D01*
X142180250Y-73007224D01*
X142160038Y-72999992D01*
X142140632Y-72990813D01*
X142122219Y-72979777D01*
X142104976Y-72966989D01*
X142089070Y-72952573D01*
X142074654Y-72936667D01*
X142061866Y-72919424D01*
X142050830Y-72901011D01*
X142041651Y-72881605D01*
X142034419Y-72861393D01*
X142029203Y-72840569D01*
X142026053Y-72819334D01*
X142025000Y-72797893D01*
X142025000Y-72360393D01*
X142026053Y-72338952D01*
X142029203Y-72317717D01*
X142034419Y-72296893D01*
X142041651Y-72276681D01*
X142050830Y-72257275D01*
X142061866Y-72238862D01*
X142074654Y-72221619D01*
X142089070Y-72205713D01*
X142104976Y-72191297D01*
X142122219Y-72178509D01*
X142140632Y-72167473D01*
X142160038Y-72158294D01*
X142180250Y-72151062D01*
X142201074Y-72145846D01*
X142222309Y-72142696D01*
X142243750Y-72141643D01*
X142756250Y-72141643D01*
X142777691Y-72142696D01*
G37*
G36*
X124777691Y-70567696D02*
G01*
X124798926Y-70570846D01*
X124819750Y-70576062D01*
X124839962Y-70583294D01*
X124859368Y-70592473D01*
X124877781Y-70603509D01*
X124895024Y-70616297D01*
X124910930Y-70630713D01*
X124925346Y-70646619D01*
X124938134Y-70663862D01*
X124949170Y-70682275D01*
X124958349Y-70701681D01*
X124965581Y-70721893D01*
X124970797Y-70742717D01*
X124973947Y-70763952D01*
X124975000Y-70785393D01*
X124975000Y-71222893D01*
X124973947Y-71244334D01*
X124970797Y-71265569D01*
X124965581Y-71286393D01*
X124958349Y-71306605D01*
X124949170Y-71326011D01*
X124938134Y-71344424D01*
X124925346Y-71361667D01*
X124910930Y-71377573D01*
X124895024Y-71391989D01*
X124877781Y-71404777D01*
X124859368Y-71415813D01*
X124839962Y-71424992D01*
X124819750Y-71432224D01*
X124798926Y-71437440D01*
X124777691Y-71440590D01*
X124756250Y-71441643D01*
X124243750Y-71441643D01*
X124222309Y-71440590D01*
X124201074Y-71437440D01*
X124180250Y-71432224D01*
X124160038Y-71424992D01*
X124140632Y-71415813D01*
X124122219Y-71404777D01*
X124104976Y-71391989D01*
X124089070Y-71377573D01*
X124074654Y-71361667D01*
X124061866Y-71344424D01*
X124050830Y-71326011D01*
X124041651Y-71306605D01*
X124034419Y-71286393D01*
X124029203Y-71265569D01*
X124026053Y-71244334D01*
X124025000Y-71222893D01*
X124025000Y-70785393D01*
X124026053Y-70763952D01*
X124029203Y-70742717D01*
X124034419Y-70721893D01*
X124041651Y-70701681D01*
X124050830Y-70682275D01*
X124061866Y-70663862D01*
X124074654Y-70646619D01*
X124089070Y-70630713D01*
X124104976Y-70616297D01*
X124122219Y-70603509D01*
X124140632Y-70592473D01*
X124160038Y-70583294D01*
X124180250Y-70576062D01*
X124201074Y-70570846D01*
X124222309Y-70567696D01*
X124243750Y-70566643D01*
X124756250Y-70566643D01*
X124777691Y-70567696D01*
G37*
G36*
X124777691Y-72142696D02*
G01*
X124798926Y-72145846D01*
X124819750Y-72151062D01*
X124839962Y-72158294D01*
X124859368Y-72167473D01*
X124877781Y-72178509D01*
X124895024Y-72191297D01*
X124910930Y-72205713D01*
X124925346Y-72221619D01*
X124938134Y-72238862D01*
X124949170Y-72257275D01*
X124958349Y-72276681D01*
X124965581Y-72296893D01*
X124970797Y-72317717D01*
X124973947Y-72338952D01*
X124975000Y-72360393D01*
X124975000Y-72797893D01*
X124973947Y-72819334D01*
X124970797Y-72840569D01*
X124965581Y-72861393D01*
X124958349Y-72881605D01*
X124949170Y-72901011D01*
X124938134Y-72919424D01*
X124925346Y-72936667D01*
X124910930Y-72952573D01*
X124895024Y-72966989D01*
X124877781Y-72979777D01*
X124859368Y-72990813D01*
X124839962Y-72999992D01*
X124819750Y-73007224D01*
X124798926Y-73012440D01*
X124777691Y-73015590D01*
X124756250Y-73016643D01*
X124243750Y-73016643D01*
X124222309Y-73015590D01*
X124201074Y-73012440D01*
X124180250Y-73007224D01*
X124160038Y-72999992D01*
X124140632Y-72990813D01*
X124122219Y-72979777D01*
X124104976Y-72966989D01*
X124089070Y-72952573D01*
X124074654Y-72936667D01*
X124061866Y-72919424D01*
X124050830Y-72901011D01*
X124041651Y-72881605D01*
X124034419Y-72861393D01*
X124029203Y-72840569D01*
X124026053Y-72819334D01*
X124025000Y-72797893D01*
X124025000Y-72360393D01*
X124026053Y-72338952D01*
X124029203Y-72317717D01*
X124034419Y-72296893D01*
X124041651Y-72276681D01*
X124050830Y-72257275D01*
X124061866Y-72238862D01*
X124074654Y-72221619D01*
X124089070Y-72205713D01*
X124104976Y-72191297D01*
X124122219Y-72178509D01*
X124140632Y-72167473D01*
X124160038Y-72158294D01*
X124180250Y-72151062D01*
X124201074Y-72145846D01*
X124222309Y-72142696D01*
X124243750Y-72141643D01*
X124756250Y-72141643D01*
X124777691Y-72142696D01*
G37*
G36*
X106777691Y-70567696D02*
G01*
X106798926Y-70570846D01*
X106819750Y-70576062D01*
X106839962Y-70583294D01*
X106859368Y-70592473D01*
X106877781Y-70603509D01*
X106895024Y-70616297D01*
X106910930Y-70630713D01*
X106925346Y-70646619D01*
X106938134Y-70663862D01*
X106949170Y-70682275D01*
X106958349Y-70701681D01*
X106965581Y-70721893D01*
X106970797Y-70742717D01*
X106973947Y-70763952D01*
X106975000Y-70785393D01*
X106975000Y-71222893D01*
X106973947Y-71244334D01*
X106970797Y-71265569D01*
X106965581Y-71286393D01*
X106958349Y-71306605D01*
X106949170Y-71326011D01*
X106938134Y-71344424D01*
X106925346Y-71361667D01*
X106910930Y-71377573D01*
X106895024Y-71391989D01*
X106877781Y-71404777D01*
X106859368Y-71415813D01*
X106839962Y-71424992D01*
X106819750Y-71432224D01*
X106798926Y-71437440D01*
X106777691Y-71440590D01*
X106756250Y-71441643D01*
X106243750Y-71441643D01*
X106222309Y-71440590D01*
X106201074Y-71437440D01*
X106180250Y-71432224D01*
X106160038Y-71424992D01*
X106140632Y-71415813D01*
X106122219Y-71404777D01*
X106104976Y-71391989D01*
X106089070Y-71377573D01*
X106074654Y-71361667D01*
X106061866Y-71344424D01*
X106050830Y-71326011D01*
X106041651Y-71306605D01*
X106034419Y-71286393D01*
X106029203Y-71265569D01*
X106026053Y-71244334D01*
X106025000Y-71222893D01*
X106025000Y-70785393D01*
X106026053Y-70763952D01*
X106029203Y-70742717D01*
X106034419Y-70721893D01*
X106041651Y-70701681D01*
X106050830Y-70682275D01*
X106061866Y-70663862D01*
X106074654Y-70646619D01*
X106089070Y-70630713D01*
X106104976Y-70616297D01*
X106122219Y-70603509D01*
X106140632Y-70592473D01*
X106160038Y-70583294D01*
X106180250Y-70576062D01*
X106201074Y-70570846D01*
X106222309Y-70567696D01*
X106243750Y-70566643D01*
X106756250Y-70566643D01*
X106777691Y-70567696D01*
G37*
G36*
X106777691Y-72142696D02*
G01*
X106798926Y-72145846D01*
X106819750Y-72151062D01*
X106839962Y-72158294D01*
X106859368Y-72167473D01*
X106877781Y-72178509D01*
X106895024Y-72191297D01*
X106910930Y-72205713D01*
X106925346Y-72221619D01*
X106938134Y-72238862D01*
X106949170Y-72257275D01*
X106958349Y-72276681D01*
X106965581Y-72296893D01*
X106970797Y-72317717D01*
X106973947Y-72338952D01*
X106975000Y-72360393D01*
X106975000Y-72797893D01*
X106973947Y-72819334D01*
X106970797Y-72840569D01*
X106965581Y-72861393D01*
X106958349Y-72881605D01*
X106949170Y-72901011D01*
X106938134Y-72919424D01*
X106925346Y-72936667D01*
X106910930Y-72952573D01*
X106895024Y-72966989D01*
X106877781Y-72979777D01*
X106859368Y-72990813D01*
X106839962Y-72999992D01*
X106819750Y-73007224D01*
X106798926Y-73012440D01*
X106777691Y-73015590D01*
X106756250Y-73016643D01*
X106243750Y-73016643D01*
X106222309Y-73015590D01*
X106201074Y-73012440D01*
X106180250Y-73007224D01*
X106160038Y-72999992D01*
X106140632Y-72990813D01*
X106122219Y-72979777D01*
X106104976Y-72966989D01*
X106089070Y-72952573D01*
X106074654Y-72936667D01*
X106061866Y-72919424D01*
X106050830Y-72901011D01*
X106041651Y-72881605D01*
X106034419Y-72861393D01*
X106029203Y-72840569D01*
X106026053Y-72819334D01*
X106025000Y-72797893D01*
X106025000Y-72360393D01*
X106026053Y-72338952D01*
X106029203Y-72317717D01*
X106034419Y-72296893D01*
X106041651Y-72276681D01*
X106050830Y-72257275D01*
X106061866Y-72238862D01*
X106074654Y-72221619D01*
X106089070Y-72205713D01*
X106104976Y-72191297D01*
X106122219Y-72178509D01*
X106140632Y-72167473D01*
X106160038Y-72158294D01*
X106180250Y-72151062D01*
X106201074Y-72145846D01*
X106222309Y-72142696D01*
X106243750Y-72141643D01*
X106756250Y-72141643D01*
X106777691Y-72142696D01*
G37*
G36*
X88777691Y-70567696D02*
G01*
X88798926Y-70570846D01*
X88819750Y-70576062D01*
X88839962Y-70583294D01*
X88859368Y-70592473D01*
X88877781Y-70603509D01*
X88895024Y-70616297D01*
X88910930Y-70630713D01*
X88925346Y-70646619D01*
X88938134Y-70663862D01*
X88949170Y-70682275D01*
X88958349Y-70701681D01*
X88965581Y-70721893D01*
X88970797Y-70742717D01*
X88973947Y-70763952D01*
X88975000Y-70785393D01*
X88975000Y-71222893D01*
X88973947Y-71244334D01*
X88970797Y-71265569D01*
X88965581Y-71286393D01*
X88958349Y-71306605D01*
X88949170Y-71326011D01*
X88938134Y-71344424D01*
X88925346Y-71361667D01*
X88910930Y-71377573D01*
X88895024Y-71391989D01*
X88877781Y-71404777D01*
X88859368Y-71415813D01*
X88839962Y-71424992D01*
X88819750Y-71432224D01*
X88798926Y-71437440D01*
X88777691Y-71440590D01*
X88756250Y-71441643D01*
X88243750Y-71441643D01*
X88222309Y-71440590D01*
X88201074Y-71437440D01*
X88180250Y-71432224D01*
X88160038Y-71424992D01*
X88140632Y-71415813D01*
X88122219Y-71404777D01*
X88104976Y-71391989D01*
X88089070Y-71377573D01*
X88074654Y-71361667D01*
X88061866Y-71344424D01*
X88050830Y-71326011D01*
X88041651Y-71306605D01*
X88034419Y-71286393D01*
X88029203Y-71265569D01*
X88026053Y-71244334D01*
X88025000Y-71222893D01*
X88025000Y-70785393D01*
X88026053Y-70763952D01*
X88029203Y-70742717D01*
X88034419Y-70721893D01*
X88041651Y-70701681D01*
X88050830Y-70682275D01*
X88061866Y-70663862D01*
X88074654Y-70646619D01*
X88089070Y-70630713D01*
X88104976Y-70616297D01*
X88122219Y-70603509D01*
X88140632Y-70592473D01*
X88160038Y-70583294D01*
X88180250Y-70576062D01*
X88201074Y-70570846D01*
X88222309Y-70567696D01*
X88243750Y-70566643D01*
X88756250Y-70566643D01*
X88777691Y-70567696D01*
G37*
G36*
X88777691Y-72142696D02*
G01*
X88798926Y-72145846D01*
X88819750Y-72151062D01*
X88839962Y-72158294D01*
X88859368Y-72167473D01*
X88877781Y-72178509D01*
X88895024Y-72191297D01*
X88910930Y-72205713D01*
X88925346Y-72221619D01*
X88938134Y-72238862D01*
X88949170Y-72257275D01*
X88958349Y-72276681D01*
X88965581Y-72296893D01*
X88970797Y-72317717D01*
X88973947Y-72338952D01*
X88975000Y-72360393D01*
X88975000Y-72797893D01*
X88973947Y-72819334D01*
X88970797Y-72840569D01*
X88965581Y-72861393D01*
X88958349Y-72881605D01*
X88949170Y-72901011D01*
X88938134Y-72919424D01*
X88925346Y-72936667D01*
X88910930Y-72952573D01*
X88895024Y-72966989D01*
X88877781Y-72979777D01*
X88859368Y-72990813D01*
X88839962Y-72999992D01*
X88819750Y-73007224D01*
X88798926Y-73012440D01*
X88777691Y-73015590D01*
X88756250Y-73016643D01*
X88243750Y-73016643D01*
X88222309Y-73015590D01*
X88201074Y-73012440D01*
X88180250Y-73007224D01*
X88160038Y-72999992D01*
X88140632Y-72990813D01*
X88122219Y-72979777D01*
X88104976Y-72966989D01*
X88089070Y-72952573D01*
X88074654Y-72936667D01*
X88061866Y-72919424D01*
X88050830Y-72901011D01*
X88041651Y-72881605D01*
X88034419Y-72861393D01*
X88029203Y-72840569D01*
X88026053Y-72819334D01*
X88025000Y-72797893D01*
X88025000Y-72360393D01*
X88026053Y-72338952D01*
X88029203Y-72317717D01*
X88034419Y-72296893D01*
X88041651Y-72276681D01*
X88050830Y-72257275D01*
X88061866Y-72238862D01*
X88074654Y-72221619D01*
X88089070Y-72205713D01*
X88104976Y-72191297D01*
X88122219Y-72178509D01*
X88140632Y-72167473D01*
X88160038Y-72158294D01*
X88180250Y-72151062D01*
X88201074Y-72145846D01*
X88222309Y-72142696D01*
X88243750Y-72141643D01*
X88756250Y-72141643D01*
X88777691Y-72142696D01*
G37*
G36*
X70777691Y-70567696D02*
G01*
X70798926Y-70570846D01*
X70819750Y-70576062D01*
X70839962Y-70583294D01*
X70859368Y-70592473D01*
X70877781Y-70603509D01*
X70895024Y-70616297D01*
X70910930Y-70630713D01*
X70925346Y-70646619D01*
X70938134Y-70663862D01*
X70949170Y-70682275D01*
X70958349Y-70701681D01*
X70965581Y-70721893D01*
X70970797Y-70742717D01*
X70973947Y-70763952D01*
X70975000Y-70785393D01*
X70975000Y-71222893D01*
X70973947Y-71244334D01*
X70970797Y-71265569D01*
X70965581Y-71286393D01*
X70958349Y-71306605D01*
X70949170Y-71326011D01*
X70938134Y-71344424D01*
X70925346Y-71361667D01*
X70910930Y-71377573D01*
X70895024Y-71391989D01*
X70877781Y-71404777D01*
X70859368Y-71415813D01*
X70839962Y-71424992D01*
X70819750Y-71432224D01*
X70798926Y-71437440D01*
X70777691Y-71440590D01*
X70756250Y-71441643D01*
X70243750Y-71441643D01*
X70222309Y-71440590D01*
X70201074Y-71437440D01*
X70180250Y-71432224D01*
X70160038Y-71424992D01*
X70140632Y-71415813D01*
X70122219Y-71404777D01*
X70104976Y-71391989D01*
X70089070Y-71377573D01*
X70074654Y-71361667D01*
X70061866Y-71344424D01*
X70050830Y-71326011D01*
X70041651Y-71306605D01*
X70034419Y-71286393D01*
X70029203Y-71265569D01*
X70026053Y-71244334D01*
X70025000Y-71222893D01*
X70025000Y-70785393D01*
X70026053Y-70763952D01*
X70029203Y-70742717D01*
X70034419Y-70721893D01*
X70041651Y-70701681D01*
X70050830Y-70682275D01*
X70061866Y-70663862D01*
X70074654Y-70646619D01*
X70089070Y-70630713D01*
X70104976Y-70616297D01*
X70122219Y-70603509D01*
X70140632Y-70592473D01*
X70160038Y-70583294D01*
X70180250Y-70576062D01*
X70201074Y-70570846D01*
X70222309Y-70567696D01*
X70243750Y-70566643D01*
X70756250Y-70566643D01*
X70777691Y-70567696D01*
G37*
G36*
X70777691Y-72142696D02*
G01*
X70798926Y-72145846D01*
X70819750Y-72151062D01*
X70839962Y-72158294D01*
X70859368Y-72167473D01*
X70877781Y-72178509D01*
X70895024Y-72191297D01*
X70910930Y-72205713D01*
X70925346Y-72221619D01*
X70938134Y-72238862D01*
X70949170Y-72257275D01*
X70958349Y-72276681D01*
X70965581Y-72296893D01*
X70970797Y-72317717D01*
X70973947Y-72338952D01*
X70975000Y-72360393D01*
X70975000Y-72797893D01*
X70973947Y-72819334D01*
X70970797Y-72840569D01*
X70965581Y-72861393D01*
X70958349Y-72881605D01*
X70949170Y-72901011D01*
X70938134Y-72919424D01*
X70925346Y-72936667D01*
X70910930Y-72952573D01*
X70895024Y-72966989D01*
X70877781Y-72979777D01*
X70859368Y-72990813D01*
X70839962Y-72999992D01*
X70819750Y-73007224D01*
X70798926Y-73012440D01*
X70777691Y-73015590D01*
X70756250Y-73016643D01*
X70243750Y-73016643D01*
X70222309Y-73015590D01*
X70201074Y-73012440D01*
X70180250Y-73007224D01*
X70160038Y-72999992D01*
X70140632Y-72990813D01*
X70122219Y-72979777D01*
X70104976Y-72966989D01*
X70089070Y-72952573D01*
X70074654Y-72936667D01*
X70061866Y-72919424D01*
X70050830Y-72901011D01*
X70041651Y-72881605D01*
X70034419Y-72861393D01*
X70029203Y-72840569D01*
X70026053Y-72819334D01*
X70025000Y-72797893D01*
X70025000Y-72360393D01*
X70026053Y-72338952D01*
X70029203Y-72317717D01*
X70034419Y-72296893D01*
X70041651Y-72276681D01*
X70050830Y-72257275D01*
X70061866Y-72238862D01*
X70074654Y-72221619D01*
X70089070Y-72205713D01*
X70104976Y-72191297D01*
X70122219Y-72178509D01*
X70140632Y-72167473D01*
X70160038Y-72158294D01*
X70180250Y-72151062D01*
X70201074Y-72145846D01*
X70222309Y-72142696D01*
X70243750Y-72141643D01*
X70756250Y-72141643D01*
X70777691Y-72142696D01*
G37*
G36*
X43777691Y-70567696D02*
G01*
X43798926Y-70570846D01*
X43819750Y-70576062D01*
X43839962Y-70583294D01*
X43859368Y-70592473D01*
X43877781Y-70603509D01*
X43895024Y-70616297D01*
X43910930Y-70630713D01*
X43925346Y-70646619D01*
X43938134Y-70663862D01*
X43949170Y-70682275D01*
X43958349Y-70701681D01*
X43965581Y-70721893D01*
X43970797Y-70742717D01*
X43973947Y-70763952D01*
X43975000Y-70785393D01*
X43975000Y-71222893D01*
X43973947Y-71244334D01*
X43970797Y-71265569D01*
X43965581Y-71286393D01*
X43958349Y-71306605D01*
X43949170Y-71326011D01*
X43938134Y-71344424D01*
X43925346Y-71361667D01*
X43910930Y-71377573D01*
X43895024Y-71391989D01*
X43877781Y-71404777D01*
X43859368Y-71415813D01*
X43839962Y-71424992D01*
X43819750Y-71432224D01*
X43798926Y-71437440D01*
X43777691Y-71440590D01*
X43756250Y-71441643D01*
X43243750Y-71441643D01*
X43222309Y-71440590D01*
X43201074Y-71437440D01*
X43180250Y-71432224D01*
X43160038Y-71424992D01*
X43140632Y-71415813D01*
X43122219Y-71404777D01*
X43104976Y-71391989D01*
X43089070Y-71377573D01*
X43074654Y-71361667D01*
X43061866Y-71344424D01*
X43050830Y-71326011D01*
X43041651Y-71306605D01*
X43034419Y-71286393D01*
X43029203Y-71265569D01*
X43026053Y-71244334D01*
X43025000Y-71222893D01*
X43025000Y-70785393D01*
X43026053Y-70763952D01*
X43029203Y-70742717D01*
X43034419Y-70721893D01*
X43041651Y-70701681D01*
X43050830Y-70682275D01*
X43061866Y-70663862D01*
X43074654Y-70646619D01*
X43089070Y-70630713D01*
X43104976Y-70616297D01*
X43122219Y-70603509D01*
X43140632Y-70592473D01*
X43160038Y-70583294D01*
X43180250Y-70576062D01*
X43201074Y-70570846D01*
X43222309Y-70567696D01*
X43243750Y-70566643D01*
X43756250Y-70566643D01*
X43777691Y-70567696D01*
G37*
G36*
X43777691Y-72142696D02*
G01*
X43798926Y-72145846D01*
X43819750Y-72151062D01*
X43839962Y-72158294D01*
X43859368Y-72167473D01*
X43877781Y-72178509D01*
X43895024Y-72191297D01*
X43910930Y-72205713D01*
X43925346Y-72221619D01*
X43938134Y-72238862D01*
X43949170Y-72257275D01*
X43958349Y-72276681D01*
X43965581Y-72296893D01*
X43970797Y-72317717D01*
X43973947Y-72338952D01*
X43975000Y-72360393D01*
X43975000Y-72797893D01*
X43973947Y-72819334D01*
X43970797Y-72840569D01*
X43965581Y-72861393D01*
X43958349Y-72881605D01*
X43949170Y-72901011D01*
X43938134Y-72919424D01*
X43925346Y-72936667D01*
X43910930Y-72952573D01*
X43895024Y-72966989D01*
X43877781Y-72979777D01*
X43859368Y-72990813D01*
X43839962Y-72999992D01*
X43819750Y-73007224D01*
X43798926Y-73012440D01*
X43777691Y-73015590D01*
X43756250Y-73016643D01*
X43243750Y-73016643D01*
X43222309Y-73015590D01*
X43201074Y-73012440D01*
X43180250Y-73007224D01*
X43160038Y-72999992D01*
X43140632Y-72990813D01*
X43122219Y-72979777D01*
X43104976Y-72966989D01*
X43089070Y-72952573D01*
X43074654Y-72936667D01*
X43061866Y-72919424D01*
X43050830Y-72901011D01*
X43041651Y-72881605D01*
X43034419Y-72861393D01*
X43029203Y-72840569D01*
X43026053Y-72819334D01*
X43025000Y-72797893D01*
X43025000Y-72360393D01*
X43026053Y-72338952D01*
X43029203Y-72317717D01*
X43034419Y-72296893D01*
X43041651Y-72276681D01*
X43050830Y-72257275D01*
X43061866Y-72238862D01*
X43074654Y-72221619D01*
X43089070Y-72205713D01*
X43104976Y-72191297D01*
X43122219Y-72178509D01*
X43140632Y-72167473D01*
X43160038Y-72158294D01*
X43180250Y-72151062D01*
X43201074Y-72145846D01*
X43222309Y-72142696D01*
X43243750Y-72141643D01*
X43756250Y-72141643D01*
X43777691Y-72142696D01*
G37*
G36*
X206527691Y-52859371D02*
G01*
X206548926Y-52862521D01*
X206569750Y-52867737D01*
X206589962Y-52874969D01*
X206609368Y-52884148D01*
X206627781Y-52895184D01*
X206645024Y-52907972D01*
X206660930Y-52922388D01*
X206675346Y-52938294D01*
X206688134Y-52955537D01*
X206699170Y-52973950D01*
X206708349Y-52993356D01*
X206715581Y-53013568D01*
X206720797Y-53034392D01*
X206723947Y-53055627D01*
X206725000Y-53077068D01*
X206725000Y-53514568D01*
X206723947Y-53536009D01*
X206720797Y-53557244D01*
X206715581Y-53578068D01*
X206708349Y-53598280D01*
X206699170Y-53617686D01*
X206688134Y-53636099D01*
X206675346Y-53653342D01*
X206660930Y-53669248D01*
X206645024Y-53683664D01*
X206627781Y-53696452D01*
X206609368Y-53707488D01*
X206589962Y-53716667D01*
X206569750Y-53723899D01*
X206548926Y-53729115D01*
X206527691Y-53732265D01*
X206506250Y-53733318D01*
X205993750Y-53733318D01*
X205972309Y-53732265D01*
X205951074Y-53729115D01*
X205930250Y-53723899D01*
X205910038Y-53716667D01*
X205890632Y-53707488D01*
X205872219Y-53696452D01*
X205854976Y-53683664D01*
X205839070Y-53669248D01*
X205824654Y-53653342D01*
X205811866Y-53636099D01*
X205800830Y-53617686D01*
X205791651Y-53598280D01*
X205784419Y-53578068D01*
X205779203Y-53557244D01*
X205776053Y-53536009D01*
X205775000Y-53514568D01*
X205775000Y-53077068D01*
X205776053Y-53055627D01*
X205779203Y-53034392D01*
X205784419Y-53013568D01*
X205791651Y-52993356D01*
X205800830Y-52973950D01*
X205811866Y-52955537D01*
X205824654Y-52938294D01*
X205839070Y-52922388D01*
X205854976Y-52907972D01*
X205872219Y-52895184D01*
X205890632Y-52884148D01*
X205910038Y-52874969D01*
X205930250Y-52867737D01*
X205951074Y-52862521D01*
X205972309Y-52859371D01*
X205993750Y-52858318D01*
X206506250Y-52858318D01*
X206527691Y-52859371D01*
G37*
G36*
X206527691Y-54434371D02*
G01*
X206548926Y-54437521D01*
X206569750Y-54442737D01*
X206589962Y-54449969D01*
X206609368Y-54459148D01*
X206627781Y-54470184D01*
X206645024Y-54482972D01*
X206660930Y-54497388D01*
X206675346Y-54513294D01*
X206688134Y-54530537D01*
X206699170Y-54548950D01*
X206708349Y-54568356D01*
X206715581Y-54588568D01*
X206720797Y-54609392D01*
X206723947Y-54630627D01*
X206725000Y-54652068D01*
X206725000Y-55089568D01*
X206723947Y-55111009D01*
X206720797Y-55132244D01*
X206715581Y-55153068D01*
X206708349Y-55173280D01*
X206699170Y-55192686D01*
X206688134Y-55211099D01*
X206675346Y-55228342D01*
X206660930Y-55244248D01*
X206645024Y-55258664D01*
X206627781Y-55271452D01*
X206609368Y-55282488D01*
X206589962Y-55291667D01*
X206569750Y-55298899D01*
X206548926Y-55304115D01*
X206527691Y-55307265D01*
X206506250Y-55308318D01*
X205993750Y-55308318D01*
X205972309Y-55307265D01*
X205951074Y-55304115D01*
X205930250Y-55298899D01*
X205910038Y-55291667D01*
X205890632Y-55282488D01*
X205872219Y-55271452D01*
X205854976Y-55258664D01*
X205839070Y-55244248D01*
X205824654Y-55228342D01*
X205811866Y-55211099D01*
X205800830Y-55192686D01*
X205791651Y-55173280D01*
X205784419Y-55153068D01*
X205779203Y-55132244D01*
X205776053Y-55111009D01*
X205775000Y-55089568D01*
X205775000Y-54652068D01*
X205776053Y-54630627D01*
X205779203Y-54609392D01*
X205784419Y-54588568D01*
X205791651Y-54568356D01*
X205800830Y-54548950D01*
X205811866Y-54530537D01*
X205824654Y-54513294D01*
X205839070Y-54497388D01*
X205854976Y-54482972D01*
X205872219Y-54470184D01*
X205890632Y-54459148D01*
X205910038Y-54449969D01*
X205930250Y-54442737D01*
X205951074Y-54437521D01*
X205972309Y-54434371D01*
X205993750Y-54433318D01*
X206506250Y-54433318D01*
X206527691Y-54434371D01*
G37*
G36*
X205027691Y-52859371D02*
G01*
X205048926Y-52862521D01*
X205069750Y-52867737D01*
X205089962Y-52874969D01*
X205109368Y-52884148D01*
X205127781Y-52895184D01*
X205145024Y-52907972D01*
X205160930Y-52922388D01*
X205175346Y-52938294D01*
X205188134Y-52955537D01*
X205199170Y-52973950D01*
X205208349Y-52993356D01*
X205215581Y-53013568D01*
X205220797Y-53034392D01*
X205223947Y-53055627D01*
X205225000Y-53077068D01*
X205225000Y-53514568D01*
X205223947Y-53536009D01*
X205220797Y-53557244D01*
X205215581Y-53578068D01*
X205208349Y-53598280D01*
X205199170Y-53617686D01*
X205188134Y-53636099D01*
X205175346Y-53653342D01*
X205160930Y-53669248D01*
X205145024Y-53683664D01*
X205127781Y-53696452D01*
X205109368Y-53707488D01*
X205089962Y-53716667D01*
X205069750Y-53723899D01*
X205048926Y-53729115D01*
X205027691Y-53732265D01*
X205006250Y-53733318D01*
X204493750Y-53733318D01*
X204472309Y-53732265D01*
X204451074Y-53729115D01*
X204430250Y-53723899D01*
X204410038Y-53716667D01*
X204390632Y-53707488D01*
X204372219Y-53696452D01*
X204354976Y-53683664D01*
X204339070Y-53669248D01*
X204324654Y-53653342D01*
X204311866Y-53636099D01*
X204300830Y-53617686D01*
X204291651Y-53598280D01*
X204284419Y-53578068D01*
X204279203Y-53557244D01*
X204276053Y-53536009D01*
X204275000Y-53514568D01*
X204275000Y-53077068D01*
X204276053Y-53055627D01*
X204279203Y-53034392D01*
X204284419Y-53013568D01*
X204291651Y-52993356D01*
X204300830Y-52973950D01*
X204311866Y-52955537D01*
X204324654Y-52938294D01*
X204339070Y-52922388D01*
X204354976Y-52907972D01*
X204372219Y-52895184D01*
X204390632Y-52884148D01*
X204410038Y-52874969D01*
X204430250Y-52867737D01*
X204451074Y-52862521D01*
X204472309Y-52859371D01*
X204493750Y-52858318D01*
X205006250Y-52858318D01*
X205027691Y-52859371D01*
G37*
G36*
X205027691Y-54434371D02*
G01*
X205048926Y-54437521D01*
X205069750Y-54442737D01*
X205089962Y-54449969D01*
X205109368Y-54459148D01*
X205127781Y-54470184D01*
X205145024Y-54482972D01*
X205160930Y-54497388D01*
X205175346Y-54513294D01*
X205188134Y-54530537D01*
X205199170Y-54548950D01*
X205208349Y-54568356D01*
X205215581Y-54588568D01*
X205220797Y-54609392D01*
X205223947Y-54630627D01*
X205225000Y-54652068D01*
X205225000Y-55089568D01*
X205223947Y-55111009D01*
X205220797Y-55132244D01*
X205215581Y-55153068D01*
X205208349Y-55173280D01*
X205199170Y-55192686D01*
X205188134Y-55211099D01*
X205175346Y-55228342D01*
X205160930Y-55244248D01*
X205145024Y-55258664D01*
X205127781Y-55271452D01*
X205109368Y-55282488D01*
X205089962Y-55291667D01*
X205069750Y-55298899D01*
X205048926Y-55304115D01*
X205027691Y-55307265D01*
X205006250Y-55308318D01*
X204493750Y-55308318D01*
X204472309Y-55307265D01*
X204451074Y-55304115D01*
X204430250Y-55298899D01*
X204410038Y-55291667D01*
X204390632Y-55282488D01*
X204372219Y-55271452D01*
X204354976Y-55258664D01*
X204339070Y-55244248D01*
X204324654Y-55228342D01*
X204311866Y-55211099D01*
X204300830Y-55192686D01*
X204291651Y-55173280D01*
X204284419Y-55153068D01*
X204279203Y-55132244D01*
X204276053Y-55111009D01*
X204275000Y-55089568D01*
X204275000Y-54652068D01*
X204276053Y-54630627D01*
X204279203Y-54609392D01*
X204284419Y-54588568D01*
X204291651Y-54568356D01*
X204300830Y-54548950D01*
X204311866Y-54530537D01*
X204324654Y-54513294D01*
X204339070Y-54497388D01*
X204354976Y-54482972D01*
X204372219Y-54470184D01*
X204390632Y-54459148D01*
X204410038Y-54449969D01*
X204430250Y-54442737D01*
X204451074Y-54437521D01*
X204472309Y-54434371D01*
X204493750Y-54433318D01*
X205006250Y-54433318D01*
X205027691Y-54434371D01*
G37*
G36*
X187777691Y-52859371D02*
G01*
X187798926Y-52862521D01*
X187819750Y-52867737D01*
X187839962Y-52874969D01*
X187859368Y-52884148D01*
X187877781Y-52895184D01*
X187895024Y-52907972D01*
X187910930Y-52922388D01*
X187925346Y-52938294D01*
X187938134Y-52955537D01*
X187949170Y-52973950D01*
X187958349Y-52993356D01*
X187965581Y-53013568D01*
X187970797Y-53034392D01*
X187973947Y-53055627D01*
X187975000Y-53077068D01*
X187975000Y-53514568D01*
X187973947Y-53536009D01*
X187970797Y-53557244D01*
X187965581Y-53578068D01*
X187958349Y-53598280D01*
X187949170Y-53617686D01*
X187938134Y-53636099D01*
X187925346Y-53653342D01*
X187910930Y-53669248D01*
X187895024Y-53683664D01*
X187877781Y-53696452D01*
X187859368Y-53707488D01*
X187839962Y-53716667D01*
X187819750Y-53723899D01*
X187798926Y-53729115D01*
X187777691Y-53732265D01*
X187756250Y-53733318D01*
X187243750Y-53733318D01*
X187222309Y-53732265D01*
X187201074Y-53729115D01*
X187180250Y-53723899D01*
X187160038Y-53716667D01*
X187140632Y-53707488D01*
X187122219Y-53696452D01*
X187104976Y-53683664D01*
X187089070Y-53669248D01*
X187074654Y-53653342D01*
X187061866Y-53636099D01*
X187050830Y-53617686D01*
X187041651Y-53598280D01*
X187034419Y-53578068D01*
X187029203Y-53557244D01*
X187026053Y-53536009D01*
X187025000Y-53514568D01*
X187025000Y-53077068D01*
X187026053Y-53055627D01*
X187029203Y-53034392D01*
X187034419Y-53013568D01*
X187041651Y-52993356D01*
X187050830Y-52973950D01*
X187061866Y-52955537D01*
X187074654Y-52938294D01*
X187089070Y-52922388D01*
X187104976Y-52907972D01*
X187122219Y-52895184D01*
X187140632Y-52884148D01*
X187160038Y-52874969D01*
X187180250Y-52867737D01*
X187201074Y-52862521D01*
X187222309Y-52859371D01*
X187243750Y-52858318D01*
X187756250Y-52858318D01*
X187777691Y-52859371D01*
G37*
G36*
X187777691Y-54434371D02*
G01*
X187798926Y-54437521D01*
X187819750Y-54442737D01*
X187839962Y-54449969D01*
X187859368Y-54459148D01*
X187877781Y-54470184D01*
X187895024Y-54482972D01*
X187910930Y-54497388D01*
X187925346Y-54513294D01*
X187938134Y-54530537D01*
X187949170Y-54548950D01*
X187958349Y-54568356D01*
X187965581Y-54588568D01*
X187970797Y-54609392D01*
X187973947Y-54630627D01*
X187975000Y-54652068D01*
X187975000Y-55089568D01*
X187973947Y-55111009D01*
X187970797Y-55132244D01*
X187965581Y-55153068D01*
X187958349Y-55173280D01*
X187949170Y-55192686D01*
X187938134Y-55211099D01*
X187925346Y-55228342D01*
X187910930Y-55244248D01*
X187895024Y-55258664D01*
X187877781Y-55271452D01*
X187859368Y-55282488D01*
X187839962Y-55291667D01*
X187819750Y-55298899D01*
X187798926Y-55304115D01*
X187777691Y-55307265D01*
X187756250Y-55308318D01*
X187243750Y-55308318D01*
X187222309Y-55307265D01*
X187201074Y-55304115D01*
X187180250Y-55298899D01*
X187160038Y-55291667D01*
X187140632Y-55282488D01*
X187122219Y-55271452D01*
X187104976Y-55258664D01*
X187089070Y-55244248D01*
X187074654Y-55228342D01*
X187061866Y-55211099D01*
X187050830Y-55192686D01*
X187041651Y-55173280D01*
X187034419Y-55153068D01*
X187029203Y-55132244D01*
X187026053Y-55111009D01*
X187025000Y-55089568D01*
X187025000Y-54652068D01*
X187026053Y-54630627D01*
X187029203Y-54609392D01*
X187034419Y-54588568D01*
X187041651Y-54568356D01*
X187050830Y-54548950D01*
X187061866Y-54530537D01*
X187074654Y-54513294D01*
X187089070Y-54497388D01*
X187104976Y-54482972D01*
X187122219Y-54470184D01*
X187140632Y-54459148D01*
X187160038Y-54449969D01*
X187180250Y-54442737D01*
X187201074Y-54437521D01*
X187222309Y-54434371D01*
X187243750Y-54433318D01*
X187756250Y-54433318D01*
X187777691Y-54434371D01*
G37*
G36*
X169777691Y-52859371D02*
G01*
X169798926Y-52862521D01*
X169819750Y-52867737D01*
X169839962Y-52874969D01*
X169859368Y-52884148D01*
X169877781Y-52895184D01*
X169895024Y-52907972D01*
X169910930Y-52922388D01*
X169925346Y-52938294D01*
X169938134Y-52955537D01*
X169949170Y-52973950D01*
X169958349Y-52993356D01*
X169965581Y-53013568D01*
X169970797Y-53034392D01*
X169973947Y-53055627D01*
X169975000Y-53077068D01*
X169975000Y-53514568D01*
X169973947Y-53536009D01*
X169970797Y-53557244D01*
X169965581Y-53578068D01*
X169958349Y-53598280D01*
X169949170Y-53617686D01*
X169938134Y-53636099D01*
X169925346Y-53653342D01*
X169910930Y-53669248D01*
X169895024Y-53683664D01*
X169877781Y-53696452D01*
X169859368Y-53707488D01*
X169839962Y-53716667D01*
X169819750Y-53723899D01*
X169798926Y-53729115D01*
X169777691Y-53732265D01*
X169756250Y-53733318D01*
X169243750Y-53733318D01*
X169222309Y-53732265D01*
X169201074Y-53729115D01*
X169180250Y-53723899D01*
X169160038Y-53716667D01*
X169140632Y-53707488D01*
X169122219Y-53696452D01*
X169104976Y-53683664D01*
X169089070Y-53669248D01*
X169074654Y-53653342D01*
X169061866Y-53636099D01*
X169050830Y-53617686D01*
X169041651Y-53598280D01*
X169034419Y-53578068D01*
X169029203Y-53557244D01*
X169026053Y-53536009D01*
X169025000Y-53514568D01*
X169025000Y-53077068D01*
X169026053Y-53055627D01*
X169029203Y-53034392D01*
X169034419Y-53013568D01*
X169041651Y-52993356D01*
X169050830Y-52973950D01*
X169061866Y-52955537D01*
X169074654Y-52938294D01*
X169089070Y-52922388D01*
X169104976Y-52907972D01*
X169122219Y-52895184D01*
X169140632Y-52884148D01*
X169160038Y-52874969D01*
X169180250Y-52867737D01*
X169201074Y-52862521D01*
X169222309Y-52859371D01*
X169243750Y-52858318D01*
X169756250Y-52858318D01*
X169777691Y-52859371D01*
G37*
G36*
X169777691Y-54434371D02*
G01*
X169798926Y-54437521D01*
X169819750Y-54442737D01*
X169839962Y-54449969D01*
X169859368Y-54459148D01*
X169877781Y-54470184D01*
X169895024Y-54482972D01*
X169910930Y-54497388D01*
X169925346Y-54513294D01*
X169938134Y-54530537D01*
X169949170Y-54548950D01*
X169958349Y-54568356D01*
X169965581Y-54588568D01*
X169970797Y-54609392D01*
X169973947Y-54630627D01*
X169975000Y-54652068D01*
X169975000Y-55089568D01*
X169973947Y-55111009D01*
X169970797Y-55132244D01*
X169965581Y-55153068D01*
X169958349Y-55173280D01*
X169949170Y-55192686D01*
X169938134Y-55211099D01*
X169925346Y-55228342D01*
X169910930Y-55244248D01*
X169895024Y-55258664D01*
X169877781Y-55271452D01*
X169859368Y-55282488D01*
X169839962Y-55291667D01*
X169819750Y-55298899D01*
X169798926Y-55304115D01*
X169777691Y-55307265D01*
X169756250Y-55308318D01*
X169243750Y-55308318D01*
X169222309Y-55307265D01*
X169201074Y-55304115D01*
X169180250Y-55298899D01*
X169160038Y-55291667D01*
X169140632Y-55282488D01*
X169122219Y-55271452D01*
X169104976Y-55258664D01*
X169089070Y-55244248D01*
X169074654Y-55228342D01*
X169061866Y-55211099D01*
X169050830Y-55192686D01*
X169041651Y-55173280D01*
X169034419Y-55153068D01*
X169029203Y-55132244D01*
X169026053Y-55111009D01*
X169025000Y-55089568D01*
X169025000Y-54652068D01*
X169026053Y-54630627D01*
X169029203Y-54609392D01*
X169034419Y-54588568D01*
X169041651Y-54568356D01*
X169050830Y-54548950D01*
X169061866Y-54530537D01*
X169074654Y-54513294D01*
X169089070Y-54497388D01*
X169104976Y-54482972D01*
X169122219Y-54470184D01*
X169140632Y-54459148D01*
X169160038Y-54449969D01*
X169180250Y-54442737D01*
X169201074Y-54437521D01*
X169222309Y-54434371D01*
X169243750Y-54433318D01*
X169756250Y-54433318D01*
X169777691Y-54434371D01*
G37*
G36*
X151777691Y-52859371D02*
G01*
X151798926Y-52862521D01*
X151819750Y-52867737D01*
X151839962Y-52874969D01*
X151859368Y-52884148D01*
X151877781Y-52895184D01*
X151895024Y-52907972D01*
X151910930Y-52922388D01*
X151925346Y-52938294D01*
X151938134Y-52955537D01*
X151949170Y-52973950D01*
X151958349Y-52993356D01*
X151965581Y-53013568D01*
X151970797Y-53034392D01*
X151973947Y-53055627D01*
X151975000Y-53077068D01*
X151975000Y-53514568D01*
X151973947Y-53536009D01*
X151970797Y-53557244D01*
X151965581Y-53578068D01*
X151958349Y-53598280D01*
X151949170Y-53617686D01*
X151938134Y-53636099D01*
X151925346Y-53653342D01*
X151910930Y-53669248D01*
X151895024Y-53683664D01*
X151877781Y-53696452D01*
X151859368Y-53707488D01*
X151839962Y-53716667D01*
X151819750Y-53723899D01*
X151798926Y-53729115D01*
X151777691Y-53732265D01*
X151756250Y-53733318D01*
X151243750Y-53733318D01*
X151222309Y-53732265D01*
X151201074Y-53729115D01*
X151180250Y-53723899D01*
X151160038Y-53716667D01*
X151140632Y-53707488D01*
X151122219Y-53696452D01*
X151104976Y-53683664D01*
X151089070Y-53669248D01*
X151074654Y-53653342D01*
X151061866Y-53636099D01*
X151050830Y-53617686D01*
X151041651Y-53598280D01*
X151034419Y-53578068D01*
X151029203Y-53557244D01*
X151026053Y-53536009D01*
X151025000Y-53514568D01*
X151025000Y-53077068D01*
X151026053Y-53055627D01*
X151029203Y-53034392D01*
X151034419Y-53013568D01*
X151041651Y-52993356D01*
X151050830Y-52973950D01*
X151061866Y-52955537D01*
X151074654Y-52938294D01*
X151089070Y-52922388D01*
X151104976Y-52907972D01*
X151122219Y-52895184D01*
X151140632Y-52884148D01*
X151160038Y-52874969D01*
X151180250Y-52867737D01*
X151201074Y-52862521D01*
X151222309Y-52859371D01*
X151243750Y-52858318D01*
X151756250Y-52858318D01*
X151777691Y-52859371D01*
G37*
G36*
X151777691Y-54434371D02*
G01*
X151798926Y-54437521D01*
X151819750Y-54442737D01*
X151839962Y-54449969D01*
X151859368Y-54459148D01*
X151877781Y-54470184D01*
X151895024Y-54482972D01*
X151910930Y-54497388D01*
X151925346Y-54513294D01*
X151938134Y-54530537D01*
X151949170Y-54548950D01*
X151958349Y-54568356D01*
X151965581Y-54588568D01*
X151970797Y-54609392D01*
X151973947Y-54630627D01*
X151975000Y-54652068D01*
X151975000Y-55089568D01*
X151973947Y-55111009D01*
X151970797Y-55132244D01*
X151965581Y-55153068D01*
X151958349Y-55173280D01*
X151949170Y-55192686D01*
X151938134Y-55211099D01*
X151925346Y-55228342D01*
X151910930Y-55244248D01*
X151895024Y-55258664D01*
X151877781Y-55271452D01*
X151859368Y-55282488D01*
X151839962Y-55291667D01*
X151819750Y-55298899D01*
X151798926Y-55304115D01*
X151777691Y-55307265D01*
X151756250Y-55308318D01*
X151243750Y-55308318D01*
X151222309Y-55307265D01*
X151201074Y-55304115D01*
X151180250Y-55298899D01*
X151160038Y-55291667D01*
X151140632Y-55282488D01*
X151122219Y-55271452D01*
X151104976Y-55258664D01*
X151089070Y-55244248D01*
X151074654Y-55228342D01*
X151061866Y-55211099D01*
X151050830Y-55192686D01*
X151041651Y-55173280D01*
X151034419Y-55153068D01*
X151029203Y-55132244D01*
X151026053Y-55111009D01*
X151025000Y-55089568D01*
X151025000Y-54652068D01*
X151026053Y-54630627D01*
X151029203Y-54609392D01*
X151034419Y-54588568D01*
X151041651Y-54568356D01*
X151050830Y-54548950D01*
X151061866Y-54530537D01*
X151074654Y-54513294D01*
X151089070Y-54497388D01*
X151104976Y-54482972D01*
X151122219Y-54470184D01*
X151140632Y-54459148D01*
X151160038Y-54449969D01*
X151180250Y-54442737D01*
X151201074Y-54437521D01*
X151222309Y-54434371D01*
X151243750Y-54433318D01*
X151756250Y-54433318D01*
X151777691Y-54434371D01*
G37*
G36*
X133777691Y-52859371D02*
G01*
X133798926Y-52862521D01*
X133819750Y-52867737D01*
X133839962Y-52874969D01*
X133859368Y-52884148D01*
X133877781Y-52895184D01*
X133895024Y-52907972D01*
X133910930Y-52922388D01*
X133925346Y-52938294D01*
X133938134Y-52955537D01*
X133949170Y-52973950D01*
X133958349Y-52993356D01*
X133965581Y-53013568D01*
X133970797Y-53034392D01*
X133973947Y-53055627D01*
X133975000Y-53077068D01*
X133975000Y-53514568D01*
X133973947Y-53536009D01*
X133970797Y-53557244D01*
X133965581Y-53578068D01*
X133958349Y-53598280D01*
X133949170Y-53617686D01*
X133938134Y-53636099D01*
X133925346Y-53653342D01*
X133910930Y-53669248D01*
X133895024Y-53683664D01*
X133877781Y-53696452D01*
X133859368Y-53707488D01*
X133839962Y-53716667D01*
X133819750Y-53723899D01*
X133798926Y-53729115D01*
X133777691Y-53732265D01*
X133756250Y-53733318D01*
X133243750Y-53733318D01*
X133222309Y-53732265D01*
X133201074Y-53729115D01*
X133180250Y-53723899D01*
X133160038Y-53716667D01*
X133140632Y-53707488D01*
X133122219Y-53696452D01*
X133104976Y-53683664D01*
X133089070Y-53669248D01*
X133074654Y-53653342D01*
X133061866Y-53636099D01*
X133050830Y-53617686D01*
X133041651Y-53598280D01*
X133034419Y-53578068D01*
X133029203Y-53557244D01*
X133026053Y-53536009D01*
X133025000Y-53514568D01*
X133025000Y-53077068D01*
X133026053Y-53055627D01*
X133029203Y-53034392D01*
X133034419Y-53013568D01*
X133041651Y-52993356D01*
X133050830Y-52973950D01*
X133061866Y-52955537D01*
X133074654Y-52938294D01*
X133089070Y-52922388D01*
X133104976Y-52907972D01*
X133122219Y-52895184D01*
X133140632Y-52884148D01*
X133160038Y-52874969D01*
X133180250Y-52867737D01*
X133201074Y-52862521D01*
X133222309Y-52859371D01*
X133243750Y-52858318D01*
X133756250Y-52858318D01*
X133777691Y-52859371D01*
G37*
G36*
X133777691Y-54434371D02*
G01*
X133798926Y-54437521D01*
X133819750Y-54442737D01*
X133839962Y-54449969D01*
X133859368Y-54459148D01*
X133877781Y-54470184D01*
X133895024Y-54482972D01*
X133910930Y-54497388D01*
X133925346Y-54513294D01*
X133938134Y-54530537D01*
X133949170Y-54548950D01*
X133958349Y-54568356D01*
X133965581Y-54588568D01*
X133970797Y-54609392D01*
X133973947Y-54630627D01*
X133975000Y-54652068D01*
X133975000Y-55089568D01*
X133973947Y-55111009D01*
X133970797Y-55132244D01*
X133965581Y-55153068D01*
X133958349Y-55173280D01*
X133949170Y-55192686D01*
X133938134Y-55211099D01*
X133925346Y-55228342D01*
X133910930Y-55244248D01*
X133895024Y-55258664D01*
X133877781Y-55271452D01*
X133859368Y-55282488D01*
X133839962Y-55291667D01*
X133819750Y-55298899D01*
X133798926Y-55304115D01*
X133777691Y-55307265D01*
X133756250Y-55308318D01*
X133243750Y-55308318D01*
X133222309Y-55307265D01*
X133201074Y-55304115D01*
X133180250Y-55298899D01*
X133160038Y-55291667D01*
X133140632Y-55282488D01*
X133122219Y-55271452D01*
X133104976Y-55258664D01*
X133089070Y-55244248D01*
X133074654Y-55228342D01*
X133061866Y-55211099D01*
X133050830Y-55192686D01*
X133041651Y-55173280D01*
X133034419Y-55153068D01*
X133029203Y-55132244D01*
X133026053Y-55111009D01*
X133025000Y-55089568D01*
X133025000Y-54652068D01*
X133026053Y-54630627D01*
X133029203Y-54609392D01*
X133034419Y-54588568D01*
X133041651Y-54568356D01*
X133050830Y-54548950D01*
X133061866Y-54530537D01*
X133074654Y-54513294D01*
X133089070Y-54497388D01*
X133104976Y-54482972D01*
X133122219Y-54470184D01*
X133140632Y-54459148D01*
X133160038Y-54449969D01*
X133180250Y-54442737D01*
X133201074Y-54437521D01*
X133222309Y-54434371D01*
X133243750Y-54433318D01*
X133756250Y-54433318D01*
X133777691Y-54434371D01*
G37*
G36*
X115777691Y-52859371D02*
G01*
X115798926Y-52862521D01*
X115819750Y-52867737D01*
X115839962Y-52874969D01*
X115859368Y-52884148D01*
X115877781Y-52895184D01*
X115895024Y-52907972D01*
X115910930Y-52922388D01*
X115925346Y-52938294D01*
X115938134Y-52955537D01*
X115949170Y-52973950D01*
X115958349Y-52993356D01*
X115965581Y-53013568D01*
X115970797Y-53034392D01*
X115973947Y-53055627D01*
X115975000Y-53077068D01*
X115975000Y-53514568D01*
X115973947Y-53536009D01*
X115970797Y-53557244D01*
X115965581Y-53578068D01*
X115958349Y-53598280D01*
X115949170Y-53617686D01*
X115938134Y-53636099D01*
X115925346Y-53653342D01*
X115910930Y-53669248D01*
X115895024Y-53683664D01*
X115877781Y-53696452D01*
X115859368Y-53707488D01*
X115839962Y-53716667D01*
X115819750Y-53723899D01*
X115798926Y-53729115D01*
X115777691Y-53732265D01*
X115756250Y-53733318D01*
X115243750Y-53733318D01*
X115222309Y-53732265D01*
X115201074Y-53729115D01*
X115180250Y-53723899D01*
X115160038Y-53716667D01*
X115140632Y-53707488D01*
X115122219Y-53696452D01*
X115104976Y-53683664D01*
X115089070Y-53669248D01*
X115074654Y-53653342D01*
X115061866Y-53636099D01*
X115050830Y-53617686D01*
X115041651Y-53598280D01*
X115034419Y-53578068D01*
X115029203Y-53557244D01*
X115026053Y-53536009D01*
X115025000Y-53514568D01*
X115025000Y-53077068D01*
X115026053Y-53055627D01*
X115029203Y-53034392D01*
X115034419Y-53013568D01*
X115041651Y-52993356D01*
X115050830Y-52973950D01*
X115061866Y-52955537D01*
X115074654Y-52938294D01*
X115089070Y-52922388D01*
X115104976Y-52907972D01*
X115122219Y-52895184D01*
X115140632Y-52884148D01*
X115160038Y-52874969D01*
X115180250Y-52867737D01*
X115201074Y-52862521D01*
X115222309Y-52859371D01*
X115243750Y-52858318D01*
X115756250Y-52858318D01*
X115777691Y-52859371D01*
G37*
G36*
X115777691Y-54434371D02*
G01*
X115798926Y-54437521D01*
X115819750Y-54442737D01*
X115839962Y-54449969D01*
X115859368Y-54459148D01*
X115877781Y-54470184D01*
X115895024Y-54482972D01*
X115910930Y-54497388D01*
X115925346Y-54513294D01*
X115938134Y-54530537D01*
X115949170Y-54548950D01*
X115958349Y-54568356D01*
X115965581Y-54588568D01*
X115970797Y-54609392D01*
X115973947Y-54630627D01*
X115975000Y-54652068D01*
X115975000Y-55089568D01*
X115973947Y-55111009D01*
X115970797Y-55132244D01*
X115965581Y-55153068D01*
X115958349Y-55173280D01*
X115949170Y-55192686D01*
X115938134Y-55211099D01*
X115925346Y-55228342D01*
X115910930Y-55244248D01*
X115895024Y-55258664D01*
X115877781Y-55271452D01*
X115859368Y-55282488D01*
X115839962Y-55291667D01*
X115819750Y-55298899D01*
X115798926Y-55304115D01*
X115777691Y-55307265D01*
X115756250Y-55308318D01*
X115243750Y-55308318D01*
X115222309Y-55307265D01*
X115201074Y-55304115D01*
X115180250Y-55298899D01*
X115160038Y-55291667D01*
X115140632Y-55282488D01*
X115122219Y-55271452D01*
X115104976Y-55258664D01*
X115089070Y-55244248D01*
X115074654Y-55228342D01*
X115061866Y-55211099D01*
X115050830Y-55192686D01*
X115041651Y-55173280D01*
X115034419Y-55153068D01*
X115029203Y-55132244D01*
X115026053Y-55111009D01*
X115025000Y-55089568D01*
X115025000Y-54652068D01*
X115026053Y-54630627D01*
X115029203Y-54609392D01*
X115034419Y-54588568D01*
X115041651Y-54568356D01*
X115050830Y-54548950D01*
X115061866Y-54530537D01*
X115074654Y-54513294D01*
X115089070Y-54497388D01*
X115104976Y-54482972D01*
X115122219Y-54470184D01*
X115140632Y-54459148D01*
X115160038Y-54449969D01*
X115180250Y-54442737D01*
X115201074Y-54437521D01*
X115222309Y-54434371D01*
X115243750Y-54433318D01*
X115756250Y-54433318D01*
X115777691Y-54434371D01*
G37*
G36*
X97777691Y-52859371D02*
G01*
X97798926Y-52862521D01*
X97819750Y-52867737D01*
X97839962Y-52874969D01*
X97859368Y-52884148D01*
X97877781Y-52895184D01*
X97895024Y-52907972D01*
X97910930Y-52922388D01*
X97925346Y-52938294D01*
X97938134Y-52955537D01*
X97949170Y-52973950D01*
X97958349Y-52993356D01*
X97965581Y-53013568D01*
X97970797Y-53034392D01*
X97973947Y-53055627D01*
X97975000Y-53077068D01*
X97975000Y-53514568D01*
X97973947Y-53536009D01*
X97970797Y-53557244D01*
X97965581Y-53578068D01*
X97958349Y-53598280D01*
X97949170Y-53617686D01*
X97938134Y-53636099D01*
X97925346Y-53653342D01*
X97910930Y-53669248D01*
X97895024Y-53683664D01*
X97877781Y-53696452D01*
X97859368Y-53707488D01*
X97839962Y-53716667D01*
X97819750Y-53723899D01*
X97798926Y-53729115D01*
X97777691Y-53732265D01*
X97756250Y-53733318D01*
X97243750Y-53733318D01*
X97222309Y-53732265D01*
X97201074Y-53729115D01*
X97180250Y-53723899D01*
X97160038Y-53716667D01*
X97140632Y-53707488D01*
X97122219Y-53696452D01*
X97104976Y-53683664D01*
X97089070Y-53669248D01*
X97074654Y-53653342D01*
X97061866Y-53636099D01*
X97050830Y-53617686D01*
X97041651Y-53598280D01*
X97034419Y-53578068D01*
X97029203Y-53557244D01*
X97026053Y-53536009D01*
X97025000Y-53514568D01*
X97025000Y-53077068D01*
X97026053Y-53055627D01*
X97029203Y-53034392D01*
X97034419Y-53013568D01*
X97041651Y-52993356D01*
X97050830Y-52973950D01*
X97061866Y-52955537D01*
X97074654Y-52938294D01*
X97089070Y-52922388D01*
X97104976Y-52907972D01*
X97122219Y-52895184D01*
X97140632Y-52884148D01*
X97160038Y-52874969D01*
X97180250Y-52867737D01*
X97201074Y-52862521D01*
X97222309Y-52859371D01*
X97243750Y-52858318D01*
X97756250Y-52858318D01*
X97777691Y-52859371D01*
G37*
G36*
X97777691Y-54434371D02*
G01*
X97798926Y-54437521D01*
X97819750Y-54442737D01*
X97839962Y-54449969D01*
X97859368Y-54459148D01*
X97877781Y-54470184D01*
X97895024Y-54482972D01*
X97910930Y-54497388D01*
X97925346Y-54513294D01*
X97938134Y-54530537D01*
X97949170Y-54548950D01*
X97958349Y-54568356D01*
X97965581Y-54588568D01*
X97970797Y-54609392D01*
X97973947Y-54630627D01*
X97975000Y-54652068D01*
X97975000Y-55089568D01*
X97973947Y-55111009D01*
X97970797Y-55132244D01*
X97965581Y-55153068D01*
X97958349Y-55173280D01*
X97949170Y-55192686D01*
X97938134Y-55211099D01*
X97925346Y-55228342D01*
X97910930Y-55244248D01*
X97895024Y-55258664D01*
X97877781Y-55271452D01*
X97859368Y-55282488D01*
X97839962Y-55291667D01*
X97819750Y-55298899D01*
X97798926Y-55304115D01*
X97777691Y-55307265D01*
X97756250Y-55308318D01*
X97243750Y-55308318D01*
X97222309Y-55307265D01*
X97201074Y-55304115D01*
X97180250Y-55298899D01*
X97160038Y-55291667D01*
X97140632Y-55282488D01*
X97122219Y-55271452D01*
X97104976Y-55258664D01*
X97089070Y-55244248D01*
X97074654Y-55228342D01*
X97061866Y-55211099D01*
X97050830Y-55192686D01*
X97041651Y-55173280D01*
X97034419Y-55153068D01*
X97029203Y-55132244D01*
X97026053Y-55111009D01*
X97025000Y-55089568D01*
X97025000Y-54652068D01*
X97026053Y-54630627D01*
X97029203Y-54609392D01*
X97034419Y-54588568D01*
X97041651Y-54568356D01*
X97050830Y-54548950D01*
X97061866Y-54530537D01*
X97074654Y-54513294D01*
X97089070Y-54497388D01*
X97104976Y-54482972D01*
X97122219Y-54470184D01*
X97140632Y-54459148D01*
X97160038Y-54449969D01*
X97180250Y-54442737D01*
X97201074Y-54437521D01*
X97222309Y-54434371D01*
X97243750Y-54433318D01*
X97756250Y-54433318D01*
X97777691Y-54434371D01*
G37*
G36*
X79777691Y-52859371D02*
G01*
X79798926Y-52862521D01*
X79819750Y-52867737D01*
X79839962Y-52874969D01*
X79859368Y-52884148D01*
X79877781Y-52895184D01*
X79895024Y-52907972D01*
X79910930Y-52922388D01*
X79925346Y-52938294D01*
X79938134Y-52955537D01*
X79949170Y-52973950D01*
X79958349Y-52993356D01*
X79965581Y-53013568D01*
X79970797Y-53034392D01*
X79973947Y-53055627D01*
X79975000Y-53077068D01*
X79975000Y-53514568D01*
X79973947Y-53536009D01*
X79970797Y-53557244D01*
X79965581Y-53578068D01*
X79958349Y-53598280D01*
X79949170Y-53617686D01*
X79938134Y-53636099D01*
X79925346Y-53653342D01*
X79910930Y-53669248D01*
X79895024Y-53683664D01*
X79877781Y-53696452D01*
X79859368Y-53707488D01*
X79839962Y-53716667D01*
X79819750Y-53723899D01*
X79798926Y-53729115D01*
X79777691Y-53732265D01*
X79756250Y-53733318D01*
X79243750Y-53733318D01*
X79222309Y-53732265D01*
X79201074Y-53729115D01*
X79180250Y-53723899D01*
X79160038Y-53716667D01*
X79140632Y-53707488D01*
X79122219Y-53696452D01*
X79104976Y-53683664D01*
X79089070Y-53669248D01*
X79074654Y-53653342D01*
X79061866Y-53636099D01*
X79050830Y-53617686D01*
X79041651Y-53598280D01*
X79034419Y-53578068D01*
X79029203Y-53557244D01*
X79026053Y-53536009D01*
X79025000Y-53514568D01*
X79025000Y-53077068D01*
X79026053Y-53055627D01*
X79029203Y-53034392D01*
X79034419Y-53013568D01*
X79041651Y-52993356D01*
X79050830Y-52973950D01*
X79061866Y-52955537D01*
X79074654Y-52938294D01*
X79089070Y-52922388D01*
X79104976Y-52907972D01*
X79122219Y-52895184D01*
X79140632Y-52884148D01*
X79160038Y-52874969D01*
X79180250Y-52867737D01*
X79201074Y-52862521D01*
X79222309Y-52859371D01*
X79243750Y-52858318D01*
X79756250Y-52858318D01*
X79777691Y-52859371D01*
G37*
G36*
X79777691Y-54434371D02*
G01*
X79798926Y-54437521D01*
X79819750Y-54442737D01*
X79839962Y-54449969D01*
X79859368Y-54459148D01*
X79877781Y-54470184D01*
X79895024Y-54482972D01*
X79910930Y-54497388D01*
X79925346Y-54513294D01*
X79938134Y-54530537D01*
X79949170Y-54548950D01*
X79958349Y-54568356D01*
X79965581Y-54588568D01*
X79970797Y-54609392D01*
X79973947Y-54630627D01*
X79975000Y-54652068D01*
X79975000Y-55089568D01*
X79973947Y-55111009D01*
X79970797Y-55132244D01*
X79965581Y-55153068D01*
X79958349Y-55173280D01*
X79949170Y-55192686D01*
X79938134Y-55211099D01*
X79925346Y-55228342D01*
X79910930Y-55244248D01*
X79895024Y-55258664D01*
X79877781Y-55271452D01*
X79859368Y-55282488D01*
X79839962Y-55291667D01*
X79819750Y-55298899D01*
X79798926Y-55304115D01*
X79777691Y-55307265D01*
X79756250Y-55308318D01*
X79243750Y-55308318D01*
X79222309Y-55307265D01*
X79201074Y-55304115D01*
X79180250Y-55298899D01*
X79160038Y-55291667D01*
X79140632Y-55282488D01*
X79122219Y-55271452D01*
X79104976Y-55258664D01*
X79089070Y-55244248D01*
X79074654Y-55228342D01*
X79061866Y-55211099D01*
X79050830Y-55192686D01*
X79041651Y-55173280D01*
X79034419Y-55153068D01*
X79029203Y-55132244D01*
X79026053Y-55111009D01*
X79025000Y-55089568D01*
X79025000Y-54652068D01*
X79026053Y-54630627D01*
X79029203Y-54609392D01*
X79034419Y-54588568D01*
X79041651Y-54568356D01*
X79050830Y-54548950D01*
X79061866Y-54530537D01*
X79074654Y-54513294D01*
X79089070Y-54497388D01*
X79104976Y-54482972D01*
X79122219Y-54470184D01*
X79140632Y-54459148D01*
X79160038Y-54449969D01*
X79180250Y-54442737D01*
X79201074Y-54437521D01*
X79222309Y-54434371D01*
X79243750Y-54433318D01*
X79756250Y-54433318D01*
X79777691Y-54434371D01*
G37*
G36*
X61777691Y-52859371D02*
G01*
X61798926Y-52862521D01*
X61819750Y-52867737D01*
X61839962Y-52874969D01*
X61859368Y-52884148D01*
X61877781Y-52895184D01*
X61895024Y-52907972D01*
X61910930Y-52922388D01*
X61925346Y-52938294D01*
X61938134Y-52955537D01*
X61949170Y-52973950D01*
X61958349Y-52993356D01*
X61965581Y-53013568D01*
X61970797Y-53034392D01*
X61973947Y-53055627D01*
X61975000Y-53077068D01*
X61975000Y-53514568D01*
X61973947Y-53536009D01*
X61970797Y-53557244D01*
X61965581Y-53578068D01*
X61958349Y-53598280D01*
X61949170Y-53617686D01*
X61938134Y-53636099D01*
X61925346Y-53653342D01*
X61910930Y-53669248D01*
X61895024Y-53683664D01*
X61877781Y-53696452D01*
X61859368Y-53707488D01*
X61839962Y-53716667D01*
X61819750Y-53723899D01*
X61798926Y-53729115D01*
X61777691Y-53732265D01*
X61756250Y-53733318D01*
X61243750Y-53733318D01*
X61222309Y-53732265D01*
X61201074Y-53729115D01*
X61180250Y-53723899D01*
X61160038Y-53716667D01*
X61140632Y-53707488D01*
X61122219Y-53696452D01*
X61104976Y-53683664D01*
X61089070Y-53669248D01*
X61074654Y-53653342D01*
X61061866Y-53636099D01*
X61050830Y-53617686D01*
X61041651Y-53598280D01*
X61034419Y-53578068D01*
X61029203Y-53557244D01*
X61026053Y-53536009D01*
X61025000Y-53514568D01*
X61025000Y-53077068D01*
X61026053Y-53055627D01*
X61029203Y-53034392D01*
X61034419Y-53013568D01*
X61041651Y-52993356D01*
X61050830Y-52973950D01*
X61061866Y-52955537D01*
X61074654Y-52938294D01*
X61089070Y-52922388D01*
X61104976Y-52907972D01*
X61122219Y-52895184D01*
X61140632Y-52884148D01*
X61160038Y-52874969D01*
X61180250Y-52867737D01*
X61201074Y-52862521D01*
X61222309Y-52859371D01*
X61243750Y-52858318D01*
X61756250Y-52858318D01*
X61777691Y-52859371D01*
G37*
G36*
X61777691Y-54434371D02*
G01*
X61798926Y-54437521D01*
X61819750Y-54442737D01*
X61839962Y-54449969D01*
X61859368Y-54459148D01*
X61877781Y-54470184D01*
X61895024Y-54482972D01*
X61910930Y-54497388D01*
X61925346Y-54513294D01*
X61938134Y-54530537D01*
X61949170Y-54548950D01*
X61958349Y-54568356D01*
X61965581Y-54588568D01*
X61970797Y-54609392D01*
X61973947Y-54630627D01*
X61975000Y-54652068D01*
X61975000Y-55089568D01*
X61973947Y-55111009D01*
X61970797Y-55132244D01*
X61965581Y-55153068D01*
X61958349Y-55173280D01*
X61949170Y-55192686D01*
X61938134Y-55211099D01*
X61925346Y-55228342D01*
X61910930Y-55244248D01*
X61895024Y-55258664D01*
X61877781Y-55271452D01*
X61859368Y-55282488D01*
X61839962Y-55291667D01*
X61819750Y-55298899D01*
X61798926Y-55304115D01*
X61777691Y-55307265D01*
X61756250Y-55308318D01*
X61243750Y-55308318D01*
X61222309Y-55307265D01*
X61201074Y-55304115D01*
X61180250Y-55298899D01*
X61160038Y-55291667D01*
X61140632Y-55282488D01*
X61122219Y-55271452D01*
X61104976Y-55258664D01*
X61089070Y-55244248D01*
X61074654Y-55228342D01*
X61061866Y-55211099D01*
X61050830Y-55192686D01*
X61041651Y-55173280D01*
X61034419Y-55153068D01*
X61029203Y-55132244D01*
X61026053Y-55111009D01*
X61025000Y-55089568D01*
X61025000Y-54652068D01*
X61026053Y-54630627D01*
X61029203Y-54609392D01*
X61034419Y-54588568D01*
X61041651Y-54568356D01*
X61050830Y-54548950D01*
X61061866Y-54530537D01*
X61074654Y-54513294D01*
X61089070Y-54497388D01*
X61104976Y-54482972D01*
X61122219Y-54470184D01*
X61140632Y-54459148D01*
X61160038Y-54449969D01*
X61180250Y-54442737D01*
X61201074Y-54437521D01*
X61222309Y-54434371D01*
X61243750Y-54433318D01*
X61756250Y-54433318D01*
X61777691Y-54434371D01*
G37*
G36*
X41527691Y-52859371D02*
G01*
X41548926Y-52862521D01*
X41569750Y-52867737D01*
X41589962Y-52874969D01*
X41609368Y-52884148D01*
X41627781Y-52895184D01*
X41645024Y-52907972D01*
X41660930Y-52922388D01*
X41675346Y-52938294D01*
X41688134Y-52955537D01*
X41699170Y-52973950D01*
X41708349Y-52993356D01*
X41715581Y-53013568D01*
X41720797Y-53034392D01*
X41723947Y-53055627D01*
X41725000Y-53077068D01*
X41725000Y-53514568D01*
X41723947Y-53536009D01*
X41720797Y-53557244D01*
X41715581Y-53578068D01*
X41708349Y-53598280D01*
X41699170Y-53617686D01*
X41688134Y-53636099D01*
X41675346Y-53653342D01*
X41660930Y-53669248D01*
X41645024Y-53683664D01*
X41627781Y-53696452D01*
X41609368Y-53707488D01*
X41589962Y-53716667D01*
X41569750Y-53723899D01*
X41548926Y-53729115D01*
X41527691Y-53732265D01*
X41506250Y-53733318D01*
X40993750Y-53733318D01*
X40972309Y-53732265D01*
X40951074Y-53729115D01*
X40930250Y-53723899D01*
X40910038Y-53716667D01*
X40890632Y-53707488D01*
X40872219Y-53696452D01*
X40854976Y-53683664D01*
X40839070Y-53669248D01*
X40824654Y-53653342D01*
X40811866Y-53636099D01*
X40800830Y-53617686D01*
X40791651Y-53598280D01*
X40784419Y-53578068D01*
X40779203Y-53557244D01*
X40776053Y-53536009D01*
X40775000Y-53514568D01*
X40775000Y-53077068D01*
X40776053Y-53055627D01*
X40779203Y-53034392D01*
X40784419Y-53013568D01*
X40791651Y-52993356D01*
X40800830Y-52973950D01*
X40811866Y-52955537D01*
X40824654Y-52938294D01*
X40839070Y-52922388D01*
X40854976Y-52907972D01*
X40872219Y-52895184D01*
X40890632Y-52884148D01*
X40910038Y-52874969D01*
X40930250Y-52867737D01*
X40951074Y-52862521D01*
X40972309Y-52859371D01*
X40993750Y-52858318D01*
X41506250Y-52858318D01*
X41527691Y-52859371D01*
G37*
G36*
X41527691Y-54434371D02*
G01*
X41548926Y-54437521D01*
X41569750Y-54442737D01*
X41589962Y-54449969D01*
X41609368Y-54459148D01*
X41627781Y-54470184D01*
X41645024Y-54482972D01*
X41660930Y-54497388D01*
X41675346Y-54513294D01*
X41688134Y-54530537D01*
X41699170Y-54548950D01*
X41708349Y-54568356D01*
X41715581Y-54588568D01*
X41720797Y-54609392D01*
X41723947Y-54630627D01*
X41725000Y-54652068D01*
X41725000Y-55089568D01*
X41723947Y-55111009D01*
X41720797Y-55132244D01*
X41715581Y-55153068D01*
X41708349Y-55173280D01*
X41699170Y-55192686D01*
X41688134Y-55211099D01*
X41675346Y-55228342D01*
X41660930Y-55244248D01*
X41645024Y-55258664D01*
X41627781Y-55271452D01*
X41609368Y-55282488D01*
X41589962Y-55291667D01*
X41569750Y-55298899D01*
X41548926Y-55304115D01*
X41527691Y-55307265D01*
X41506250Y-55308318D01*
X40993750Y-55308318D01*
X40972309Y-55307265D01*
X40951074Y-55304115D01*
X40930250Y-55298899D01*
X40910038Y-55291667D01*
X40890632Y-55282488D01*
X40872219Y-55271452D01*
X40854976Y-55258664D01*
X40839070Y-55244248D01*
X40824654Y-55228342D01*
X40811866Y-55211099D01*
X40800830Y-55192686D01*
X40791651Y-55173280D01*
X40784419Y-55153068D01*
X40779203Y-55132244D01*
X40776053Y-55111009D01*
X40775000Y-55089568D01*
X40775000Y-54652068D01*
X40776053Y-54630627D01*
X40779203Y-54609392D01*
X40784419Y-54588568D01*
X40791651Y-54568356D01*
X40800830Y-54548950D01*
X40811866Y-54530537D01*
X40824654Y-54513294D01*
X40839070Y-54497388D01*
X40854976Y-54482972D01*
X40872219Y-54470184D01*
X40890632Y-54459148D01*
X40910038Y-54449969D01*
X40930250Y-54442737D01*
X40951074Y-54437521D01*
X40972309Y-54434371D01*
X40993750Y-54433318D01*
X41506250Y-54433318D01*
X41527691Y-54434371D01*
G37*
G36*
X218527691Y-35859379D02*
G01*
X218548926Y-35862529D01*
X218569750Y-35867745D01*
X218589962Y-35874977D01*
X218609368Y-35884156D01*
X218627781Y-35895192D01*
X218645024Y-35907980D01*
X218660930Y-35922396D01*
X218675346Y-35938302D01*
X218688134Y-35955545D01*
X218699170Y-35973958D01*
X218708349Y-35993364D01*
X218715581Y-36013576D01*
X218720797Y-36034400D01*
X218723947Y-36055635D01*
X218725000Y-36077076D01*
X218725000Y-36514576D01*
X218723947Y-36536017D01*
X218720797Y-36557252D01*
X218715581Y-36578076D01*
X218708349Y-36598288D01*
X218699170Y-36617694D01*
X218688134Y-36636107D01*
X218675346Y-36653350D01*
X218660930Y-36669256D01*
X218645024Y-36683672D01*
X218627781Y-36696460D01*
X218609368Y-36707496D01*
X218589962Y-36716675D01*
X218569750Y-36723907D01*
X218548926Y-36729123D01*
X218527691Y-36732273D01*
X218506250Y-36733326D01*
X217993750Y-36733326D01*
X217972309Y-36732273D01*
X217951074Y-36729123D01*
X217930250Y-36723907D01*
X217910038Y-36716675D01*
X217890632Y-36707496D01*
X217872219Y-36696460D01*
X217854976Y-36683672D01*
X217839070Y-36669256D01*
X217824654Y-36653350D01*
X217811866Y-36636107D01*
X217800830Y-36617694D01*
X217791651Y-36598288D01*
X217784419Y-36578076D01*
X217779203Y-36557252D01*
X217776053Y-36536017D01*
X217775000Y-36514576D01*
X217775000Y-36077076D01*
X217776053Y-36055635D01*
X217779203Y-36034400D01*
X217784419Y-36013576D01*
X217791651Y-35993364D01*
X217800830Y-35973958D01*
X217811866Y-35955545D01*
X217824654Y-35938302D01*
X217839070Y-35922396D01*
X217854976Y-35907980D01*
X217872219Y-35895192D01*
X217890632Y-35884156D01*
X217910038Y-35874977D01*
X217930250Y-35867745D01*
X217951074Y-35862529D01*
X217972309Y-35859379D01*
X217993750Y-35858326D01*
X218506250Y-35858326D01*
X218527691Y-35859379D01*
G37*
G36*
X218527691Y-37434379D02*
G01*
X218548926Y-37437529D01*
X218569750Y-37442745D01*
X218589962Y-37449977D01*
X218609368Y-37459156D01*
X218627781Y-37470192D01*
X218645024Y-37482980D01*
X218660930Y-37497396D01*
X218675346Y-37513302D01*
X218688134Y-37530545D01*
X218699170Y-37548958D01*
X218708349Y-37568364D01*
X218715581Y-37588576D01*
X218720797Y-37609400D01*
X218723947Y-37630635D01*
X218725000Y-37652076D01*
X218725000Y-38089576D01*
X218723947Y-38111017D01*
X218720797Y-38132252D01*
X218715581Y-38153076D01*
X218708349Y-38173288D01*
X218699170Y-38192694D01*
X218688134Y-38211107D01*
X218675346Y-38228350D01*
X218660930Y-38244256D01*
X218645024Y-38258672D01*
X218627781Y-38271460D01*
X218609368Y-38282496D01*
X218589962Y-38291675D01*
X218569750Y-38298907D01*
X218548926Y-38304123D01*
X218527691Y-38307273D01*
X218506250Y-38308326D01*
X217993750Y-38308326D01*
X217972309Y-38307273D01*
X217951074Y-38304123D01*
X217930250Y-38298907D01*
X217910038Y-38291675D01*
X217890632Y-38282496D01*
X217872219Y-38271460D01*
X217854976Y-38258672D01*
X217839070Y-38244256D01*
X217824654Y-38228350D01*
X217811866Y-38211107D01*
X217800830Y-38192694D01*
X217791651Y-38173288D01*
X217784419Y-38153076D01*
X217779203Y-38132252D01*
X217776053Y-38111017D01*
X217775000Y-38089576D01*
X217775000Y-37652076D01*
X217776053Y-37630635D01*
X217779203Y-37609400D01*
X217784419Y-37588576D01*
X217791651Y-37568364D01*
X217800830Y-37548958D01*
X217811866Y-37530545D01*
X217824654Y-37513302D01*
X217839070Y-37497396D01*
X217854976Y-37482980D01*
X217872219Y-37470192D01*
X217890632Y-37459156D01*
X217910038Y-37449977D01*
X217930250Y-37442745D01*
X217951074Y-37437529D01*
X217972309Y-37434379D01*
X217993750Y-37433326D01*
X218506250Y-37433326D01*
X218527691Y-37434379D01*
G37*
G36*
X201277691Y-35859379D02*
G01*
X201298926Y-35862529D01*
X201319750Y-35867745D01*
X201339962Y-35874977D01*
X201359368Y-35884156D01*
X201377781Y-35895192D01*
X201395024Y-35907980D01*
X201410930Y-35922396D01*
X201425346Y-35938302D01*
X201438134Y-35955545D01*
X201449170Y-35973958D01*
X201458349Y-35993364D01*
X201465581Y-36013576D01*
X201470797Y-36034400D01*
X201473947Y-36055635D01*
X201475000Y-36077076D01*
X201475000Y-36514576D01*
X201473947Y-36536017D01*
X201470797Y-36557252D01*
X201465581Y-36578076D01*
X201458349Y-36598288D01*
X201449170Y-36617694D01*
X201438134Y-36636107D01*
X201425346Y-36653350D01*
X201410930Y-36669256D01*
X201395024Y-36683672D01*
X201377781Y-36696460D01*
X201359368Y-36707496D01*
X201339962Y-36716675D01*
X201319750Y-36723907D01*
X201298926Y-36729123D01*
X201277691Y-36732273D01*
X201256250Y-36733326D01*
X200743750Y-36733326D01*
X200722309Y-36732273D01*
X200701074Y-36729123D01*
X200680250Y-36723907D01*
X200660038Y-36716675D01*
X200640632Y-36707496D01*
X200622219Y-36696460D01*
X200604976Y-36683672D01*
X200589070Y-36669256D01*
X200574654Y-36653350D01*
X200561866Y-36636107D01*
X200550830Y-36617694D01*
X200541651Y-36598288D01*
X200534419Y-36578076D01*
X200529203Y-36557252D01*
X200526053Y-36536017D01*
X200525000Y-36514576D01*
X200525000Y-36077076D01*
X200526053Y-36055635D01*
X200529203Y-36034400D01*
X200534419Y-36013576D01*
X200541651Y-35993364D01*
X200550830Y-35973958D01*
X200561866Y-35955545D01*
X200574654Y-35938302D01*
X200589070Y-35922396D01*
X200604976Y-35907980D01*
X200622219Y-35895192D01*
X200640632Y-35884156D01*
X200660038Y-35874977D01*
X200680250Y-35867745D01*
X200701074Y-35862529D01*
X200722309Y-35859379D01*
X200743750Y-35858326D01*
X201256250Y-35858326D01*
X201277691Y-35859379D01*
G37*
G36*
X201277691Y-37434379D02*
G01*
X201298926Y-37437529D01*
X201319750Y-37442745D01*
X201339962Y-37449977D01*
X201359368Y-37459156D01*
X201377781Y-37470192D01*
X201395024Y-37482980D01*
X201410930Y-37497396D01*
X201425346Y-37513302D01*
X201438134Y-37530545D01*
X201449170Y-37548958D01*
X201458349Y-37568364D01*
X201465581Y-37588576D01*
X201470797Y-37609400D01*
X201473947Y-37630635D01*
X201475000Y-37652076D01*
X201475000Y-38089576D01*
X201473947Y-38111017D01*
X201470797Y-38132252D01*
X201465581Y-38153076D01*
X201458349Y-38173288D01*
X201449170Y-38192694D01*
X201438134Y-38211107D01*
X201425346Y-38228350D01*
X201410930Y-38244256D01*
X201395024Y-38258672D01*
X201377781Y-38271460D01*
X201359368Y-38282496D01*
X201339962Y-38291675D01*
X201319750Y-38298907D01*
X201298926Y-38304123D01*
X201277691Y-38307273D01*
X201256250Y-38308326D01*
X200743750Y-38308326D01*
X200722309Y-38307273D01*
X200701074Y-38304123D01*
X200680250Y-38298907D01*
X200660038Y-38291675D01*
X200640632Y-38282496D01*
X200622219Y-38271460D01*
X200604976Y-38258672D01*
X200589070Y-38244256D01*
X200574654Y-38228350D01*
X200561866Y-38211107D01*
X200550830Y-38192694D01*
X200541651Y-38173288D01*
X200534419Y-38153076D01*
X200529203Y-38132252D01*
X200526053Y-38111017D01*
X200525000Y-38089576D01*
X200525000Y-37652076D01*
X200526053Y-37630635D01*
X200529203Y-37609400D01*
X200534419Y-37588576D01*
X200541651Y-37568364D01*
X200550830Y-37548958D01*
X200561866Y-37530545D01*
X200574654Y-37513302D01*
X200589070Y-37497396D01*
X200604976Y-37482980D01*
X200622219Y-37470192D01*
X200640632Y-37459156D01*
X200660038Y-37449977D01*
X200680250Y-37442745D01*
X200701074Y-37437529D01*
X200722309Y-37434379D01*
X200743750Y-37433326D01*
X201256250Y-37433326D01*
X201277691Y-37434379D01*
G37*
G36*
X183277691Y-35859379D02*
G01*
X183298926Y-35862529D01*
X183319750Y-35867745D01*
X183339962Y-35874977D01*
X183359368Y-35884156D01*
X183377781Y-35895192D01*
X183395024Y-35907980D01*
X183410930Y-35922396D01*
X183425346Y-35938302D01*
X183438134Y-35955545D01*
X183449170Y-35973958D01*
X183458349Y-35993364D01*
X183465581Y-36013576D01*
X183470797Y-36034400D01*
X183473947Y-36055635D01*
X183475000Y-36077076D01*
X183475000Y-36514576D01*
X183473947Y-36536017D01*
X183470797Y-36557252D01*
X183465581Y-36578076D01*
X183458349Y-36598288D01*
X183449170Y-36617694D01*
X183438134Y-36636107D01*
X183425346Y-36653350D01*
X183410930Y-36669256D01*
X183395024Y-36683672D01*
X183377781Y-36696460D01*
X183359368Y-36707496D01*
X183339962Y-36716675D01*
X183319750Y-36723907D01*
X183298926Y-36729123D01*
X183277691Y-36732273D01*
X183256250Y-36733326D01*
X182743750Y-36733326D01*
X182722309Y-36732273D01*
X182701074Y-36729123D01*
X182680250Y-36723907D01*
X182660038Y-36716675D01*
X182640632Y-36707496D01*
X182622219Y-36696460D01*
X182604976Y-36683672D01*
X182589070Y-36669256D01*
X182574654Y-36653350D01*
X182561866Y-36636107D01*
X182550830Y-36617694D01*
X182541651Y-36598288D01*
X182534419Y-36578076D01*
X182529203Y-36557252D01*
X182526053Y-36536017D01*
X182525000Y-36514576D01*
X182525000Y-36077076D01*
X182526053Y-36055635D01*
X182529203Y-36034400D01*
X182534419Y-36013576D01*
X182541651Y-35993364D01*
X182550830Y-35973958D01*
X182561866Y-35955545D01*
X182574654Y-35938302D01*
X182589070Y-35922396D01*
X182604976Y-35907980D01*
X182622219Y-35895192D01*
X182640632Y-35884156D01*
X182660038Y-35874977D01*
X182680250Y-35867745D01*
X182701074Y-35862529D01*
X182722309Y-35859379D01*
X182743750Y-35858326D01*
X183256250Y-35858326D01*
X183277691Y-35859379D01*
G37*
G36*
X183277691Y-37434379D02*
G01*
X183298926Y-37437529D01*
X183319750Y-37442745D01*
X183339962Y-37449977D01*
X183359368Y-37459156D01*
X183377781Y-37470192D01*
X183395024Y-37482980D01*
X183410930Y-37497396D01*
X183425346Y-37513302D01*
X183438134Y-37530545D01*
X183449170Y-37548958D01*
X183458349Y-37568364D01*
X183465581Y-37588576D01*
X183470797Y-37609400D01*
X183473947Y-37630635D01*
X183475000Y-37652076D01*
X183475000Y-38089576D01*
X183473947Y-38111017D01*
X183470797Y-38132252D01*
X183465581Y-38153076D01*
X183458349Y-38173288D01*
X183449170Y-38192694D01*
X183438134Y-38211107D01*
X183425346Y-38228350D01*
X183410930Y-38244256D01*
X183395024Y-38258672D01*
X183377781Y-38271460D01*
X183359368Y-38282496D01*
X183339962Y-38291675D01*
X183319750Y-38298907D01*
X183298926Y-38304123D01*
X183277691Y-38307273D01*
X183256250Y-38308326D01*
X182743750Y-38308326D01*
X182722309Y-38307273D01*
X182701074Y-38304123D01*
X182680250Y-38298907D01*
X182660038Y-38291675D01*
X182640632Y-38282496D01*
X182622219Y-38271460D01*
X182604976Y-38258672D01*
X182589070Y-38244256D01*
X182574654Y-38228350D01*
X182561866Y-38211107D01*
X182550830Y-38192694D01*
X182541651Y-38173288D01*
X182534419Y-38153076D01*
X182529203Y-38132252D01*
X182526053Y-38111017D01*
X182525000Y-38089576D01*
X182525000Y-37652076D01*
X182526053Y-37630635D01*
X182529203Y-37609400D01*
X182534419Y-37588576D01*
X182541651Y-37568364D01*
X182550830Y-37548958D01*
X182561866Y-37530545D01*
X182574654Y-37513302D01*
X182589070Y-37497396D01*
X182604976Y-37482980D01*
X182622219Y-37470192D01*
X182640632Y-37459156D01*
X182660038Y-37449977D01*
X182680250Y-37442745D01*
X182701074Y-37437529D01*
X182722309Y-37434379D01*
X182743750Y-37433326D01*
X183256250Y-37433326D01*
X183277691Y-37434379D01*
G37*
G36*
X165277691Y-35859379D02*
G01*
X165298926Y-35862529D01*
X165319750Y-35867745D01*
X165339962Y-35874977D01*
X165359368Y-35884156D01*
X165377781Y-35895192D01*
X165395024Y-35907980D01*
X165410930Y-35922396D01*
X165425346Y-35938302D01*
X165438134Y-35955545D01*
X165449170Y-35973958D01*
X165458349Y-35993364D01*
X165465581Y-36013576D01*
X165470797Y-36034400D01*
X165473947Y-36055635D01*
X165475000Y-36077076D01*
X165475000Y-36514576D01*
X165473947Y-36536017D01*
X165470797Y-36557252D01*
X165465581Y-36578076D01*
X165458349Y-36598288D01*
X165449170Y-36617694D01*
X165438134Y-36636107D01*
X165425346Y-36653350D01*
X165410930Y-36669256D01*
X165395024Y-36683672D01*
X165377781Y-36696460D01*
X165359368Y-36707496D01*
X165339962Y-36716675D01*
X165319750Y-36723907D01*
X165298926Y-36729123D01*
X165277691Y-36732273D01*
X165256250Y-36733326D01*
X164743750Y-36733326D01*
X164722309Y-36732273D01*
X164701074Y-36729123D01*
X164680250Y-36723907D01*
X164660038Y-36716675D01*
X164640632Y-36707496D01*
X164622219Y-36696460D01*
X164604976Y-36683672D01*
X164589070Y-36669256D01*
X164574654Y-36653350D01*
X164561866Y-36636107D01*
X164550830Y-36617694D01*
X164541651Y-36598288D01*
X164534419Y-36578076D01*
X164529203Y-36557252D01*
X164526053Y-36536017D01*
X164525000Y-36514576D01*
X164525000Y-36077076D01*
X164526053Y-36055635D01*
X164529203Y-36034400D01*
X164534419Y-36013576D01*
X164541651Y-35993364D01*
X164550830Y-35973958D01*
X164561866Y-35955545D01*
X164574654Y-35938302D01*
X164589070Y-35922396D01*
X164604976Y-35907980D01*
X164622219Y-35895192D01*
X164640632Y-35884156D01*
X164660038Y-35874977D01*
X164680250Y-35867745D01*
X164701074Y-35862529D01*
X164722309Y-35859379D01*
X164743750Y-35858326D01*
X165256250Y-35858326D01*
X165277691Y-35859379D01*
G37*
G36*
X165277691Y-37434379D02*
G01*
X165298926Y-37437529D01*
X165319750Y-37442745D01*
X165339962Y-37449977D01*
X165359368Y-37459156D01*
X165377781Y-37470192D01*
X165395024Y-37482980D01*
X165410930Y-37497396D01*
X165425346Y-37513302D01*
X165438134Y-37530545D01*
X165449170Y-37548958D01*
X165458349Y-37568364D01*
X165465581Y-37588576D01*
X165470797Y-37609400D01*
X165473947Y-37630635D01*
X165475000Y-37652076D01*
X165475000Y-38089576D01*
X165473947Y-38111017D01*
X165470797Y-38132252D01*
X165465581Y-38153076D01*
X165458349Y-38173288D01*
X165449170Y-38192694D01*
X165438134Y-38211107D01*
X165425346Y-38228350D01*
X165410930Y-38244256D01*
X165395024Y-38258672D01*
X165377781Y-38271460D01*
X165359368Y-38282496D01*
X165339962Y-38291675D01*
X165319750Y-38298907D01*
X165298926Y-38304123D01*
X165277691Y-38307273D01*
X165256250Y-38308326D01*
X164743750Y-38308326D01*
X164722309Y-38307273D01*
X164701074Y-38304123D01*
X164680250Y-38298907D01*
X164660038Y-38291675D01*
X164640632Y-38282496D01*
X164622219Y-38271460D01*
X164604976Y-38258672D01*
X164589070Y-38244256D01*
X164574654Y-38228350D01*
X164561866Y-38211107D01*
X164550830Y-38192694D01*
X164541651Y-38173288D01*
X164534419Y-38153076D01*
X164529203Y-38132252D01*
X164526053Y-38111017D01*
X164525000Y-38089576D01*
X164525000Y-37652076D01*
X164526053Y-37630635D01*
X164529203Y-37609400D01*
X164534419Y-37588576D01*
X164541651Y-37568364D01*
X164550830Y-37548958D01*
X164561866Y-37530545D01*
X164574654Y-37513302D01*
X164589070Y-37497396D01*
X164604976Y-37482980D01*
X164622219Y-37470192D01*
X164640632Y-37459156D01*
X164660038Y-37449977D01*
X164680250Y-37442745D01*
X164701074Y-37437529D01*
X164722309Y-37434379D01*
X164743750Y-37433326D01*
X165256250Y-37433326D01*
X165277691Y-37434379D01*
G37*
G36*
X147277691Y-35859379D02*
G01*
X147298926Y-35862529D01*
X147319750Y-35867745D01*
X147339962Y-35874977D01*
X147359368Y-35884156D01*
X147377781Y-35895192D01*
X147395024Y-35907980D01*
X147410930Y-35922396D01*
X147425346Y-35938302D01*
X147438134Y-35955545D01*
X147449170Y-35973958D01*
X147458349Y-35993364D01*
X147465581Y-36013576D01*
X147470797Y-36034400D01*
X147473947Y-36055635D01*
X147475000Y-36077076D01*
X147475000Y-36514576D01*
X147473947Y-36536017D01*
X147470797Y-36557252D01*
X147465581Y-36578076D01*
X147458349Y-36598288D01*
X147449170Y-36617694D01*
X147438134Y-36636107D01*
X147425346Y-36653350D01*
X147410930Y-36669256D01*
X147395024Y-36683672D01*
X147377781Y-36696460D01*
X147359368Y-36707496D01*
X147339962Y-36716675D01*
X147319750Y-36723907D01*
X147298926Y-36729123D01*
X147277691Y-36732273D01*
X147256250Y-36733326D01*
X146743750Y-36733326D01*
X146722309Y-36732273D01*
X146701074Y-36729123D01*
X146680250Y-36723907D01*
X146660038Y-36716675D01*
X146640632Y-36707496D01*
X146622219Y-36696460D01*
X146604976Y-36683672D01*
X146589070Y-36669256D01*
X146574654Y-36653350D01*
X146561866Y-36636107D01*
X146550830Y-36617694D01*
X146541651Y-36598288D01*
X146534419Y-36578076D01*
X146529203Y-36557252D01*
X146526053Y-36536017D01*
X146525000Y-36514576D01*
X146525000Y-36077076D01*
X146526053Y-36055635D01*
X146529203Y-36034400D01*
X146534419Y-36013576D01*
X146541651Y-35993364D01*
X146550830Y-35973958D01*
X146561866Y-35955545D01*
X146574654Y-35938302D01*
X146589070Y-35922396D01*
X146604976Y-35907980D01*
X146622219Y-35895192D01*
X146640632Y-35884156D01*
X146660038Y-35874977D01*
X146680250Y-35867745D01*
X146701074Y-35862529D01*
X146722309Y-35859379D01*
X146743750Y-35858326D01*
X147256250Y-35858326D01*
X147277691Y-35859379D01*
G37*
G36*
X147277691Y-37434379D02*
G01*
X147298926Y-37437529D01*
X147319750Y-37442745D01*
X147339962Y-37449977D01*
X147359368Y-37459156D01*
X147377781Y-37470192D01*
X147395024Y-37482980D01*
X147410930Y-37497396D01*
X147425346Y-37513302D01*
X147438134Y-37530545D01*
X147449170Y-37548958D01*
X147458349Y-37568364D01*
X147465581Y-37588576D01*
X147470797Y-37609400D01*
X147473947Y-37630635D01*
X147475000Y-37652076D01*
X147475000Y-38089576D01*
X147473947Y-38111017D01*
X147470797Y-38132252D01*
X147465581Y-38153076D01*
X147458349Y-38173288D01*
X147449170Y-38192694D01*
X147438134Y-38211107D01*
X147425346Y-38228350D01*
X147410930Y-38244256D01*
X147395024Y-38258672D01*
X147377781Y-38271460D01*
X147359368Y-38282496D01*
X147339962Y-38291675D01*
X147319750Y-38298907D01*
X147298926Y-38304123D01*
X147277691Y-38307273D01*
X147256250Y-38308326D01*
X146743750Y-38308326D01*
X146722309Y-38307273D01*
X146701074Y-38304123D01*
X146680250Y-38298907D01*
X146660038Y-38291675D01*
X146640632Y-38282496D01*
X146622219Y-38271460D01*
X146604976Y-38258672D01*
X146589070Y-38244256D01*
X146574654Y-38228350D01*
X146561866Y-38211107D01*
X146550830Y-38192694D01*
X146541651Y-38173288D01*
X146534419Y-38153076D01*
X146529203Y-38132252D01*
X146526053Y-38111017D01*
X146525000Y-38089576D01*
X146525000Y-37652076D01*
X146526053Y-37630635D01*
X146529203Y-37609400D01*
X146534419Y-37588576D01*
X146541651Y-37568364D01*
X146550830Y-37548958D01*
X146561866Y-37530545D01*
X146574654Y-37513302D01*
X146589070Y-37497396D01*
X146604976Y-37482980D01*
X146622219Y-37470192D01*
X146640632Y-37459156D01*
X146660038Y-37449977D01*
X146680250Y-37442745D01*
X146701074Y-37437529D01*
X146722309Y-37434379D01*
X146743750Y-37433326D01*
X147256250Y-37433326D01*
X147277691Y-37434379D01*
G37*
G36*
X129277691Y-35859379D02*
G01*
X129298926Y-35862529D01*
X129319750Y-35867745D01*
X129339962Y-35874977D01*
X129359368Y-35884156D01*
X129377781Y-35895192D01*
X129395024Y-35907980D01*
X129410930Y-35922396D01*
X129425346Y-35938302D01*
X129438134Y-35955545D01*
X129449170Y-35973958D01*
X129458349Y-35993364D01*
X129465581Y-36013576D01*
X129470797Y-36034400D01*
X129473947Y-36055635D01*
X129475000Y-36077076D01*
X129475000Y-36514576D01*
X129473947Y-36536017D01*
X129470797Y-36557252D01*
X129465581Y-36578076D01*
X129458349Y-36598288D01*
X129449170Y-36617694D01*
X129438134Y-36636107D01*
X129425346Y-36653350D01*
X129410930Y-36669256D01*
X129395024Y-36683672D01*
X129377781Y-36696460D01*
X129359368Y-36707496D01*
X129339962Y-36716675D01*
X129319750Y-36723907D01*
X129298926Y-36729123D01*
X129277691Y-36732273D01*
X129256250Y-36733326D01*
X128743750Y-36733326D01*
X128722309Y-36732273D01*
X128701074Y-36729123D01*
X128680250Y-36723907D01*
X128660038Y-36716675D01*
X128640632Y-36707496D01*
X128622219Y-36696460D01*
X128604976Y-36683672D01*
X128589070Y-36669256D01*
X128574654Y-36653350D01*
X128561866Y-36636107D01*
X128550830Y-36617694D01*
X128541651Y-36598288D01*
X128534419Y-36578076D01*
X128529203Y-36557252D01*
X128526053Y-36536017D01*
X128525000Y-36514576D01*
X128525000Y-36077076D01*
X128526053Y-36055635D01*
X128529203Y-36034400D01*
X128534419Y-36013576D01*
X128541651Y-35993364D01*
X128550830Y-35973958D01*
X128561866Y-35955545D01*
X128574654Y-35938302D01*
X128589070Y-35922396D01*
X128604976Y-35907980D01*
X128622219Y-35895192D01*
X128640632Y-35884156D01*
X128660038Y-35874977D01*
X128680250Y-35867745D01*
X128701074Y-35862529D01*
X128722309Y-35859379D01*
X128743750Y-35858326D01*
X129256250Y-35858326D01*
X129277691Y-35859379D01*
G37*
G36*
X129277691Y-37434379D02*
G01*
X129298926Y-37437529D01*
X129319750Y-37442745D01*
X129339962Y-37449977D01*
X129359368Y-37459156D01*
X129377781Y-37470192D01*
X129395024Y-37482980D01*
X129410930Y-37497396D01*
X129425346Y-37513302D01*
X129438134Y-37530545D01*
X129449170Y-37548958D01*
X129458349Y-37568364D01*
X129465581Y-37588576D01*
X129470797Y-37609400D01*
X129473947Y-37630635D01*
X129475000Y-37652076D01*
X129475000Y-38089576D01*
X129473947Y-38111017D01*
X129470797Y-38132252D01*
X129465581Y-38153076D01*
X129458349Y-38173288D01*
X129449170Y-38192694D01*
X129438134Y-38211107D01*
X129425346Y-38228350D01*
X129410930Y-38244256D01*
X129395024Y-38258672D01*
X129377781Y-38271460D01*
X129359368Y-38282496D01*
X129339962Y-38291675D01*
X129319750Y-38298907D01*
X129298926Y-38304123D01*
X129277691Y-38307273D01*
X129256250Y-38308326D01*
X128743750Y-38308326D01*
X128722309Y-38307273D01*
X128701074Y-38304123D01*
X128680250Y-38298907D01*
X128660038Y-38291675D01*
X128640632Y-38282496D01*
X128622219Y-38271460D01*
X128604976Y-38258672D01*
X128589070Y-38244256D01*
X128574654Y-38228350D01*
X128561866Y-38211107D01*
X128550830Y-38192694D01*
X128541651Y-38173288D01*
X128534419Y-38153076D01*
X128529203Y-38132252D01*
X128526053Y-38111017D01*
X128525000Y-38089576D01*
X128525000Y-37652076D01*
X128526053Y-37630635D01*
X128529203Y-37609400D01*
X128534419Y-37588576D01*
X128541651Y-37568364D01*
X128550830Y-37548958D01*
X128561866Y-37530545D01*
X128574654Y-37513302D01*
X128589070Y-37497396D01*
X128604976Y-37482980D01*
X128622219Y-37470192D01*
X128640632Y-37459156D01*
X128660038Y-37449977D01*
X128680250Y-37442745D01*
X128701074Y-37437529D01*
X128722309Y-37434379D01*
X128743750Y-37433326D01*
X129256250Y-37433326D01*
X129277691Y-37434379D01*
G37*
G36*
X111277691Y-35859379D02*
G01*
X111298926Y-35862529D01*
X111319750Y-35867745D01*
X111339962Y-35874977D01*
X111359368Y-35884156D01*
X111377781Y-35895192D01*
X111395024Y-35907980D01*
X111410930Y-35922396D01*
X111425346Y-35938302D01*
X111438134Y-35955545D01*
X111449170Y-35973958D01*
X111458349Y-35993364D01*
X111465581Y-36013576D01*
X111470797Y-36034400D01*
X111473947Y-36055635D01*
X111475000Y-36077076D01*
X111475000Y-36514576D01*
X111473947Y-36536017D01*
X111470797Y-36557252D01*
X111465581Y-36578076D01*
X111458349Y-36598288D01*
X111449170Y-36617694D01*
X111438134Y-36636107D01*
X111425346Y-36653350D01*
X111410930Y-36669256D01*
X111395024Y-36683672D01*
X111377781Y-36696460D01*
X111359368Y-36707496D01*
X111339962Y-36716675D01*
X111319750Y-36723907D01*
X111298926Y-36729123D01*
X111277691Y-36732273D01*
X111256250Y-36733326D01*
X110743750Y-36733326D01*
X110722309Y-36732273D01*
X110701074Y-36729123D01*
X110680250Y-36723907D01*
X110660038Y-36716675D01*
X110640632Y-36707496D01*
X110622219Y-36696460D01*
X110604976Y-36683672D01*
X110589070Y-36669256D01*
X110574654Y-36653350D01*
X110561866Y-36636107D01*
X110550830Y-36617694D01*
X110541651Y-36598288D01*
X110534419Y-36578076D01*
X110529203Y-36557252D01*
X110526053Y-36536017D01*
X110525000Y-36514576D01*
X110525000Y-36077076D01*
X110526053Y-36055635D01*
X110529203Y-36034400D01*
X110534419Y-36013576D01*
X110541651Y-35993364D01*
X110550830Y-35973958D01*
X110561866Y-35955545D01*
X110574654Y-35938302D01*
X110589070Y-35922396D01*
X110604976Y-35907980D01*
X110622219Y-35895192D01*
X110640632Y-35884156D01*
X110660038Y-35874977D01*
X110680250Y-35867745D01*
X110701074Y-35862529D01*
X110722309Y-35859379D01*
X110743750Y-35858326D01*
X111256250Y-35858326D01*
X111277691Y-35859379D01*
G37*
G36*
X111277691Y-37434379D02*
G01*
X111298926Y-37437529D01*
X111319750Y-37442745D01*
X111339962Y-37449977D01*
X111359368Y-37459156D01*
X111377781Y-37470192D01*
X111395024Y-37482980D01*
X111410930Y-37497396D01*
X111425346Y-37513302D01*
X111438134Y-37530545D01*
X111449170Y-37548958D01*
X111458349Y-37568364D01*
X111465581Y-37588576D01*
X111470797Y-37609400D01*
X111473947Y-37630635D01*
X111475000Y-37652076D01*
X111475000Y-38089576D01*
X111473947Y-38111017D01*
X111470797Y-38132252D01*
X111465581Y-38153076D01*
X111458349Y-38173288D01*
X111449170Y-38192694D01*
X111438134Y-38211107D01*
X111425346Y-38228350D01*
X111410930Y-38244256D01*
X111395024Y-38258672D01*
X111377781Y-38271460D01*
X111359368Y-38282496D01*
X111339962Y-38291675D01*
X111319750Y-38298907D01*
X111298926Y-38304123D01*
X111277691Y-38307273D01*
X111256250Y-38308326D01*
X110743750Y-38308326D01*
X110722309Y-38307273D01*
X110701074Y-38304123D01*
X110680250Y-38298907D01*
X110660038Y-38291675D01*
X110640632Y-38282496D01*
X110622219Y-38271460D01*
X110604976Y-38258672D01*
X110589070Y-38244256D01*
X110574654Y-38228350D01*
X110561866Y-38211107D01*
X110550830Y-38192694D01*
X110541651Y-38173288D01*
X110534419Y-38153076D01*
X110529203Y-38132252D01*
X110526053Y-38111017D01*
X110525000Y-38089576D01*
X110525000Y-37652076D01*
X110526053Y-37630635D01*
X110529203Y-37609400D01*
X110534419Y-37588576D01*
X110541651Y-37568364D01*
X110550830Y-37548958D01*
X110561866Y-37530545D01*
X110574654Y-37513302D01*
X110589070Y-37497396D01*
X110604976Y-37482980D01*
X110622219Y-37470192D01*
X110640632Y-37459156D01*
X110660038Y-37449977D01*
X110680250Y-37442745D01*
X110701074Y-37437529D01*
X110722309Y-37434379D01*
X110743750Y-37433326D01*
X111256250Y-37433326D01*
X111277691Y-37434379D01*
G37*
G36*
X93277691Y-35859379D02*
G01*
X93298926Y-35862529D01*
X93319750Y-35867745D01*
X93339962Y-35874977D01*
X93359368Y-35884156D01*
X93377781Y-35895192D01*
X93395024Y-35907980D01*
X93410930Y-35922396D01*
X93425346Y-35938302D01*
X93438134Y-35955545D01*
X93449170Y-35973958D01*
X93458349Y-35993364D01*
X93465581Y-36013576D01*
X93470797Y-36034400D01*
X93473947Y-36055635D01*
X93475000Y-36077076D01*
X93475000Y-36514576D01*
X93473947Y-36536017D01*
X93470797Y-36557252D01*
X93465581Y-36578076D01*
X93458349Y-36598288D01*
X93449170Y-36617694D01*
X93438134Y-36636107D01*
X93425346Y-36653350D01*
X93410930Y-36669256D01*
X93395024Y-36683672D01*
X93377781Y-36696460D01*
X93359368Y-36707496D01*
X93339962Y-36716675D01*
X93319750Y-36723907D01*
X93298926Y-36729123D01*
X93277691Y-36732273D01*
X93256250Y-36733326D01*
X92743750Y-36733326D01*
X92722309Y-36732273D01*
X92701074Y-36729123D01*
X92680250Y-36723907D01*
X92660038Y-36716675D01*
X92640632Y-36707496D01*
X92622219Y-36696460D01*
X92604976Y-36683672D01*
X92589070Y-36669256D01*
X92574654Y-36653350D01*
X92561866Y-36636107D01*
X92550830Y-36617694D01*
X92541651Y-36598288D01*
X92534419Y-36578076D01*
X92529203Y-36557252D01*
X92526053Y-36536017D01*
X92525000Y-36514576D01*
X92525000Y-36077076D01*
X92526053Y-36055635D01*
X92529203Y-36034400D01*
X92534419Y-36013576D01*
X92541651Y-35993364D01*
X92550830Y-35973958D01*
X92561866Y-35955545D01*
X92574654Y-35938302D01*
X92589070Y-35922396D01*
X92604976Y-35907980D01*
X92622219Y-35895192D01*
X92640632Y-35884156D01*
X92660038Y-35874977D01*
X92680250Y-35867745D01*
X92701074Y-35862529D01*
X92722309Y-35859379D01*
X92743750Y-35858326D01*
X93256250Y-35858326D01*
X93277691Y-35859379D01*
G37*
G36*
X93277691Y-37434379D02*
G01*
X93298926Y-37437529D01*
X93319750Y-37442745D01*
X93339962Y-37449977D01*
X93359368Y-37459156D01*
X93377781Y-37470192D01*
X93395024Y-37482980D01*
X93410930Y-37497396D01*
X93425346Y-37513302D01*
X93438134Y-37530545D01*
X93449170Y-37548958D01*
X93458349Y-37568364D01*
X93465581Y-37588576D01*
X93470797Y-37609400D01*
X93473947Y-37630635D01*
X93475000Y-37652076D01*
X93475000Y-38089576D01*
X93473947Y-38111017D01*
X93470797Y-38132252D01*
X93465581Y-38153076D01*
X93458349Y-38173288D01*
X93449170Y-38192694D01*
X93438134Y-38211107D01*
X93425346Y-38228350D01*
X93410930Y-38244256D01*
X93395024Y-38258672D01*
X93377781Y-38271460D01*
X93359368Y-38282496D01*
X93339962Y-38291675D01*
X93319750Y-38298907D01*
X93298926Y-38304123D01*
X93277691Y-38307273D01*
X93256250Y-38308326D01*
X92743750Y-38308326D01*
X92722309Y-38307273D01*
X92701074Y-38304123D01*
X92680250Y-38298907D01*
X92660038Y-38291675D01*
X92640632Y-38282496D01*
X92622219Y-38271460D01*
X92604976Y-38258672D01*
X92589070Y-38244256D01*
X92574654Y-38228350D01*
X92561866Y-38211107D01*
X92550830Y-38192694D01*
X92541651Y-38173288D01*
X92534419Y-38153076D01*
X92529203Y-38132252D01*
X92526053Y-38111017D01*
X92525000Y-38089576D01*
X92525000Y-37652076D01*
X92526053Y-37630635D01*
X92529203Y-37609400D01*
X92534419Y-37588576D01*
X92541651Y-37568364D01*
X92550830Y-37548958D01*
X92561866Y-37530545D01*
X92574654Y-37513302D01*
X92589070Y-37497396D01*
X92604976Y-37482980D01*
X92622219Y-37470192D01*
X92640632Y-37459156D01*
X92660038Y-37449977D01*
X92680250Y-37442745D01*
X92701074Y-37437529D01*
X92722309Y-37434379D01*
X92743750Y-37433326D01*
X93256250Y-37433326D01*
X93277691Y-37434379D01*
G37*
G36*
X75277691Y-35859379D02*
G01*
X75298926Y-35862529D01*
X75319750Y-35867745D01*
X75339962Y-35874977D01*
X75359368Y-35884156D01*
X75377781Y-35895192D01*
X75395024Y-35907980D01*
X75410930Y-35922396D01*
X75425346Y-35938302D01*
X75438134Y-35955545D01*
X75449170Y-35973958D01*
X75458349Y-35993364D01*
X75465581Y-36013576D01*
X75470797Y-36034400D01*
X75473947Y-36055635D01*
X75475000Y-36077076D01*
X75475000Y-36514576D01*
X75473947Y-36536017D01*
X75470797Y-36557252D01*
X75465581Y-36578076D01*
X75458349Y-36598288D01*
X75449170Y-36617694D01*
X75438134Y-36636107D01*
X75425346Y-36653350D01*
X75410930Y-36669256D01*
X75395024Y-36683672D01*
X75377781Y-36696460D01*
X75359368Y-36707496D01*
X75339962Y-36716675D01*
X75319750Y-36723907D01*
X75298926Y-36729123D01*
X75277691Y-36732273D01*
X75256250Y-36733326D01*
X74743750Y-36733326D01*
X74722309Y-36732273D01*
X74701074Y-36729123D01*
X74680250Y-36723907D01*
X74660038Y-36716675D01*
X74640632Y-36707496D01*
X74622219Y-36696460D01*
X74604976Y-36683672D01*
X74589070Y-36669256D01*
X74574654Y-36653350D01*
X74561866Y-36636107D01*
X74550830Y-36617694D01*
X74541651Y-36598288D01*
X74534419Y-36578076D01*
X74529203Y-36557252D01*
X74526053Y-36536017D01*
X74525000Y-36514576D01*
X74525000Y-36077076D01*
X74526053Y-36055635D01*
X74529203Y-36034400D01*
X74534419Y-36013576D01*
X74541651Y-35993364D01*
X74550830Y-35973958D01*
X74561866Y-35955545D01*
X74574654Y-35938302D01*
X74589070Y-35922396D01*
X74604976Y-35907980D01*
X74622219Y-35895192D01*
X74640632Y-35884156D01*
X74660038Y-35874977D01*
X74680250Y-35867745D01*
X74701074Y-35862529D01*
X74722309Y-35859379D01*
X74743750Y-35858326D01*
X75256250Y-35858326D01*
X75277691Y-35859379D01*
G37*
G36*
X75277691Y-37434379D02*
G01*
X75298926Y-37437529D01*
X75319750Y-37442745D01*
X75339962Y-37449977D01*
X75359368Y-37459156D01*
X75377781Y-37470192D01*
X75395024Y-37482980D01*
X75410930Y-37497396D01*
X75425346Y-37513302D01*
X75438134Y-37530545D01*
X75449170Y-37548958D01*
X75458349Y-37568364D01*
X75465581Y-37588576D01*
X75470797Y-37609400D01*
X75473947Y-37630635D01*
X75475000Y-37652076D01*
X75475000Y-38089576D01*
X75473947Y-38111017D01*
X75470797Y-38132252D01*
X75465581Y-38153076D01*
X75458349Y-38173288D01*
X75449170Y-38192694D01*
X75438134Y-38211107D01*
X75425346Y-38228350D01*
X75410930Y-38244256D01*
X75395024Y-38258672D01*
X75377781Y-38271460D01*
X75359368Y-38282496D01*
X75339962Y-38291675D01*
X75319750Y-38298907D01*
X75298926Y-38304123D01*
X75277691Y-38307273D01*
X75256250Y-38308326D01*
X74743750Y-38308326D01*
X74722309Y-38307273D01*
X74701074Y-38304123D01*
X74680250Y-38298907D01*
X74660038Y-38291675D01*
X74640632Y-38282496D01*
X74622219Y-38271460D01*
X74604976Y-38258672D01*
X74589070Y-38244256D01*
X74574654Y-38228350D01*
X74561866Y-38211107D01*
X74550830Y-38192694D01*
X74541651Y-38173288D01*
X74534419Y-38153076D01*
X74529203Y-38132252D01*
X74526053Y-38111017D01*
X74525000Y-38089576D01*
X74525000Y-37652076D01*
X74526053Y-37630635D01*
X74529203Y-37609400D01*
X74534419Y-37588576D01*
X74541651Y-37568364D01*
X74550830Y-37548958D01*
X74561866Y-37530545D01*
X74574654Y-37513302D01*
X74589070Y-37497396D01*
X74604976Y-37482980D01*
X74622219Y-37470192D01*
X74640632Y-37459156D01*
X74660038Y-37449977D01*
X74680250Y-37442745D01*
X74701074Y-37437529D01*
X74722309Y-37434379D01*
X74743750Y-37433326D01*
X75256250Y-37433326D01*
X75277691Y-37434379D01*
G37*
G36*
X57277691Y-35859379D02*
G01*
X57298926Y-35862529D01*
X57319750Y-35867745D01*
X57339962Y-35874977D01*
X57359368Y-35884156D01*
X57377781Y-35895192D01*
X57395024Y-35907980D01*
X57410930Y-35922396D01*
X57425346Y-35938302D01*
X57438134Y-35955545D01*
X57449170Y-35973958D01*
X57458349Y-35993364D01*
X57465581Y-36013576D01*
X57470797Y-36034400D01*
X57473947Y-36055635D01*
X57475000Y-36077076D01*
X57475000Y-36514576D01*
X57473947Y-36536017D01*
X57470797Y-36557252D01*
X57465581Y-36578076D01*
X57458349Y-36598288D01*
X57449170Y-36617694D01*
X57438134Y-36636107D01*
X57425346Y-36653350D01*
X57410930Y-36669256D01*
X57395024Y-36683672D01*
X57377781Y-36696460D01*
X57359368Y-36707496D01*
X57339962Y-36716675D01*
X57319750Y-36723907D01*
X57298926Y-36729123D01*
X57277691Y-36732273D01*
X57256250Y-36733326D01*
X56743750Y-36733326D01*
X56722309Y-36732273D01*
X56701074Y-36729123D01*
X56680250Y-36723907D01*
X56660038Y-36716675D01*
X56640632Y-36707496D01*
X56622219Y-36696460D01*
X56604976Y-36683672D01*
X56589070Y-36669256D01*
X56574654Y-36653350D01*
X56561866Y-36636107D01*
X56550830Y-36617694D01*
X56541651Y-36598288D01*
X56534419Y-36578076D01*
X56529203Y-36557252D01*
X56526053Y-36536017D01*
X56525000Y-36514576D01*
X56525000Y-36077076D01*
X56526053Y-36055635D01*
X56529203Y-36034400D01*
X56534419Y-36013576D01*
X56541651Y-35993364D01*
X56550830Y-35973958D01*
X56561866Y-35955545D01*
X56574654Y-35938302D01*
X56589070Y-35922396D01*
X56604976Y-35907980D01*
X56622219Y-35895192D01*
X56640632Y-35884156D01*
X56660038Y-35874977D01*
X56680250Y-35867745D01*
X56701074Y-35862529D01*
X56722309Y-35859379D01*
X56743750Y-35858326D01*
X57256250Y-35858326D01*
X57277691Y-35859379D01*
G37*
G36*
X57277691Y-37434379D02*
G01*
X57298926Y-37437529D01*
X57319750Y-37442745D01*
X57339962Y-37449977D01*
X57359368Y-37459156D01*
X57377781Y-37470192D01*
X57395024Y-37482980D01*
X57410930Y-37497396D01*
X57425346Y-37513302D01*
X57438134Y-37530545D01*
X57449170Y-37548958D01*
X57458349Y-37568364D01*
X57465581Y-37588576D01*
X57470797Y-37609400D01*
X57473947Y-37630635D01*
X57475000Y-37652076D01*
X57475000Y-38089576D01*
X57473947Y-38111017D01*
X57470797Y-38132252D01*
X57465581Y-38153076D01*
X57458349Y-38173288D01*
X57449170Y-38192694D01*
X57438134Y-38211107D01*
X57425346Y-38228350D01*
X57410930Y-38244256D01*
X57395024Y-38258672D01*
X57377781Y-38271460D01*
X57359368Y-38282496D01*
X57339962Y-38291675D01*
X57319750Y-38298907D01*
X57298926Y-38304123D01*
X57277691Y-38307273D01*
X57256250Y-38308326D01*
X56743750Y-38308326D01*
X56722309Y-38307273D01*
X56701074Y-38304123D01*
X56680250Y-38298907D01*
X56660038Y-38291675D01*
X56640632Y-38282496D01*
X56622219Y-38271460D01*
X56604976Y-38258672D01*
X56589070Y-38244256D01*
X56574654Y-38228350D01*
X56561866Y-38211107D01*
X56550830Y-38192694D01*
X56541651Y-38173288D01*
X56534419Y-38153076D01*
X56529203Y-38132252D01*
X56526053Y-38111017D01*
X56525000Y-38089576D01*
X56525000Y-37652076D01*
X56526053Y-37630635D01*
X56529203Y-37609400D01*
X56534419Y-37588576D01*
X56541651Y-37568364D01*
X56550830Y-37548958D01*
X56561866Y-37530545D01*
X56574654Y-37513302D01*
X56589070Y-37497396D01*
X56604976Y-37482980D01*
X56622219Y-37470192D01*
X56640632Y-37459156D01*
X56660038Y-37449977D01*
X56680250Y-37442745D01*
X56701074Y-37437529D01*
X56722309Y-37434379D01*
X56743750Y-37433326D01*
X57256250Y-37433326D01*
X57277691Y-37434379D01*
G37*
G36*
X39277691Y-35859379D02*
G01*
X39298926Y-35862529D01*
X39319750Y-35867745D01*
X39339962Y-35874977D01*
X39359368Y-35884156D01*
X39377781Y-35895192D01*
X39395024Y-35907980D01*
X39410930Y-35922396D01*
X39425346Y-35938302D01*
X39438134Y-35955545D01*
X39449170Y-35973958D01*
X39458349Y-35993364D01*
X39465581Y-36013576D01*
X39470797Y-36034400D01*
X39473947Y-36055635D01*
X39475000Y-36077076D01*
X39475000Y-36514576D01*
X39473947Y-36536017D01*
X39470797Y-36557252D01*
X39465581Y-36578076D01*
X39458349Y-36598288D01*
X39449170Y-36617694D01*
X39438134Y-36636107D01*
X39425346Y-36653350D01*
X39410930Y-36669256D01*
X39395024Y-36683672D01*
X39377781Y-36696460D01*
X39359368Y-36707496D01*
X39339962Y-36716675D01*
X39319750Y-36723907D01*
X39298926Y-36729123D01*
X39277691Y-36732273D01*
X39256250Y-36733326D01*
X38743750Y-36733326D01*
X38722309Y-36732273D01*
X38701074Y-36729123D01*
X38680250Y-36723907D01*
X38660038Y-36716675D01*
X38640632Y-36707496D01*
X38622219Y-36696460D01*
X38604976Y-36683672D01*
X38589070Y-36669256D01*
X38574654Y-36653350D01*
X38561866Y-36636107D01*
X38550830Y-36617694D01*
X38541651Y-36598288D01*
X38534419Y-36578076D01*
X38529203Y-36557252D01*
X38526053Y-36536017D01*
X38525000Y-36514576D01*
X38525000Y-36077076D01*
X38526053Y-36055635D01*
X38529203Y-36034400D01*
X38534419Y-36013576D01*
X38541651Y-35993364D01*
X38550830Y-35973958D01*
X38561866Y-35955545D01*
X38574654Y-35938302D01*
X38589070Y-35922396D01*
X38604976Y-35907980D01*
X38622219Y-35895192D01*
X38640632Y-35884156D01*
X38660038Y-35874977D01*
X38680250Y-35867745D01*
X38701074Y-35862529D01*
X38722309Y-35859379D01*
X38743750Y-35858326D01*
X39256250Y-35858326D01*
X39277691Y-35859379D01*
G37*
G36*
X39277691Y-37434379D02*
G01*
X39298926Y-37437529D01*
X39319750Y-37442745D01*
X39339962Y-37449977D01*
X39359368Y-37459156D01*
X39377781Y-37470192D01*
X39395024Y-37482980D01*
X39410930Y-37497396D01*
X39425346Y-37513302D01*
X39438134Y-37530545D01*
X39449170Y-37548958D01*
X39458349Y-37568364D01*
X39465581Y-37588576D01*
X39470797Y-37609400D01*
X39473947Y-37630635D01*
X39475000Y-37652076D01*
X39475000Y-38089576D01*
X39473947Y-38111017D01*
X39470797Y-38132252D01*
X39465581Y-38153076D01*
X39458349Y-38173288D01*
X39449170Y-38192694D01*
X39438134Y-38211107D01*
X39425346Y-38228350D01*
X39410930Y-38244256D01*
X39395024Y-38258672D01*
X39377781Y-38271460D01*
X39359368Y-38282496D01*
X39339962Y-38291675D01*
X39319750Y-38298907D01*
X39298926Y-38304123D01*
X39277691Y-38307273D01*
X39256250Y-38308326D01*
X38743750Y-38308326D01*
X38722309Y-38307273D01*
X38701074Y-38304123D01*
X38680250Y-38298907D01*
X38660038Y-38291675D01*
X38640632Y-38282496D01*
X38622219Y-38271460D01*
X38604976Y-38258672D01*
X38589070Y-38244256D01*
X38574654Y-38228350D01*
X38561866Y-38211107D01*
X38550830Y-38192694D01*
X38541651Y-38173288D01*
X38534419Y-38153076D01*
X38529203Y-38132252D01*
X38526053Y-38111017D01*
X38525000Y-38089576D01*
X38525000Y-37652076D01*
X38526053Y-37630635D01*
X38529203Y-37609400D01*
X38534419Y-37588576D01*
X38541651Y-37568364D01*
X38550830Y-37548958D01*
X38561866Y-37530545D01*
X38574654Y-37513302D01*
X38589070Y-37497396D01*
X38604976Y-37482980D01*
X38622219Y-37470192D01*
X38640632Y-37459156D01*
X38660038Y-37449977D01*
X38680250Y-37442745D01*
X38701074Y-37437529D01*
X38722309Y-37434379D01*
X38743750Y-37433326D01*
X39256250Y-37433326D01*
X39277691Y-37434379D01*
G37*
D15*
X125775000Y-20695000D03*
X132225000Y-20695000D03*
X126550000Y-20695000D03*
X131450000Y-20695000D03*
D16*
X130750000Y-20695000D03*
X127250000Y-20695000D03*
X130250000Y-20695000D03*
X127750000Y-20695000D03*
X129750000Y-20695000D03*
X128250000Y-20695000D03*
X128750000Y-20695000D03*
X129250000Y-20695000D03*
D17*
X122600000Y-74881000D03*
X123870000Y-74881000D03*
X125140000Y-74881000D03*
X126410000Y-74881000D03*
X127680000Y-74881000D03*
X128950000Y-74881000D03*
X130220000Y-74881000D03*
X131490000Y-74881000D03*
X132760000Y-74881000D03*
X134030000Y-74881000D03*
X126410000Y-87119000D03*
X134030000Y-87119000D03*
X127680000Y-87119000D03*
X132760000Y-87119000D03*
X131490000Y-87119000D03*
X130220000Y-87119000D03*
X125140000Y-87119000D03*
X128950000Y-87119000D03*
X123870000Y-87119000D03*
X122600000Y-87119000D03*
D18*
X120381000Y-84150000D03*
X120381000Y-76530000D03*
X120381000Y-82880000D03*
X120381000Y-77800000D03*
X120381000Y-79070000D03*
X120381000Y-80340000D03*
X120381000Y-85420000D03*
X120381000Y-81610000D03*
M02*
