M48
; DRILL file {KiCad (5.1.5-0-10_14)} date Wednesday, December 02, 2020 at 09:52:58 AM
; FORMAT={-:-/ absolute / inch / decimal}
; #@! TF.CreationDate,2020-12-02T09:52:58-06:00
; #@! TF.GenerationSoftware,Kicad,Pcbnew,(5.1.5-0-10_14)
FMAT,2
INCH
T1C0.0118
T2C0.0130
T3C0.0236
T4C0.0394
T5C0.0500
T6C0.0256
T7C0.0390
T8C0.0670
T9C0.1350
%
G90
G05
T1
X4.8068Y-3.0381
X4.8068Y-3.0881
X4.8068Y-3.1381
X4.8068Y-3.1881
X4.8068Y-3.2381
X4.8068Y-3.2881
X4.8068Y-3.3381
X4.9068Y-3.3481
X4.9568Y-3.3481
X5.0068Y-3.3481
X5.0568Y-3.3481
X5.1068Y-3.3481
X5.1568Y-3.3481
X5.2068Y-3.3481
X5.2568Y-3.3481
T2
X0.9154Y-3.44
X3.5288Y-2.9101
X3.7008Y-3.0161
X3.7008Y-3.0633
X3.8976Y-3.1053
X3.9428Y-3.0305
X4.4888Y-2.8725
X4.4968Y-1.4925
X4.5288Y-0.9845
X4.5351Y-3.2868
X4.5472Y-2.3245
X4.6268Y-2.7756
X4.6668Y-2.1605
X4.6668Y-2.8005
X4.6808Y-2.8725
X4.7768Y-2.7265
X4.7768Y-2.8825
X4.8268Y-3.3805
X4.8368Y-2.7756
X4.8368Y-2.9025
X4.8368Y-2.4465
X4.8608Y-2.8045
X4.8682Y-2.9046
X4.8748Y-3.0105
X4.8828Y-3.0665
X4.9008Y-2.7065
X4.9016Y-1.6552
X4.9308Y-3.2865
X4.9606Y-3.1332
X4.9668Y-2.5525
X4.9768Y-2.8985
X4.9808Y-2.4205
X4.9808Y-3.2845
X5.0036Y-2.8819
X5.0768Y-0.9725
X5.0788Y-0.941
X5.0968Y-2.8985
X5.1014Y-3.4653
X5.1378Y-0.958
X5.1668Y-2.8985
X5.1748Y-0.9465
X5.1888Y-0.8765
X5.2264Y-3.0495
X5.2559Y-2.2966
X5.3048Y-0.9725
X5.3488Y-2.8205
X5.5848Y-2.9505
X5.6102Y-2.6591
X5.8688Y-0.9425
X6.4764Y-2.9843
X8.8908Y-0.9845
X9.2717Y-3.4678
T4
X0.733Y-2.784
X0.833Y-2.784
T5
X0.9843Y-1.3307
X1.1811Y-1.4134
X3.6417Y-2.6693
X3.8386Y-2.752
X5.9449Y-1.3307
X6.1417Y-1.4134
X7.8937Y-2.6693
X8.0906Y-2.752
X7.185Y-2.6693
X7.3819Y-2.752
X5.4134Y-2.0
X5.6102Y-2.0827
X4.7047Y-2.0
X4.9016Y-2.0827
X2.4016Y-1.3307
X2.5984Y-1.4134
X4.3504Y-2.6693
X4.5472Y-2.752
X8.7795Y-2.6693
X8.9764Y-2.752
X8.7795Y-1.3307
X8.9764Y-1.4134
X3.1102Y-1.3307
X3.3071Y-1.4134
X5.0591Y-2.6693
X5.2559Y-2.752
X6.6535Y-1.3307
X6.8504Y-1.4134
X6.8307Y-3.3386
X7.0276Y-3.4213
X4.1732Y-3.3386
X4.3701Y-3.4213
X1.8701Y-2.0
X2.0669Y-2.0827
X6.122Y-2.0
X6.3189Y-2.0827
X1.1614Y-2.6693
X1.3583Y-2.752
X3.8189Y-1.3307
X4.0157Y-1.4134
X7.3622Y-1.3307
X7.5591Y-1.4134
X1.1614Y-3.3386
X1.3583Y-3.4213
X7.7165Y-3.3386
X7.9134Y-3.4213
X8.9567Y-2.0
X9.1535Y-2.0827
X2.5787Y-2.0
X2.7756Y-2.0827
X6.8307Y-2.0
X7.0276Y-2.0827
X2.2244Y-2.6693
X2.4213Y-2.752
X8.6024Y-3.3386
X8.7992Y-3.4213
X4.5276Y-1.3307
X4.7244Y-1.4134
X5.7677Y-2.6693
X5.9646Y-2.752
X8.0709Y-1.3307
X8.2677Y-1.4134
X2.0472Y-3.3386
X2.2441Y-3.4213
X3.2874Y-2.0
X3.4843Y-2.0827
X2.9331Y-2.6693
X3.1299Y-2.752
X8.6024Y-2.0
X8.7992Y-2.0827
X5.2362Y-1.3307
X5.4331Y-1.4134
X6.4764Y-2.6693
X6.6732Y-2.752
X0.9843Y-2.0
X1.1811Y-2.0827
X2.9331Y-3.3386
X3.1299Y-3.4213
X5.5906Y-3.3386
X5.7874Y-3.4213
X3.9961Y-2.0
X4.1929Y-2.0827
X8.248Y-2.0
X8.4449Y-2.0827
X7.5394Y-2.0
X7.7362Y-2.0827
X1.6929Y-1.3307
X1.8898Y-1.4134
T6
X4.965Y-0.7579
X5.1925Y-0.7579
T7
X6.8787Y-2.3543
X1.3866Y-1.685
X3.3354Y-3.0236
X5.9929Y-3.0236
X4.3984Y-1.685
X8.6504Y-1.685
X7.9417Y-1.685
X2.0953Y-1.0157
X1.3866Y-1.0157
X4.0441Y-2.3543
X6.3472Y-1.0157
X8.2961Y-2.3543
X7.5874Y-2.3543
X5.8157Y-1.685
X5.1071Y-1.685
X2.8039Y-1.0157
X4.7528Y-2.3543
X9.1819Y-2.3543
X9.1819Y-1.0157
X3.5126Y-1.0157
X5.4614Y-2.3543
X7.0559Y-1.0157
X7.2331Y-3.0236
X4.5756Y-3.0236
X2.2724Y-1.685
X6.5244Y-1.685
X1.5638Y-2.3543
X4.2213Y-1.0157
X7.7646Y-1.0157
X1.5638Y-3.0236
X8.1189Y-3.0236
X9.3591Y-1.685
X2.9811Y-1.685
X7.2331Y-1.685
X2.6268Y-2.3543
X9.0047Y-3.0236
X4.9299Y-1.0157
X6.1701Y-2.3543
X8.4732Y-1.0157
X2.4496Y-3.0236
X3.6898Y-1.685
X4.8616Y-2.6697
X4.9016Y-2.3697
X4.9416Y-2.6697
X3.3354Y-2.3543
X9.0047Y-1.685
X5.6386Y-1.0157
T8
X6.811Y-1.8504
X7.2441Y-1.8504
X2.2047Y-2.5197
X2.6378Y-2.5197
X8.5827Y-3.189
X9.0157Y-3.189
X4.5079Y-1.1811
X4.9409Y-1.1811
X5.748Y-2.5197
X6.1811Y-2.5197
X8.0512Y-1.1811
X8.4843Y-1.1811
X2.0276Y-3.189
X2.4606Y-3.189
X3.2677Y-1.8504
X3.7008Y-1.8504
X2.9134Y-2.5197
X3.3465Y-2.5197
X8.5827Y-1.8504
X9.0157Y-1.8504
X5.2165Y-1.1811
X5.6496Y-1.1811
X6.4567Y-2.5197
X6.8898Y-2.5197
X0.9646Y-1.8504
X1.3976Y-1.8504
X2.9134Y-3.189
X3.3465Y-3.189
X5.5709Y-3.189
X6.0039Y-3.189
X3.9764Y-1.8504
X4.4094Y-1.8504
X8.2283Y-1.8504
X8.6614Y-1.8504
X7.5197Y-1.8504
X7.9528Y-1.8504
X1.6732Y-1.1811
X2.1063Y-1.1811
X0.9646Y-1.1811
X1.3976Y-1.1811
X3.622Y-2.5197
X4.0551Y-2.5197
X5.9252Y-1.1811
X6.3583Y-1.1811
X7.874Y-2.5197
X8.3071Y-2.5197
X7.1654Y-2.5197
X7.5984Y-2.5197
X5.3937Y-1.8504
X5.8268Y-1.8504
X4.685Y-1.8504
X5.1181Y-1.8504
X2.3819Y-1.1811
X2.815Y-1.1811
X4.3307Y-2.5197
X4.7638Y-2.5197
X8.7598Y-2.5197
X9.1929Y-2.5197
X8.7598Y-1.1811
X9.1929Y-1.1811
X3.0906Y-1.1811
X3.5236Y-1.1811
X5.0394Y-2.5197
X5.4724Y-2.5197
X6.6339Y-1.1811
X7.0669Y-1.1811
X6.811Y-3.189
X7.2441Y-3.189
X4.1535Y-3.189
X4.5866Y-3.189
X1.8504Y-1.8504
X2.2835Y-1.8504
X6.1024Y-1.8504
X6.5354Y-1.8504
X1.1417Y-2.5197
X1.5748Y-2.5197
X3.7992Y-1.1811
X4.2323Y-1.1811
X7.3425Y-1.1811
X7.7756Y-1.1811
X1.1417Y-3.189
X1.5748Y-3.189
X7.6969Y-3.189
X8.1299Y-3.189
X8.937Y-1.8504
X9.3701Y-1.8504
X2.5591Y-1.8504
X2.9921Y-1.8504
T9
X5.7874Y-3.189
X4.1929Y-1.8504
X8.4449Y-1.8504
X7.7362Y-1.8504
X1.8898Y-1.1811
X1.1811Y-1.1811
X3.8386Y-2.5197
X6.1417Y-1.1811
X8.0906Y-2.5197
X7.3819Y-2.5197
X5.6102Y-1.8504
X4.9016Y-1.8504
X2.5984Y-1.1811
X4.5472Y-2.5197
X8.9764Y-2.5197
X8.9764Y-1.1811
X3.3071Y-1.1811
X5.2559Y-2.5197
X6.8504Y-1.1811
X7.0276Y-3.189
X4.3701Y-3.189
X2.0669Y-1.8504
X6.3189Y-1.8504
X1.3583Y-2.5197
X4.0157Y-1.1811
X7.5591Y-1.1811
X1.3583Y-3.189
X7.9134Y-3.189
X9.1535Y-1.8504
X2.7756Y-1.8504
X7.0276Y-1.8504
X2.4213Y-2.5197
X8.7992Y-3.189
X4.7244Y-1.1811
X5.9646Y-2.5197
X8.2677Y-1.1811
X2.2441Y-3.189
X3.4843Y-1.8504
X3.1299Y-2.5197
X8.7992Y-1.8504
X5.4331Y-1.1811
X6.6732Y-2.5197
X1.1811Y-1.8504
X3.1299Y-3.189
T3
G00X4.9087Y-0.626
M15
G01X4.9087Y-0.6024
M16
G05
G00X4.9087Y-0.8004
M15
G01X4.9087Y-0.7571
M16
G05
G00X5.2488Y-0.626
M15
G01X5.2488Y-0.6024
M16
G05
G00X5.2488Y-0.8004
M15
G01X5.2488Y-0.7571
M16
G05
T0
M30
